<ttFont>
<head>
    <!-- Most of this table will be recalculated by the compiler -->
    <tableVersion value="1.0"/>
    <fontRevision value="2.004"/>
    <checkSumAdjustment value="0xcd0917ee"/>
    <magicNumber value="0x5f0f3cf5"/>
    <flags value="00000000 00000011"/>
    <unitsPerEm value="1000"/>
    <created value="Thu Oct  8 09:59:41 2009"/>
    <modified value="Thu Oct  8 09:59:41 2009"/>
    <xMin value="-476"/>
    <yMin value="-289"/>
    <xMax value="1577"/>
    <yMax value="1137"/>
    <macStyle value="00000000 00000001"/>
    <lowestRecPPEM value="3"/>
    <fontDirectionHint value="2"/>
    <indexToLocFormat value="0"/>
    <glyphDataFormat value="0"/>
  </head>
          <CharString index="0">
            810 hmoveto
            43 -95 vlineto
            -257 634 rlineto
            18 -7 -2 5 -24 hhcurveto
            -25 -2 -5 -18 -7 hvcurveto
            -248 -610 -7 -16 0 -2 -28 -3 rlinecurve
            -3 -25 -4 0 -22 hhcurveto
            -18 -43 hlineto
            2 26 60 0 29 hhcurveto
            27 -27 callsubr
            -22 -38 0 11 -28 hvcurveto
            3 9 0 2 2 4 53 130 rcurveline
            268 hlineto
            63 -156 rlineto
            -94 -43 hlineto
            2 32 97 0 38 hhcurveto
            32 102 0 -2 25 hvcurveto
            -313 242 rmoveto
            -233 hlineto
            117 288 rlineto
            return
          </CharString>
          <CharString index="1">
            541 22 rmoveto
            21 -9 0 -14 vhcurveto
            -63 1 0 16 23 vvcurveto
            216 vlineto
            92 -73 62 -141 -56 -118 -5 -84 -42 32 -18 27 30 29 21 38 19 -7 18 -17 11 vhcurveto
            9 33 24 0 19 hhcurveto
            68 41 -38 -82 hvcurveto
            -40 vlineto
            -158 -159 -44 -111 -91 116 -20 69 77 49 42 44 20 hvcurveto
            return
          </CharString>
          <CharString index="2">
            826 643 58 callgsubr
            -23 -78 0 -28 hhcurveto
            -28 -78 0 2 -23 hvcurveto
            -43 23 vlineto
            27 2 0 -3 24 hvcurveto
            29 -4 1 -1 -22 vvcurveto
            -381 vlineto
            -143 -101 -58 -118 -175 -4 134 58 vhcurveto
            420 106 43 vlineto
            -2 -29 -107 0 -36 hhcurveto
            -36 -107 45 callsubr
            -413 vlineto
            -132 106 -110 201 185 84 115 126 vhcurveto
            384 vlineto
            22 1 1 26 4 vhcurveto
            2 18 20 1 18 hhcurveto
            return
          </CharString>
          <CharString index="3">
            -6 callsubr
            hintmask 10100110
            -106 callsubr
            hintmask 01000110
            -93 callgsubr
            return
          </CharString>
          <CharString index="4">
            -20 -104 callsubr
            hintmask 00011000
            return
          </CharString>
          <CharString index="5">
            -103 callgsubr
            hintmask 00011000
            return
          </CharString>
          <CharString index="6">
            rmoveto
            -33 hlineto
            -87 -3 -76 -39 -60 hhcurveto
            -64 -73 41 85 -3 hvcurveto
            -33 hlineto
            -113 3 82 -71 88 hhcurveto
            84 85 68 116 3 hvcurveto
            return
          </CharString>
          <CharString index="7">
            94 -62 90 -109 25 vhcurveto
            -137 31 rlineto
            -99 22 -3 72 14 vvcurveto
            51 33 59 97 97 87 -47 -131 21 vhcurveto
            -21 3 0 -1 19 hhcurveto
            21 0 3 23 hvcurveto
            188 vlineto
            19 0 7 -15 -7 -3 -1 -10 -9 vhcurveto
            -43 -49 rlineto
            21 -25 -50 39 -97 hhcurveto
            -143 -76 -90 -109 -67 36 -47 14 -14 hvcurveto
            52 -52 28 -6 104 -23 100 -22 12 -2 22 -21 rrcurveto
            13 -13 29 -28 -51 vvcurveto
            -43 -21 -79 -112 -88 -139 30 146 -8 vhcurveto
            18 -1 0 3 -20 hhcurveto
            -21 0 -3 -23 hvcurveto
            -188 vlineto
            -19 0 -7 15 7 1 1 9 10 vhcurveto
            11 11 9 13 25 25 return
          </CharString>
          <CharString index="8">
            23 6 0 25 30 -7 75 -46 47 hvcurveto
            42 -42 -56 13 -58 hhcurveto
            -156 -85 -102 -126 -140 103 -91 151 151 45 106 17 135 callgsubr
            -238 hlineto
            2 41 1 39 21 36 rrcurveto
            32 19 35 22 43 hhcurveto
            107 9 -120 -50 1 hvcurveto
            return
          </CharString>
          <CharString index="9">
            0 callgsubr
            hintmask 11000110
            -89 callsubr
            hintmask 11100101
            -99 callsubr
            return
          </CharString>
          <CharString index="10">
            -141 14 rmoveto
            -99 -11 -83 -50 -69 vhcurveto
            -34 -25 -55 -43 -78 hhcurveto
            -65 -63 31 57 -38 hvcurveto
            -48 73 -5 94 73 vvcurveto
            61 3 84 41 68 vhcurveto
            70 44 72 25 59 hhcurveto
            81 60 -43 -45 29 hvcurveto
            37 -58 12 -62 -100 vvcurveto
            return
          </CharString>
          <CharString index="11">
            -42 callgsubr
            hintmask 1110011010000000
            706 270 rmoveto
            -42 hlineto
            -149 -21 -37 -78 -174 hhcurveto
            -156 289 59 hlineto
            96 10 -41 -76 hvcurveto
            42 277 -42 hlineto
            -75 -10 -42 -96 vhcurveto
            -59 263 156 hlineto
            hintmask 1010010100000000
            153 33 -65 -129 15 hvcurveto
            42 hlineto
            -29 237 rlineto
            -608 1 callgsubr
            625 hlineto
            hintmask 0000000010000000
            return
          </CharString>
          <CharString index="12">
            405 139 rmoveto
            48 -26 33 -20 18 vhcurveto
            -41 34 -34 6 -54 10 rrcurveto
            -64 11 -60 11 48 vvcurveto
            65 89 0 21 111 6 -70 -25 2 vhcurveto
            -13 1 8 0 12 hhcurveto
            21 0 3 23 hvcurveto
            86 vlineto
            19 0 7 -15 -6 -2 0 -9 -15 vhcurveto
            -4 -3 -11 -7 -5 -3 rrcurveto
            16 -28 -37 6 -36 hhcurveto
            -30 -150 0 -130 -105 124 -22 31 -5 hvcurveto
            -5 27 33 -6 4 hhcurveto
            40 -9 40 -25 -42 vvcurveto
            -77 -91 0 -21 -51 -63 16 97 -28 vhcurveto
            20 -6 -1 1 -17 hhcurveto
            -21 0 -3 -23 hvcurveto
            -115 vlineto
            -19 0 -7 15 7 2 0 16 20 vhcurveto
            return
          </CharString>
          <CharString index="13">
            rmoveto
            -40 125 rlineto
            16 -5 -10 30 -36 hhcurveto
            -32 -31 -28 -29 -21 13 -12 8 -8 hvcurveto
            97 -95 rlineto
            -151 22 rmoveto
            -40 125 rlineto
            16 -5 -10 30 -36 hhcurveto
            -32 -31 -28 -29 -21 13 -12 8 -8 hvcurveto
            97 -95 rlineto
            endchar
          </CharString>
          <CharString index="14">
            387 hmoveto
            43 -112 600 112 75 callsubr
            -100 0 -42 hhcurveto
            -42 -100 0 2 -36 hvcurveto
            -43 112 -600 -112 -16 callgsubr
            36 100 0 42 hhcurveto
            42 100 0 -2 36 hvcurveto
            return
          </CharString>
          <CharString index="15">
            22 callgsubr
            hintmask 00100000
            -82 callsubr
            hintmask 00010000
            -88 callgsubr
            hintmask 00100000
            24 -22 rlineto
            hintmask 00010000
            -82 callgsubr
            hintmask 00100000
            -84 callgsubr
          </CharString>
          <CharString index="16">
            rmoveto
            30 -28 30 -30 -23 -14 -17 -7 -6 vhcurveto
            -113 -136 27 -33 151 84 rlineto
            13 7 23 13 29 vvcurveto
            endchar
          </CharString>
          <CharString index="17">
            -8 rlineto
            -43 vlineto
            62 7 0 -39 hvcurveto
            return
          </CharString>
          <CharString index="18">
            481 117 rmoveto
            15 -15 0 -6 -16 -1 -3 -13 -6 vhcurveto
            -65 -26 -66 -21 -48 hhcurveto
            -145 -1 135 56 hvcurveto
            301 hlineto
            return
          </CharString>
          <CharString index="19">
            22 callgsubr
            hintmask 00010000
            -82 callsubr
            hintmask 00001000
            -88 callgsubr
            hintmask 00010000
            24 -22 rlineto
            hintmask 00001000
            -82 callgsubr
            hintmask 00010000
            -84 callgsubr
          </CharString>
          <CharString index="20">
            -42 callsubr
            72 0 28 -50 callgsubr
            return
          </CharString>
          <CharString index="21">
            827 230 58 callgsubr
            -24 -107 0 -32 hhcurveto
            -188 2 rlineto
            -43 141 -102 vlineto
            -21 0 -28 -40 -25 vhcurveto
            -13 -20 -31 -10 -42 hhcurveto
            -57 -99 14 73 -62 hvcurveto
            -39 45 -24 61 120 vvcurveto
            103 17 70 45 53 vhcurveto
            75 64 100 10 48 -9 callgsubr
            return
          </CharString>
          <CharString index="22">
            66 -33 55 -56 -44 -27 -33 -39 -36 25 -36 47 29 18 15 8 8 vhcurveto
            -2 -78 -33 -62 -56 -45 rrcurveto
            -9 -8 -1 -1 -4 vvcurveto
            -9 12 -10 6 14 102 84 133 vhcurveto
            return
          </CharString>
          <CharString index="23">
            749 228 rmoveto
            17 -6 1 -15 -10 -10 0 -11 -1 vhcurveto
            -152 -9 -129 -52 -90 hhcurveto
            -65 -88 18 63 -56 hvcurveto
            -35 38 -32 55 138 vvcurveto
            98 15 73 47 56 vhcurveto
            75 64 100 10 48 -9 callgsubr
            -76 callgsubr
            return
          </CharString>
          <CharString index="24">
            -20 78 callsubr
            hintmask 11100110
            -86 callsubr
            hintmask 11100101
            -79 callgsubr
            return
          </CharString>
          <CharString index="25">
            -15 -13 -27 -22 -37 hhcurveto
            -23 -25 8 13 -36 hvcurveto
            return
          </CharString>
          <CharString index="26">
            781 340 rmoveto
            96 -30 96 -68 68 vhcurveto
            -4 4 -5 4 -4 4 rrcurveto
            47 17 32 53 57 vvcurveto
            42 -27 38 -40 -44 -22 -33 -33 -34 22 -33 44 vhcurveto
            10 hlineto
            -13 -22 -21 -16 -26 -8 rrcurveto
            40 -61 -75 18 -74 hhcurveto
            -97 -96 -30 -68 -69 hvcurveto
            -68 -68 -30 -96 -96 vvcurveto
            -95 31 -95 67 -66 vhcurveto
            -67 69 96 -29 97 hhcurveto
            96 96 29 67 69 hvcurveto
            return
          </CharString>
          <CharString index="27">
            rmoveto
            -42 -31 -3 -34 -30 -35 1 44 42 31 3 34 30 35 -1 -44 vhcurveto
            50 -1 rmoveto
            43 -33 42 -83 -80 -34 -42 -41 -46 38 -39 76 87 29 46 37 vhcurveto
            return
          </CharString>
          <CharString index="28">
            -170 -8 rlineto
            -43 vlineto
            59 7 0 -39 hvcurveto
            -317 -42 callsubr
            69 0 27 hhcurveto
            28 64 0 -2 24 hvcurveto
            return
          </CharString>
          <CharString index="29">
            833 hmoveto
            43 -27 vlineto
            -54 -4 5 14 -10 hvcurveto
            -269 360 238 202 rlineto
            11 13 9 8 89 hhcurveto
            43 vlineto
            -107 -2 rlineto
            -30 -78 0 2 -25 hvcurveto
            -43 vlineto
            22 24 -1 -10 26 hvcurveto
            -1 vlineto
            -374 -319 rlineto
            331 106 43 vlineto
            -2 -29 -107 0 -36 hhcurveto
            -36 -107 45 callsubr
            -600 -44 callsubr
            214 vlineto
            103 88 209 -279 rlineto
            2 -3 4 -5 -4 vvcurveto
            -11 -49 0 -22 vhcurveto
            -16 callgsubr
            32 93 0 38 hhcurveto
            30 94 -54 callsubr
            return
          </CharString>
          <CharString index="30">
            rmoveto
            -101 callgsubr
            282 hmoveto
            -101 callgsubr
            endchar
          </CharString>
          <CharString index="31">
            129 callgsubr
            6 9 -4 12 -8 7 -11 10 -16 0 -5 -7 rrcurveto
            7 callgsubr
            return
          </CharString>
          <CharString index="32">
            rmoveto
            -135 114 rlineto
            5 -7 -14 12 -18 hhcurveto
            -36 -27 -34 -36 9 hvcurveto
            5 -28 25 -9 14 -5 163 -56 rcurveline
            endchar
          </CharString>
          <CharString index="33">
            108 80 53 64 37 21 -24 -76 -58 callgsubr
            return
          </CharString>
          <CharString index="34">
            -102 callsubr
            219 return
          </CharString>
          <CharString index="35">
            132 hintmask 11001000
            -93 callsubr
            return
          </CharString>
          <CharString index="36">
            468 117 rmoveto
            12 -11 0 -10 -16 -1 -1 -12 -5 vhcurveto
            -19 -7 -27 -67 -92 hhcurveto
            -141 0 152 45 59 1 131 131 7 59 -2 -5 0 -1 -2 -2 -1 hvcurveto
            -3 -3 -13 -15 -25 vvcurveto
            -42 34 -17 25 21 38 13 47 82 -115 6 -54 -178 -70 -116 -115 -136 95 -92 147 157 31 116 7 vhcurveto
            return
          </CharString>
          <CharString index="37">
            28 callgsubr
            104 0 36 hhcurveto
            36 105 46 callgsubr
            284 119 vlineto
            40 32 -12 -26 22 hvcurveto
            30 -34 0 -22 -67 vvcurveto
            -67 0 -41 51 -34 vhcurveto
            return
          </CharString>
          <CharString index="38">
            -94 callgsubr
            -44 237 rmoveto
            -21 -37 -163 56 -14 5 -25 9 -5 28 rlinecurve
            36 -9 27 34 36 hhcurveto
            18 14 -12 -5 7 hvcurveto
            endchar
          </CharString>
          <CharString index="39">
            258 -45 rmoveto
            495 vlineto
            -180 -8 rlineto
            -43 vlineto
            17 22 0 -2 15 hvcurveto
            22 -4 0 -13 -21 vvcurveto
            -404 vlineto
            -45 -12 -77 -61 -19 -13 4 2 -9 vhcurveto
            5 3 20 16 30 vvcurveto
            36 -26 23 -33 -34 -25 -24 -35 -58 62 -30 72 84 93 52 103 vhcurveto
            return
          </CharString>
          <CharString index="40">
            hstemhm
            113 -64 callsubr
            return
          </CharString>
          <CharString index="41">
            -54 callgsubr
            hintmask 11000101
            -47 callsubr
            hintmask 00101000
            return
          </CharString>
          <CharString index="42">
            68 66 30 95 95 vvcurveto
            -142 17 rmoveto
            -85 -6 -87 -47 -70 vhcurveto
            -56 -36 -62 -32 -66 hhcurveto
            -67 -62 32 56 -36 hvcurveto
            -47 70 -6 87 85 vvcurveto
            78 7 81 46 63 vhcurveto
            53 37 63 29 65 hhcurveto
            65 62 -29 -53 37 hvcurveto
            46 -63 7 -81 -78 vvcurveto
            return
          </CharString>
          <CharString index="43">
            104 hintmask 10100100
            -5 callgsubr
            hintmask 11000100
            -79 callsubr
            return
          </CharString>
          <CharString index="44">
            36 -25 36 -47 -29 -18 -15 -8 -8 vhcurveto
            2 78 33 62 56 45 rrcurveto
            9 8 1 1 4 vvcurveto
            9 -12 10 -6 -14 -102 -84 -133 -66 33 -55 56 44 27 33 39 vhcurveto
            return
          </CharString>
          <CharString index="45">
            452 198 rmoveto
            -42 hlineto
            -106 -8 -22 -56 -126 hhcurveto
            -91 hlineto
            277 370 rlineto
            9 11 0 2 6 vvcurveto
            19 -10 0 -19 vhcurveto
            -362 hlineto
            -11 -172 rlineto
            42 hlineto
            95 6 22 44 111 hhcurveto
            90 hlineto
            -278 -371 rlineto
            -9 -11 0 -2 -7 vvcurveto
            -20 9 0 20 vhcurveto
            375 hlineto
            return
          </CharString>
          <CharString index="46">
            82 callsubr
            107 0 36 hhcurveto
            36 107 0 -2 29 hvcurveto
            return
          </CharString>
          <CharString index="47">
            -83 callgsubr
            hintmask 01000000
            return
          </CharString>
          <CharString index="48">
            5 2 -12 hvcurveto
            -25 4 -2 11 -2 10 rrcurveto
            -42 hlineto
            -33 -247 rlineto
            42 hlineto
            1 10 8 70 17 11 rrcurveto
            6 9 83 0 16 hhcurveto
            181 hlineto
            -116 -141 -13 -16 -31 -59 rrcurveto
            -59 -116 -9 -90 -49 vvcurveto
            -67 51 0 8 25 14 13 7 7 vhcurveto
            13 16 0 12 44 vvcurveto
            153 14 112 63 75 vhcurveto
            150 179 rlineto
            9 10 0 2 33 vvcurveto
            endchar
          </CharString>
          <CharString index="49">
            rmoveto
            -14 24 -160 -58 -160 58 -16 -24 175 -141 rlineto
            endchar
          </CharString>
          <CharString index="50">
            -76 callgsubr
            -206 149 -149 245 return
          </CharString>
          <CharString index="51">
            -164 -90 callsubr
            -317 43 callgsubr
            182 vlineto
            return
          </CharString>
          <CharString index="52">
            -129 118 callgsubr
            26 0 -3 27 hvcurveto
            11 -2 15 -2 -7 vvcurveto
            -400 vlineto
            -58 -19 -52 -39 -35 vhcurveto
            -37 -40 -58 -16 -64 hhcurveto
            -57 -49 17 35 -32 hvcurveto
            -31 34 -9 47 65 vvcurveto
            414 106 43 vlineto
            return
          </CharString>
          <CharString index="53">
            0 -2 23 hvcurveto
            return
          </CharString>
          <CharString index="54">
            374 124 rmoveto
            53 -42 -52 vlineto
            -66 -30 -29 -31 -60 0 67 23 vhcurveto
            281 144 43 -144 191 -42 vlineto
            -1 -99 -48 -99 -99 -3 rrcurveto
            -33 vlineto
            return
          </CharString>
          <CharString index="55">
            630 279 rmoveto
            -42 hlineto
            -117 -8 -19 -116 -199 hhcurveto
            -146 hlineto
            400 594 rlineto
            8 12 0 5 7 vvcurveto
            22 -8 0 -21 vhcurveto
            -506 hlineto
            -11 -237 rlineto
            42 hlineto
            return
          </CharString>
          <CharString index="56">
            -94 callgsubr
            endchar
          </CharString>
          <CharString index="57">
            rmoveto
            113 -3 -82 71 -88 hhcurveto
            -84 -85 -68 -116 -3 hvcurveto
            33 hlineto
            87 3 76 39 60 hhcurveto
            64 73 -41 -85 3 hvcurveto
            endchar
          </CharString>
          <CharString index="58">
            92 -6 33 -33 36 191 29 170 33 hstemhm
            31 111 136 111 25 109 228 92 hintmask 01111011
            843 117 rmoveto
            15 -15 0 -6 -16 -2 -4 -13 -4 vhcurveto
            -63 -24 -59 -22 -44 hhcurveto
            -148 -2 148 43 hvcurveto
            291 hlineto
            23 6 0 25 98 -42 109 -152 -52 -74 -12 -62 -55 hvcurveto
            52 -48 -72 22 -71 hhcurveto
            -153 -93 -95 -134 -134 93 -96 153 127 57 67 10 9 hvcurveto
            -77 69 102 0 21 hhcurveto
            137 44 104 19 135 callgsubr
            -228 hlineto
            2 50 6 38 19 30 rrcurveto
            42 28 44 10 26 hhcurveto
            96 5 -120 -50 2 hvcurveto
            -337 -22 rmoveto
            -39 0 -57 -24 -43 vhcurveto
            hintmask 10011110
            -51 -29 -52 -11 -31 hhcurveto
            -136 0 143 58 60 0 132 136 36 45 -12 -45 30 hvcurveto
            25 -39 0 -56 -40 vvcurveto
            endchar
          </CharString>
          <CharString index="59">
            75 121 -42 -176 30 hvcurveto
            -9 2 9 0 12 hhcurveto
            return
          </CharString>
          <CharString index="60">
            -57 callgsubr
            hintmask 00000010
            24 -35 0 -56 -49 vvcurveto
            return
          </CharString>
          <CharString index="61">
            361 -12 33 -21 67 callgsubr
            -21 33 hstemhm
            81 136 364 114 215 42 87 42 -11 42 hintmask 0111001101000000
            1112 270 rmoveto
            -42 hlineto
            -146 -21 -32 -81 -172 hhcurveto
            -150 292 94 hlineto
            92 29 -26 -91 hvcurveto
            42 277 -42 hlineto
            -91 -29 -26 -92 vhcurveto
            -94 265 148 hlineto
            hintmask 0001000010000000
            159 23 -75 -119 14 hvcurveto
            42 hlineto
            -29 237 rlineto
            -418 hlineto
            -26 -25 2 3 -26 hvcurveto
            hintmask 1000110000000000
            4 -33 -40 3 -28 hhcurveto
            -236 -139 -151 -207 -206 140 -146 235 3 33 0 5 45 hvcurveto
            hintmask 0100000001000000
            1 9 57 6 31 hhcurveto
            435 hlineto
            -488 195 rmoveto
            hintmask 1000111000000000
            -148 -32 -26 -89 -138 -105 116 218 213 113 97 129 89 33 -25 -149 vhcurveto
            endchar
          </CharString>
          <CharString index="62">
            -8 callgsubr
            238 hmoveto
            -63 callsubr
            endchar
          </CharString>
          <CharString index="63">
            -61 callsubr
            43 -106 return
          </CharString>
          <CharString index="64">
            -56 callsubr
            hintmask 00100010
            -40 callsubr
            return
          </CharString>
          <CharString index="65">
            -69 -16 callgsubr
            23 return
          </CharString>
          <CharString index="66">
            227 -37 callgsubr
            return
          </CharString>
          <CharString index="67">
            33 7 159 117 vhcurveto
            -14 -11 -7 -17 -18 vvcurveto
            -41 33 -17 25 25 33 17 41 vhcurveto
            return
          </CharString>
          <CharString index="68">
            600 hmoveto
            43 -69 263 vlineto
            95 -41 49 -110 return
          </CharString>
          <CharString index="69">
            67 107 callgsubr
            819 hmoveto
            43 -96 vlineto
            -253 353 169 226 10 13 4 2 33 3 rlinecurve
            3 26 4 0 29 hhcurveto
            26 145 callgsubr
            -80 0 -28 hhcurveto
            -31 -87 0 2 -25 hvcurveto
            -43 vlineto
            12 49 0 -12 30 hvcurveto
            -146 -196 -149 208 rlineto
            83 43 hlineto
            -2 -36 -94 0 -41 hhcurveto
            -34 -99 0 2 -27 hvcurveto
            -43 97 vlineto
            222 -311 -201 -268 -9 -12 -3 -3 -35 -3 rlinecurve
            -2 -25 -5 -1 -28 hhcurveto
            -27 -43 hlineto
            2 23 81 0 28 hhcurveto
            31 86 0 -2 25 hvcurveto
            43 vlineto
            -11 -51 0 12 -29 hvcurveto
            178 238 180 -250 rlineto
            -83 -43 hlineto
            2 32 100 0 38 hhcurveto
            32 103 0 -2 25 hvcurveto
            endchar
          </CharString>
          <CharString index="70">
            7 rmoveto
            122 -83 87 -137 -40 -48 -8 -32 -43 vhcurveto
            149 vlineto
            hintmask 0000010000000000
            -8 34 27 0 15 hhcurveto
            hintmask 0000001100000000
            24 57 0 41 67 hvcurveto
            31 19 52 45 23 vvcurveto
            5 0 12 -12 vhcurveto
            0 -3 0 -10 -5 vhcurveto
            hintmask 0000010100100000
            -16 -46 -49 -11 -56 hhcurveto
            -57 -48 11 17 -47 hvcurveto
            2 -7 -3 2 -3 hhcurveto
            -12 0 -10 -17 hvcurveto
            -291 vlineto
            hintmask 1100100000011000
            -19 0 -11 20 10 2 1 10 8 vhcurveto
            14 12 36 44 85 hhcurveto
            92 0 -94 -79 -72 0 -104 -123 -37 -63 14 57 -34 hvcurveto
            hintmask 0010000001000000
            53 13 40 22 hvcurveto
            hintmask 0100000010000000
            36 -26 27 -37 -30 -33 -18 -47 vhcurveto
            hintmask 1010000000011000
            -87 79 -84 119 154 97 89 124 vhcurveto
            endchar
          </CharString>
          <CharString index="71">
            -76 callsubr
            -33 return
          </CharString>
          <CharString index="72">
            142 8 76 52 130 hhcurveto
            136 hlineto
            -400 -595 rlineto
            -8 -12 0 -4 -9 vvcurveto
            -23 7 0 22 vhcurveto
            522 hlineto
            return
          </CharString>
          <CharString index="73">
            427 371 rmoveto
            51 -52 28 -48 -79 -34 -69 -42 -14 vhcurveto
            -1 111 hlineto
            return
          </CharString>
          <CharString index="74">
            41 -33 31 -39 -39 -33 -31 -41 -41 33 -31 39 39 33 31 41 vhcurveto
            return
          </CharString>
          <CharString index="75">
            -26 callsubr
            43 -69 358 return
          </CharString>
          <CharString index="76">
            -12 -1 -20 -1 -4 -2 rrcurveto
            -6 -3 0 -7 -4 vvcurveto
            -17 6 0 20 vhcurveto
            48 hlineto
            112 0 -104 -48 -45 0 -106 -108 -21 -66 3 34 -48 hvcurveto
            43 9 15 31 30 vvcurveto
            41 -29 29 -41 return
          </CharString>
          <CharString index="77">
            73 -54 callsubr
            return
          </CharString>
          <CharString index="78">
            4 -2 3 -2 2 vhcurveto
            -67 60 -52 75 -32 85 rrcurveto
            4 -2 -4 3 -5 hhcurveto
            -9 hlineto
            -7 -5 -5 -9 hvcurveto
            15 -77 26 -75 36 -70 -36 -70 -26 -74 -15 -78 rrcurveto
            -9 5 -5 7 vhcurveto
            9 hlineto
            5 4 3 5 2 hvcurveto
            32 84 52 75 67 60 rrcurveto
            2 2 2 4 3 vvcurveto
            return
          </CharString>
          <CharString index="79">
            -113 -50 -19 -69 -52 vvcurveto
            -115 100 -56 132 148 87 80 116 vhcurveto
            -102 325 rmoveto
            -41 -18 -43 -57 -33 vhcurveto
            -140 79 rlineto
            -20 11 -28 23 33 vvcurveto
            80 107 2 23 return
          </CharString>
          <CharString index="80">
            73 -18 callsubr
            return
          </CharString>
          <CharString index="81">
            -358 -60 callgsubr
            return
          </CharString>
          <CharString index="82">
            530 219 rmoveto
            135 -92 99 -157 -163 -87 -104 -130 -118 75 -88 129 -16 vhcurveto
            -28 -28 -25 -37 -33 -36 callsubr
            -27 40 43 15 hvcurveto
            7 20 14 17 17 12 rrcurveto
            140 13 74 94 116 vvcurveto
            -120 10 rmoveto
            -83 0 -116 -129 -130 0 117 82 47 0 50 19 36 vhcurveto
            40 22 45 18 43 hhcurveto
            57 36 -27 -28 17 hvcurveto
            20 -36 0 -52 -48 vvcurveto
            return
          </CharString>
          <CharString index="83">
            206 rmoveto
            140 -97 74 -119 -20 -64 0 -85 -40 vhcurveto
            27 vlineto
            61 3 62 28 54 vhcurveto
            42 22 51 39 65 hhcurveto
            19 36 -3 -25 24 hvcurveto
            hintmask 0000000100000000
            -38 -4 -16 -28 -27 vvcurveto
            hintmask 0010001000000000
            -36 27 -23 32 vhcurveto
            hintmask 1010010100000000
            26 33 17 44 60 -40 61 -105 -125 -169 -78 -261 -67 0 -262 237 hvcurveto
            hintmask 1100010010000000
            -19 callsubr
          </CharString>
          <CharString index="84">
            184 rmoveto
            109 -86 47 -51 28 vhcurveto
            50 26 56 37 78 vvcurveto
            103 -92 44 -109 -133 -71 -76 -97 -54 27 -60 74 -39 vhcurveto
            hintmask 11101010
            -28 callsubr
            vhcurveto
            hintmask 10101100
            85 48 -45 -66 hvcurveto
            22 -376 rmoveto
            -80 -80 -25 -72 -99 -56 53 79 73 45 46 48 27 vhcurveto
            138 -79 rlineto
            hintmask 00000010
            33 -19 43 -24 -51 vvcurveto
            endchar
          </CharString>
          <CharString index="85">
            -270 -6 33 170 29 191 36 hstemhm
            31 92 0 92 146 120 hintmask 00110000
            481 222 rmoveto
            140 -103 91 -151 -151 -45 -106 -17 -15 15 0 6 16 1 3 13 6 vhcurveto
            hintmask 01101100
            65 26 66 21 48 hhcurveto
            145 1 -135 -56 hvcurveto
            -301 hlineto
            hintmask 11010100
            -23 -6 0 -25 -30 7 -75 46 -47 hvcurveto
            -42 42 56 -13 58 hhcurveto
            156 85 102 126 hvcurveto
            -120 -25 rmoveto
            -2 -41 -1 -39 -21 -36 rrcurveto
            -32 -19 -35 -22 -43 hhcurveto
            -107 -9 120 50 -1 hvcurveto
            endchar
          </CharString>
          <CharString index="86">
            -61 -42 -51 -13 -36 hhcurveto
            -124 0 127 66 47 0 50 22 38 hvcurveto
            56 31 59 6 23 hhcurveto
            41 44 -18 -44 33 hvcurveto
            return
          </CharString>
          <CharString index="87">
            -439 75 callgsubr
            223 33 hstem
            113 104 89 116 vstem
            422 617 rmoveto
            41 -36 42 -71 -91 -111 -38 -116 vhcurveto
            -102 -74 -43 74 36 callgsubr
            return
          </CharString>
          <CharString index="88">
            132 98 78 140 hvcurveto
            -127 1 rmoveto
            -99 0 -80 -104 -64 -25 54 8 -4 vhcurveto
            -14 33 0 80 9 vvcurveto
            123 53 52 59 99 0 -80 -100 vhcurveto
            endchar
          </CharString>
          <CharString index="89">
            -54 callsubr
            43 vlineto
            return
          </CharString>
          <CharString index="90">
            144 132 return
          </CharString>
          <CharString index="91">
            29 callsubr
            -43 51 return
          </CharString>
          <CharString index="92">
            225 rmoveto
            66 -11 68 -46 46 vhcurveto
            46 -46 -68 11 -66 hhcurveto
            -66 -68 -11 -46 -46 hvcurveto
            -46 -46 -11 -68 -66 vvcurveto
            -66 11 -68 46 -46 vhcurveto
            -46 46 68 -11 66 hhcurveto
            66 68 11 46 46 hvcurveto
            46 46 11 68 66 vvcurveto
            -121 hmoveto
            -53 -2 -55 -26 -47 vhcurveto
            -31 -18 -34 -18 -36 hhcurveto
            -36 -34 18 31 -18 hvcurveto
            -26 47 -2 55 53 vvcurveto
            53 2 55 26 47 vhcurveto
            31 18 34 18 36 hhcurveto
            36 34 -18 -31 18 hvcurveto
            26 -47 2 -55 -53 vvcurveto
            endchar
          </CharString>
          <CharString index="93">
            35 37 -10 -30 -40 -89 0 -70 hvcurveto
            -21 -42 42 hlineto
            117 141 0 82 return
          </CharString>
          <CharString index="94">
            329 -20 callgsubr
            29 6 21 21 32 vvcurveto
            36 -27 23 -32 -26 -33 -17 -44 -70 55 -51 103 127 154 83 258 vhcurveto
            -128 98 rmoveto
            -70 -29 -99 -84 -99 0 81 98 96 0 87 109 64 23 -57 -11 4 vhcurveto
            hintmask 00000100
            10 -30 2 -62 -33 vvcurveto
            endchar
          </CharString>
          <CharString index="95">
            -6 callgsubr
            -42 callgsubr
            hintmask 11111010
            706 270 rmoveto
            -42 hlineto
            -149 -21 -37 -78 -174 hhcurveto
            -156 289 59 hlineto
            96 10 -41 -76 hvcurveto
            42 277 -42 hlineto
            -75 -10 -42 -96 vhcurveto
            -59 263 156 hlineto
            hintmask 10110100
            153 33 -65 -129 15 hvcurveto
            42 hlineto
            -29 237 rlineto
            -608 1 callgsubr
            625 hlineto
            hintmask 00000010
            endchar
          </CharString>
          <CharString index="96">
            215 rmoveto
            -42 hlineto
            -3 -21 -7 -59 -15 -10 rrcurveto
            -7 -8 -78 0 -15 hhcurveto
            -155 hlineto
            144 119 rlineto
            111 83 68 51 96 vvcurveto
            118 -107 71 -132 -113 -97 -64 -95 -53 43 -15 23 31 36 21 46 42 -31 21 -31 4 vhcurveto
            46 40 53 4 21 hhcurveto
            92 44 -75 -72 -78 -53 -72 -41 -43 hvcurveto
            -217 -227 rlineto
            -10 -9 0 -2 -18 vvcurveto
            -17 420 vlineto
            endchar
          </CharString>
          <CharString index="97">
            -158 3 callsubr
            274 43 39 43 -25 33 3 callgsubr
            hintmask 00100101
            -39 callsubr
            -72 -62 -35 -75 -34 vhcurveto
            120 callgsubr
            hintmask 00111010
            -169 -90 callsubr
            -317 -87 callsubr
            43 -69 213 vlineto
            return
          </CharString>
          <CharString index="98">
            173 rmoveto
            -43 hlineto
            -12 -44 rlineto
            -15 -4 -12 -6 -15 hhcurveto
            -205 hlineto
            160 78 rlineto
            65 33 66 28 78 vvcurveto
            119 -152 18 -91 -72 -128 -9 -98 -26 16 -27 35 29 23 22 29 19 -9 18 -18 9 vhcurveto
            16 29 34 4 32 hhcurveto
            57 86 -21 -76 -58 -52 -45 -43 -28 hvcurveto
            -204 -134 rlineto
            -13 -9 -14 -4 -20 vvcurveto
            -24 426 vlineto
            endchar
          </CharString>
          <CharString index="99">
            319 rmoveto
            96 0 241 -236 -237 0 -240 -97 -96 0 -235 236 236 1 232 99 vhcurveto
            -120 12 rmoveto
            -236 -15 -14 -30 -30 vhcurveto
            -20 -20 -27 -10 -24 hhcurveto
            -32 -24 13 21 -20 hvcurveto
            -25 25 -16 16 235 vvcurveto
            70 0 64 8 52 vhcurveto
            99 14 72 7 22 hhcurveto
            32 62 -15 -84 14 hvcurveto
            9 -51 0 -81 -61 vvcurveto
            endchar
          </CharString>
          <CharString index="100">
            205 553 rmoveto
            -101 callgsubr
            282 hmoveto
            -101 callgsubr
            return
          </CharString>
          <CharString index="101">
            112 callsubr
            206 109 return
          </CharString>
          <CharString index="102">
            348 305 rmoveto
            25 -99 351 vlineto
            17 -1 0 -23 vhcurveto
            -38 -54 -80 0 -15 hhcurveto
            -14 -26 14 hlineto
            25 38 4 7 29 hvcurveto
            -315 -100 -25 vlineto
            139 1 rlineto
            return
          </CharString>
          <CharString index="103">
            hstemhm
            104 104 103 116 hintmask 00100000
            -34 callsubr
            return
          </CharString>
          <CharString index="104">
            40 -32 32 -40 -40 -32 -32 -40 -40 32 -32 40 40 32 32 40 vhcurveto
            return
          </CharString>
          <CharString index="105">
            33 -27 -16 callsubr
            return
          </CharString>
          <CharString index="106">
            123 callgsubr
            6 17 11 15 13 11 rrcurveto
            196 16 123 137 197 vvcurveto
            -141 14 rmoveto
            -99 -11 -83 -50 -69 vhcurveto
            -34 -25 -55 -43 -78 hhcurveto
            -65 -63 31 57 -38 hvcurveto
            -48 73 -5 94 73 vvcurveto
            61 3 84 41 68 vhcurveto
            70 44 72 25 59 hhcurveto
            return
          </CharString>
          <CharString index="107">
            109 202 109 return
          </CharString>
          <CharString index="108">
            89 callsubr
            259 120 return
          </CharString>
          <CharString index="109">
            81 -278 hlineto
            -106 82 -23 72 74 44 56 74 vhcurveto
            return
          </CharString>
          <CharString index="110">
            -22 callgsubr
            36 43 return
          </CharString>
          <CharString index="111">
            49 callgsubr
            43 -69 213 vlineto
            49 callgsubr
            return
          </CharString>
          <CharString index="112">
            30 -12 43 215 -20 223 -21 227 43 return
          </CharString>
          <CharString index="113">
            33 -21 43 284 33 283 43 return
          </CharString>
          <CharString index="114">
            -283 -200 42 80 42 hstemhm
            208 84 -12 120 hintmask 01100000
            400 -118 rmoveto
            51 -53 31 -55 vhcurveto
            40 -84 -82 vlineto
            hintmask 10010000
            -14 callsubr
            hvcurveto
            endchar
          </CharString>
          <CharString index="115">
            hmoveto
            44 -137 397 vlineto
            11 -3 10 -17 -23 -21 -17 -7 -22 vhcurveto
            -18 -56 -59 -2 -58 hhcurveto
            -43 18 vlineto
            43 45 1 12 40 hvcurveto
            -344 -139 vlineto
            hintmask 01000000
            -44 vlineto
            hintmask 10000000
            197 4 rlineto
            hintmask 01000000
            endchar
          </CharString>
          <CharString index="116">
            40 71 125 -63 40 169 40 -33 33 101 113 -105 33 104 -20 hstemhm
            return
          </CharString>
          <CharString index="117">
            0 54 callsubr
            return
          </CharString>
          <CharString index="118">
            rmoveto
            27 -27 0 -13 vhcurveto
            -670 hlineto
            -13 -27 0 -27 -28 26 0 15 hvcurveto
            668 hlineto
            15 26 0 28 hvcurveto
            return
          </CharString>
          <CharString index="119">
            -30 35 callgsubr
            -28 40 43 16 hvcurveto
            8 24 18 20 23 11 rrcurveto
            return
          </CharString>
          <CharString index="120">
            45 42 23 60 62 vvcurveto
            54 -16 54 -33 42 vhcurveto
            return
          </CharString>
          <CharString index="121">
            -200 144 return
          </CharString>
          <CharString index="122">
            hstemhm
            111 108 0 134 69 109 8 134 return
          </CharString>
          <CharString index="123">
            24 callsubr
            -479 403 rmoveto
            return
          </CharString>
          <CharString index="124">
            17 19 17 19 16 20 rrcurveto
            -53 51 55 -11 40 hhcurveto
            138 106 84 145 hvcurveto
            -120 1 rmoveto
            -45 0 -57 -24 -37 vhcurveto
            -48 -31 -47 -10 -32 hhcurveto
            -68 -37 48 22 -14 hvcurveto
            254 vlineto
            return
          </CharString>
          <CharString index="125">
            48 -23 42 -41 -33 -20 -25 -29 vhcurveto
            hintmask 01100000
            -27 19 -27 35 22 13 11 3 3 vhcurveto
            -1 -21 -3 -62 -62 -52 rrcurveto
            -5 -5 -2 -1 -4 vvcurveto
            -7 9 -7 5 10 74 63 100 vhcurveto
            endchar
          </CharString>
          <CharString index="126">
            32 -26 27 -33 -32 -27 -27 -32 -33 27 -26 32 33 26 26 33 vhcurveto
            return
          </CharString>
          <CharString index="127">
            130 108 130 return
          </CharString>
          <CharString index="128">
            32 -30 26 -32 vhcurveto
            -6 hlineto
            -36 -7 -6 -28 -9 -27 -19 -59 rcurveline
            -9 -30 rlineto
            -2 -5 -3 -6 -5 vvcurveto
            -11 35 -13 0 4 3 4 3 3 vhcurveto
            20 20 rlineto
            36 33 51 40 33 vvcurveto
            return
          </CharString>
          <CharString index="129">
            286 hmoveto
            43 -69 651 vlineto
            return
          </CharString>
          <CharString index="130">
            -178 -8 rlineto
            -43 vlineto
            return
          </CharString>
          <CharString index="131">
            -38 callgsubr
            -362 hmoveto
            -38 callgsubr
            return
          </CharString>
          <CharString index="132">
            rmoveto
            16 -12 12 -16 -9 -9 -5 -7 -5 vhcurveto
            -450 -646 rlineto
            -3 -5 -2 -5 -6 vvcurveto
            return
          </CharString>
          <CharString index="133">
            -408 176 92 hstem
            12 300 vstem
            312 176 33 callgsubr
          </CharString>
          <CharString index="134">
            hstemhm
            62 142 412 133 -110 142 return
          </CharString>
          <CharString index="135">
            79 74 callsubr
            return
          </CharString>
          <CharString index="136">
            43 356 43 return
          </CharString>
          <CharString index="137">
            rmoveto
            -38 callgsubr
            return
          </CharString>
          <CharString index="138">
            vvcurveto
            99 39 101 87 58 55 -22 -40 28 vhcurveto
            -32 -1 -25 -26 -32 vvcurveto
            -32 26 -27 33 32 27 27 32 98 -97 65 -105 -130 -104 -109 -133 return
          </CharString>
          <CharString index="139">
            -158 0 53 callsubr
            68 33 193 43 -43 51 return
          </CharString>
          <CharString index="140">
            62 -12 83 callgsubr
            return
          </CharString>
          <CharString index="141">
            913 hmoveto
            43 -69 263 vlineto
            92 -39 52 -112 -101 -47 -68 -32 -16 vhcurveto
            85 -16 -68 15 -64 hhcurveto
            -96 -52 -62 -48 -21 hvcurveto
            120 callgsubr
            return
          </CharString>
          <CharString index="142">
            rmoveto
            30 5 -27 24 -32 hhcurveto
            -32 -26 -24 -30 4 hvcurveto
            33 -225 rlineto
            42 hlineto
            return
          </CharString>
          <CharString index="143">
            89 callsubr
            258 121 -98 133 return
          </CharString>
          <CharString index="144">
            36 371 43 191 -20 hstemhm
            102 109 return
          </CharString>
          <CharString index="145">
            -6 36 390 33 return
          </CharString>
          <CharString index="146">
            700 -101 callsubr
            return
          </CharString>
          <CharString index="147">
            33 134 30 137 30 65 30 return
          </CharString>
          <CharString index="148">
            -189 -200 33 568 43 return
          </CharString>
          <CharString index="149">
            rmoveto
            26 -69 68 69 26 -69 257 vlineto
            15 -1 3 -18 -13 -2 0 -9 -8 vhcurveto
            -248 -266 rlineto
            -26 205 -68 -79 -26 vlineto
            return
          </CharString>
          <CharString index="150">
            81 -12 66 callsubr
            return
          </CharString>
          <CharString index="151">
            -17 -21 vvcurveto
            -40 32 -18 26 22 36 15 44 vhcurveto
            return
          </CharString>
          <CharString index="152">
            0 2 -29 hvcurveto
            -43 106 return
          </CharString>
          <CharString index="153">
            vlineto
            163 -366 rlineto
            -7 3 4 -6 10 hhcurveto
            10 4 6 7 3 hvcurveto
            166 373 rlineto
            1 -360 -64 -26 hlineto
            return
          </CharString>
          <CharString index="154">
            vvcurveto
            32 vlineto
            12 -1 -11 0 -9 hhcurveto
            -21 0 -5 -21 hvcurveto
            -27 vlineto
            -84 -43 -65 -74 -52 vhcurveto
            -30 -22 -19 -33 -44 vvcurveto
            return
          </CharString>
          <CharString index="155">
            -439 -200 33 566 51 return
          </CharString>
          <CharString index="156">
            83 93 131 92 hstem
            312 83 rmoveto
            93 -300 -93 vlineto
            300 224 33 callgsubr
          </CharString>
          <CharString index="157">
            -472 351 rmoveto
            -161 hlineto
            121 292 rlineto
            40 hlineto
            return
          </CharString>
          <CharString index="158">
            56 -12 6 callsubr
            return
          </CharString>
          <CharString index="159">
            -283 -6 36 387 36 return
          </CharString>
          <CharString index="160">
            43 263 43 return
          </CharString>
          <CharString index="161">
            43 600 43 return
          </CharString>
          <CharString index="162">
            hlineto
            78 262 rlineto
            5 15 0 4 0 vvcurveto
            13 -10 14 -18 -20 -4 -15 -13 -4 vhcurveto
            -85 -280 rlineto
            return
          </CharString>
          <CharString index="163">
            119 callgsubr
            76 145 -104 141 27 141 return
          </CharString>
          <CharString index="164">
            hstemhm
            472 123 132 42 0 42 103 42 -11 42 return
          </CharString>
          <CharString index="165">
            127 -127 129 122 129 return
          </CharString>
          <CharString index="166">
            hstem
            310 50 130 50 vstem
            490 return
          </CharString>
          <CharString index="167">
            -128 rmoveto
            -33 callgsubr
            vhcurveto
            hintmask 10000100
            -41 -32 -33 -39 -41 34 -31 38 41 32 33 39 hvcurveto
            return
          </CharString>
          <CharString index="168">
            -45 -38 -39 -44 vhcurveto
            -5 hlineto
            -49 -33 42 42 45 38 39 44 hvcurveto
            5 hlineto
            49 33 -42 -42 hvcurveto
            return
          </CharString>
          <CharString index="169">
            -149 rmoveto
            6 9 -4 12 -8 7 -11 10 -16 0 -5 -7 rrcurveto
            7 callgsubr
            -33 return
          </CharString>
          <CharString index="170">
            -236 14 callsubr
            50 33 -27 27 393 33 return
          </CharString>
          <CharString index="171">
            -26 0 -28 -27 27 0 13 hvcurveto
            return
          </CharString>
          <CharString index="172">
            356 144 194 -20 hstem
            return
          </CharString>
          <CharString index="173">
            43 563 43 6 41 -41 43 return
          </CharString>
          <CharString index="174">
            141 -110 129 -64 129 -79 141 21 128 -110 141 hintmask 0000001100000000
            return
          </CharString>
          <CharString index="175">
            -408 176 92 hstem
            38 300 vstem
            338 176 33 callgsubr
          </CharString>
          <CharString index="176">
            106 6 82 hintmask 0000100000000000
            545 400 rmoveto
            24 -18 32 -42 -43 -41 -21 -18 -21 vhcurveto
            return
          </CharString>
          <CharString index="177">
            21 callgsubr
            212 -138 146 -222 -223 -137 -147 -211 return
          </CharString>
          <CharString index="178">
            -38 callgsubr
            endchar
          </CharString>
          <CharString index="179">
            144 hstem
            84 145 vstem
            229 return
          </CharString>
          <CharString index="180">
            69 -32 69 hstemhm
            hintmask 01000000
            return
          </CharString>
          <CharString index="181">
            54 callgsubr
            hstemhm
            return
          </CharString>
          <CharString index="182">
            43 vlineto
            -2 -36 return
          </CharString>
          <CharString index="183">
            -208 -250 36 446 36 446 36 hstem
            232 111 cntrmask 11100000
            496 return
          </CharString>
          <CharString index="184">
            141 -110 110 5 141 39 110 -110 141 hintmask 1111101110000000
            return
          </CharString>
          <CharString index="185">
            hstemhm
            62 141 273 82 callgsubr
            return
          </CharString>
          <CharString index="186">
            89 callsubr
            33 145 -32 92 0 92 return
          </CharString>
          <CharString index="187">
            -221 -6 37 389 33 return
          </CharString>
          <CharString index="188">
            62 86 callsubr
            return
          </CharString>
          <CharString index="189">
            -106 119 callsubr
            return
          </CharString>
          <CharString index="190">
            43 199 43 382 43 78 callsubr
            return
          </CharString>
          <CharString index="191">
            150 hlineto
            87 70 -34 -52 37 hvcurveto
            29 -41 19 -49 -129 vvcurveto
            endchar
          </CharString>
          <CharString index="192">
            -22 callgsubr
            24 return
          </CharString>
          <CharString index="193">
            90 188 90 42 90 return
          </CharString>
          <CharString index="194">
            75 -21 207 -20 hstemhm
            return
          </CharString>
          <CharString index="195">
            16 callgsubr
            43 return
          </CharString>
          <CharString index="196">
            hstemhm
            31 120 return
          </CharString>
          <CharString index="197">
            786 148 rmoveto
            -42 hlineto
            -63 -68 -35 -69 -62 -55 25 27 -55 vhcurveto
            return
          </CharString>
          <CharString index="198">
            67 -206 70 136 43 -41 41 -40 43 153 43 458 -20 return
          </CharString>
          <CharString index="199">
            586 223 rmoveto
            138 -93 89 -135 -59 -51 -20 -32 -40 vhcurveto
            return
          </CharString>
          <CharString index="200">
            56 53 callsubr
            68 33 193 43 -43 51 hstemhm
            90 callgsubr
            return
          </CharString>
          <CharString index="201">
            92 -38 -21 47 33 644 33 47 -20 return
          </CharString>
          <CharString index="202">
            53 callgsubr
            144 132 return
          </CharString>
          <CharString index="203">
            vhcurveto
            -14 14 25 -28 8 hhcurveto
            1 hlineto
            10 3 21 14 2 5 rrcurveto
            return
          </CharString>
          <CharString index="204">
            hlineto
            -5 -5 -3 -5 -2 hvcurveto
            -5 -18 rlineto
            -8 -3 6 -8 8 hhcurveto
            return
          </CharString>
          <CharString index="205">
            143 132 return
          </CharString>
          <CharString index="206">
            -56 33 337 33 0 33 232 32 73 33 -32 32 hstemhm
            return
          </CharString>
          <CharString index="207">
            43 274 33 -33 43 39 43 -25 33 hstemhm
            90 callgsubr
            return
          </CharString>
          <CharString index="208">
            -236 -206 70 130 33 -27 27 -27 43 377 33 return
          </CharString>
          <CharString index="209">
            132 callgsubr
            141 return
          </CharString>
          <CharString index="210">
            -283 0 36 375 33 return
          </CharString>
          <CharString index="211">
            62 -12 39 634 37 return
          </CharString>
          <CharString index="212">
            -1 0 43 591 43 return
          </CharString>
          <CharString index="213">
            30 16 -21 406 43 return
          </CharString>
          <CharString index="214">
            0 28 hhcurveto
            28 return
          </CharString>
          <CharString index="215">
            -308 vlineto
            -14 64 callsubr
            308 return
          </CharString>
          <CharString index="216">
            -12 33 602 33 hstem
            44 120 233 120 vstem
            return
          </CharString>
          <CharString index="217">
            -133 -43 vlineto
            194 2 195 -2 rlineto
            43 -133 return
          </CharString>
          <CharString index="218">
            48 37 53 16 39 hhcurveto
            65 59 -59 -132 hvcurveto
            endchar
          </CharString>
          <CharString index="219">
            hstemhm
            29 111 return
          </CharString>
          <CharString index="220">
            342 22 -21 222 55 222 -20 hstem
            1062 return
          </CharString>
          <CharString index="221">
            3 5 2 hvcurveto
            6 22 rlineto
            6 2 -7 6 -7 hhcurveto
            return
          </CharString>
          <CharString index="222">
            129 callgsubr
            endchar
          </CharString>
          <CharString index="223">
            hstemhm
            81 callsubr
            return
          </CharString>
          <CharString index="224">
            33 callsubr
            53 -21 return
          </CharString>
          <CharString index="225">
            136 callgsubr
            hstemhm
            return
          </CharString>
          <CharString index="226">
            -16 callgsubr
            29 return
          </CharString>
          <CharString index="227">
            80 -49 71 0 71 192 71 -49 80 hintmask 01010100
            return
          </CharString>
          <CharString index="228">
            -194 43 -41 41 151 43 446 -20 hstemhm
            return
          </CharString>
          <CharString index="229">
            26 -128 vlineto
            -12 -6 0 -13 -5 hvcurveto
            -144 return
          </CharString>
          <CharString index="230">
            hstemhm
            62 141 147 145 146 141 return
          </CharString>
          <CharString index="231">
            88 74 callsubr
            return
          </CharString>
          <CharString index="232">
            144 47 497 47 return
          </CharString>
          <CharString index="233">
            51 14 0 -2 42 hvcurveto
            return
          </CharString>
          <CharString index="234">
            55 33 362 36 hstemhm
            return
          </CharString>
          <CharString index="235">
            586 223 rmoveto
            137 -94 90 -137 return
          </CharString>
          <CharString index="236">
            140 callgsubr
            73 return
          </CharString>
          <CharString index="237">
            -26 63 -342 hlineto
            -13 0 -1 -16 -2 vhcurveto
            return
          </CharString>
          <CharString index="238">
            67 88 callsubr
            return
          </CharString>
          <CharString index="239">
            hmoveto
            43 -106 600 106 43 return
          </CharString>
          <CharString index="240">
            38 68 231 68 return
          </CharString>
          <CharString index="241">
            136 callsubr
            hstemhm
            return
          </CharString>
          <CharString index="242">
            33 hstemhm
            104 104 return
          </CharString>
          <CharString index="243">
            -21 198 -20 return
          </CharString>
          <CharString index="244">
            -783 767 -21 207 -20 hstem
            -97 return
          </CharString>
          <CharString index="245">
            4 40 -23 -21 375 43 44 -20 hstemhm
            return
          </CharString>
          <CharString index="246">
            38 callgsubr
            44 130 return
          </CharString>
          <CharString index="247">
            hlineto
            -12 -9 -7 -8 -8 9 -7 12 hvcurveto
            return
          </CharString>
          <CharString index="248">
            29 -20 27 -37 -21 -24 -9 -10 -20 vhcurveto
            return
          </CharString>
          <CharString index="249">
            89 callsubr
            58 145 56 120 return
          </CharString>
          <CharString index="250">
            -158 14 callsubr
            50 33 -27 43 return
          </CharString>
          <CharString index="251">
            -206 40 303 35 254 36 hstemhm
            return
          </CharString>
          <CharString index="252">
            -21 126 58 return
          </CharString>
        <CharString name=".notdef">
          -503 endchar
        </CharString>
        <CharString name="A">
          -31 callgsubr
          hstem
          -107 callsubr
          endchar
        </CharString>
        <CharString name="AE">
          236 0 43 265 112 callgsubr
          57 callsubr
          hintmask 11011001
          12 callgsubr
          hintmask 11110110
          -48 callgsubr
          hintmask 01110001
          50 callsubr
          endchar
        </CharString>
        <CharString name="AE.dup">
          236 0 43 265 112 callgsubr
          57 callsubr
          hintmask 11011001
          12 callgsubr
          hintmask 11110110
          -48 callgsubr
          hintmask 01110001
          50 callsubr
          endchar
        </CharString>
        <CharString name="AEacute">
          236 0 43 265 112 callgsubr
          75 -21 168 -20 57 callsubr
          hintmask 1100011001000000
          12 callgsubr
          hintmask 1110010110000000
          -48 callgsubr
          hintmask 0110010001000000
          50 callsubr
          hintmask 0001100000000000
          189 195 -104 callgsubr
        </CharString>
        <CharString name="Aacute">
          130 callgsubr
          168 -102 callsubr
          196 308 -104 callgsubr
        </CharString>
        <CharString name="Abreve">
          -31 callgsubr
          60 58 126 -102 callsubr
          217 394 -101 callsubr
          endchar
        </CharString>
        <CharString name="Abreveacute">
          -31 callgsubr
          60 58 329 -102 callsubr
          217 394 -101 callsubr
          -59 133 -104 callgsubr
        </CharString>
        <CharString name="Abrevedotbelow">
          64 callgsubr
          60 58 126 -20 hstemhm
          353 145 hintmask 01111100
          -107 callsubr
          217 394 -101 callsubr
          hintmask 10000010
          -100 -1052 -100 callgsubr
        </CharString>
        <CharString name="Abrevegrave">
          -31 callgsubr
          60 58 126 -102 callsubr
          217 394 -101 callsubr
          -57 72 rmoveto
          -21 -37 -163 56 -14 5 -25 9 -5 28 rlinecurve
          36 -9 27 34 36 hhcurveto
          18 14 -12 -5 7 hvcurveto
          endchar
        </CharString>
        <CharString name="Abrevehookabove">
          -31 callgsubr
          60 58 251 58 30 -103 callgsubr
          hintmask 00011100
          217 394 -101 callsubr
          -63 149 -107 callgsubr
        </CharString>
        <CharString name="Abrevetilde">
          -31 callgsubr
          60 58 181 69 -32 69 -106 callgsubr
          hintmask 00010100
          217 394 -101 callsubr
          14 139 22 callgsubr
          hintmask 00001000
          -82 callsubr
          hintmask 00000100
          -88 callgsubr
          hintmask 00001000
          24 -22 rlineto
          hintmask 00000100
          -82 callgsubr
          hintmask 00001000
          -84 callgsubr
        </CharString>
        <CharString name="Acaron">
          -31 callgsubr
          71 -21 165 -73 callsubr
          341 -58 callsubr
        </CharString>
        <CharString name="Acircumflex">
          -31 callgsubr
          71 -21 165 -73 callsubr
          224 -51 callsubr
        </CharString>
        <CharString name="Acircumflexacute">
          -31 callgsubr
          71 -21 368 -73 callsubr
          224 -94 callgsubr
          -46 298 -104 callgsubr
        </CharString>
        <CharString name="Acircumflexdotbelow">
          64 callgsubr
          71 118 callsubr
          353 145 hintmask 01111100
          -107 callsubr
          219 224 -94 callgsubr
          hintmask 10000010
          -86 -858 -100 callgsubr
        </CharString>
        <CharString name="Acircumflexgrave">
          -31 callgsubr
          71 -21 165 -73 callsubr
          224 -69 callsubr
        </CharString>
        <CharString name="Acircumflexhookabove">
          -31 callgsubr
          71 -21 378 -73 callsubr
          224 -94 callgsubr
          60 314 -107 callgsubr
        </CharString>
        <CharString name="Acircumflextilde">
          -31 callgsubr
          71 -21 220 69 -32 69 -106 callgsubr
          hintmask 00010100
          219 224 -94 callgsubr
          28 304 22 callgsubr
          hintmask 00001000
          -82 callsubr
          hintmask 00000100
          -88 callgsubr
          hintmask 00001000
          24 -22 rlineto
          hintmask 00000100
          -82 callgsubr
          hintmask 00001000
          -84 callgsubr
        </CharString>
        <CharString name="Adblgrave">
          130 callgsubr
          193 -102 callsubr
          156 232 -94 callsubr
        </CharString>
        <CharString name="Adieresis">
          -31 callgsubr
          50 130 hstemhm
          219 34 callgsubr
          hintmask 11100000
          -107 callsubr
          hintmask 00011100
          -32 265 -77 callsubr
        </CharString>
        <CharString name="Adotbelow">
          64 callgsubr
          hstemhm
          353 145 hintmask 01110000
          -107 callsubr
          hintmask 10001000
          117 -658 -100 callgsubr
        </CharString>
        <CharString name="Agrave">
          130 callgsubr
          168 -102 callsubr
          121 247 -75 callsubr
        </CharString>
        <CharString name="Ahookabove">
          -31 callgsubr
          83 -21 198 -102 callsubr
          154 346 -107 callgsubr
        </CharString>
        <CharString name="Alpha">
          -31 callgsubr
          hstem
          -107 callsubr
          endchar
        </CharString>
        <CharString name="Amacron">
          -31 callgsubr
          70 48 -106 callgsubr
          hintmask 00010000
          247 220 -30 callgsubr
        </CharString>
        <CharString name="Aogonek">
          91 callsubr
          hstemhm
          39 238 -134 238 -192 326 -31 326 hintmask 0010010101000000
          810 hmoveto
          43 -95 vlineto
          -257 634 rlineto
          18 -7 -2 5 -24 hhcurveto
          -25 -2 -5 -18 -7 hvcurveto
          -248 -610 rlineto
          hintmask 0001000000000000
          -7 -16 0 -2 -28 -3 rrcurveto
          hintmask 0010001000000000
          -3 -25 -4 0 -22 hhcurveto
          -18 hlineto
          hintmask 0100001000000000
          -43 vlineto
          hintmask 0010000000000000
          2 26 60 0 29 hhcurveto
          hintmask 0100001000000000
          27 -27 callsubr
          hintmask 0010100010000000
          -22 -38 0 11 -28 hvcurveto
          3 9 0 2 2 4 53 130 rcurveline
          268 hlineto
          63 -156 rlineto
          hintmask 0010000001000000
          -94 hlineto
          hintmask 0100000001000000
          -43 vlineto
          hintmask 1001000000000000
          2 28 75 1 45 hhcurveto
          -35 -29 -18 -35 -40 -76 callsubr
          hintmask 0010000000000000
          -47 -52 84 54 84 hvcurveto
          hintmask 0100100101000000
          -208 240 rmoveto
          -233 hlineto
          117 288 rlineto
          endchar
        </CharString>
        <CharString name="Aogonekacute">
          91 callsubr
          81 -21 168 -20 hstemhm
          39 238 -134 238 -192 326 -31 326 hintmask 0010010001010000
          810 hmoveto
          43 -95 vlineto
          -257 634 rlineto
          18 -7 -2 5 -24 hhcurveto
          -25 -2 -5 -18 -7 hvcurveto
          -248 -610 rlineto
          hintmask 0001000000000000
          -7 -16 0 -2 -28 -3 rrcurveto
          hintmask 0010000010000000
          -3 -25 -4 0 -22 hhcurveto
          -18 hlineto
          hintmask 0100000010000000
          -43 vlineto
          hintmask 0010000000000000
          2 26 60 0 29 hhcurveto
          hintmask 0100000010000000
          27 -27 callsubr
          hintmask 0010100000100000
          -22 -38 0 11 -28 hvcurveto
          3 9 0 2 2 4 53 130 rcurveline
          268 hlineto
          63 -156 rlineto
          hintmask 0010000000010000
          -94 hlineto
          hintmask 0100000000010000
          -43 vlineto
          hintmask 1001000000000000
          2 28 75 1 45 hhcurveto
          -35 -29 -18 -35 -40 -76 callsubr
          hintmask 0010000000000000
          -47 -52 84 54 84 hvcurveto
          hintmask 0100100001010000
          -208 240 rmoveto
          -233 hlineto
          117 288 rlineto
          hintmask 0000001100010000
          196 308 -104 callgsubr
        </CharString>
        <CharString name="Aring">
          67 0 2 callgsubr
          39 90 39 hstemhm
          310 50 130 50 hintmask 11100000
          -107 callsubr
          hintmask 00111100
          109 254 -53 callgsubr
        </CharString>
        <CharString name="Aringacute">
          67 0 2 callgsubr
          39 90 39 203 -20 hstemhm
          310 50 130 50 hintmask 11100000
          -107 callsubr
          hintmask 00111110
          109 254 -80 callsubr
          -2 218 -104 callgsubr
        </CharString>
        <CharString name="Atilde">
          -31 callgsubr
          50 69 -32 69 -106 callgsubr
          hintmask 00001000
          231 284 -88 callsubr
        </CharString>
        <CharString name="B">
          -18 callgsubr
        </CharString>
        <CharString name="Beta">
          -18 callgsubr
        </CharString>
        <CharString name="C">
          5 callsubr
          hstem
          62 141 504 42 vstem
          -84 callsubr
          -206 149 -149 245 178 115 122 118 hvcurveto
          endchar
        </CharString>
        <CharString name="Cacute">
          5 callsubr
          63 -21 168 -20 hstemhm
          62 141 504 42 hintmask 11110011
          -84 callsubr
          -206 149 -149 245 178 115 122 118 hvcurveto
          hintmask 00001100
          -150 610 -104 callgsubr
        </CharString>
        <CharString name="Ccaron">
          5 callsubr
          102 callsubr
          504 42 hintmask 11110011
          -84 callsubr
          -206 149 -149 245 178 115 122 118 hvcurveto
          hintmask 00001100
          -127 643 -58 callsubr
        </CharString>
        <CharString name="Ccedilla">
          5 callsubr
          hstem
          62 141 94 42 368 42 vstem
          -84 callsubr
          -191 128 -142 215 -20 hvcurveto
          -68 vlineto
          -14 callsubr
          51 -53 31 -55 hvcurveto
          25 vlineto
          159 14 101 114 111 vvcurveto
          endchar
        </CharString>
        <CharString name="Ccircumflex">
          5 callsubr
          102 callsubr
          504 42 hintmask 11110011
          -84 callsubr
          -206 149 -149 245 178 115 122 118 hvcurveto
          hintmask 00001100
          -127 526 -51 callsubr
        </CharString>
        <CharString name="Cdotaccent">
          5 callsubr
          44 144 hstemhm
          62 141 172 145 187 42 hintmask 11110101
          -84 callsubr
          -206 149 -149 245 178 115 122 118 hvcurveto
          hintmask 00001010
          -229 586 -100 callgsubr
        </CharString>
        <CharString name="Chi">
          -38 callsubr
        </CharString>
        <CharString name="D">
          79 0 43 600 89 callgsubr
          392 136 vstem
          -51 callgsubr
          endchar
        </CharString>
        <CharString name="Dcaron">
          79 10 callsubr
          53 callgsubr
          144 127 392 136 hintmask 11001100
          -51 callgsubr
          hintmask 00110000
          -142 533 -58 callsubr
        </CharString>
        <CharString name="Dcroat">
          -15 callgsubr
        </CharString>
        <CharString name="Ddotbelow">
          79 20 callgsubr
          119 callgsubr
          3 145 244 136 hintmask 01110100
          -51 callgsubr
          hintmask 10001000
          -244 -466 -100 callgsubr
        </CharString>
        <CharString name="Delta">
          155 10 102 588 -20 hstem
          881 10 rmoveto
          4 -3 6 -2 4 vhcurveto
          -369 655 rlineto
          21 -12 -11 0 -16 hhcurveto
          -18 -9 -1 -18 -10 hvcurveto
          -371 -657 rlineto
          -2 -4 -3 -6 -4 vvcurveto
          -10 8 0 16 vhcurveto
          778 hlineto
          16 8 0 10 hvcurveto
          -207 102 rmoveto
          -511 hlineto
          256 454 rlineto
          endchar
        </CharString>
        <CharString name="Dlinebelow">
          79 -152 48 104 54 callsubr
          119 callgsubr
          392 136 hintmask 01111000
          -51 callgsubr
          hintmask 10010000
          -114 -490 -30 callgsubr
        </CharString>
        <CharString name="E">
          -12 callsubr
        </CharString>
        <CharString name="Eacute">
          -6 callgsubr
          80 -21 168 -20 -96 callsubr
          hintmask 0001100000000000
          -142 838 -104 callgsubr
        </CharString>
        <CharString name="Ebreve">
          -6 callgsubr
          59 58 126 -20 -96 callsubr
          hintmask 0001100000000000
          -121 924 -101 callsubr
          endchar
        </CharString>
        <CharString name="Ecaron">
          -6 callgsubr
          70 -21 165 -20 -96 callsubr
          hintmask 0001100000000000
          -119 871 -58 callsubr
        </CharString>
        <CharString name="Ecircumflex">
          -6 callgsubr
          70 -21 165 -20 -96 callsubr
          hintmask 0001100000000000
          -119 69 callgsubr
        </CharString>
        <CharString name="Ecircumflexacute">
          -6 callgsubr
          70 -21 368 -20 -96 callsubr
          hintmask 0001100000000000
          -119 754 -94 callgsubr
          -46 298 -104 callgsubr
        </CharString>
        <CharString name="Ecircumflexdotbelow">
          -45 -200 144 56 -1 callgsubr
          70 -21 165 -20 -26 callgsubr
          21 145 -1 42 150 42 -11 42 hintmask 0111001010100000
          706 270 rmoveto
          -42 hlineto
          -149 -21 -37 -78 -174 hhcurveto
          -156 289 59 hlineto
          96 10 -41 -76 hvcurveto
          42 277 -42 hlineto
          -75 -10 -42 -96 vhcurveto
          -59 263 156 hlineto
          hintmask 0101001001000000
          153 33 -65 -129 15 hvcurveto
          42 hlineto
          -29 237 rlineto
          -608 1 callgsubr
          625 hlineto
          hintmask 0000110000100000
          -119 754 -94 callgsubr
          hintmask 1000000100000000
          -86 -858 -100 callgsubr
        </CharString>
        <CharString name="Ecircumflexgrave">
          -6 callgsubr
          70 -21 165 -20 -96 callsubr
          hintmask 0001100000000000
          -119 754 -69 callsubr
        </CharString>
        <CharString name="Ecircumflexhookabove">
          -6 callgsubr
          70 -21 378 -20 -96 callsubr
          hintmask 0001100000000000
          -119 754 -94 callgsubr
          60 314 -107 callgsubr
        </CharString>
        <CharString name="Ecircumflextilde">
          -6 callgsubr
          70 -21 220 69 -32 69 -42 callgsubr
          hintmask 1110001101000000
          706 270 rmoveto
          -42 hlineto
          -149 -21 -37 -78 -174 hhcurveto
          -156 289 59 hlineto
          96 10 -41 -76 hvcurveto
          42 277 -42 hlineto
          -75 -10 -42 -96 vhcurveto
          -59 263 156 hlineto
          hintmask 1010001010000000
          153 33 -65 -129 15 hvcurveto
          42 hlineto
          -29 237 rlineto
          -608 1 callgsubr
          625 hlineto
          hintmask 0000000001000000
          hintmask 0001010000000000
          -119 754 -94 callgsubr
          28 304 22 callgsubr
          hintmask 0000100000000000
          -82 callsubr
          hintmask 0000010000000000
          -88 callgsubr
          hintmask 0000100000000000
          24 -22 rlineto
          hintmask 0000010000000000
          -82 callgsubr
          hintmask 0000100000000000
          -84 callgsubr
        </CharString>
        <CharString name="Edblgrave">
          -6 callgsubr
          80 -21 193 -20 -96 callsubr
          hintmask 0001100000000000
          -150 762 -94 callsubr
        </CharString>
        <CharString name="Edieresis">
          -6 callgsubr
          49 130 -26 callgsubr
          -113 130 148 42 -38 130 58 42 -11 42 hintmask 1110101001000000
          706 270 rmoveto
          -42 hlineto
          -149 -21 -37 -78 -174 hhcurveto
          -156 289 59 hlineto
          96 10 -41 -76 hvcurveto
          42 277 -42 hlineto
          -75 -10 -42 -96 vhcurveto
          -59 263 156 hlineto
          hintmask 1010100010000000
          153 33 -65 -129 15 hvcurveto
          42 hlineto
          -29 237 rlineto
          -608 1 callgsubr
          625 hlineto
          hintmask 0000000001000000
          hintmask 0001010100000000
          -370 795 -77 callsubr
        </CharString>
        <CharString name="Edotaccent">
          -6 callgsubr
          61 144 -26 callgsubr
          21 145 -1 42 150 42 -11 42 hintmask 1110101010000000
          706 270 rmoveto
          -42 hlineto
          -149 -21 -37 -78 -174 hhcurveto
          -156 289 59 hlineto
          96 10 -41 -76 hvcurveto
          42 277 -42 hlineto
          -75 -10 -42 -96 vhcurveto
          -59 263 156 hlineto
          hintmask 1010100100000000
          153 33 -65 -129 15 hvcurveto
          42 hlineto
          -29 237 rlineto
          -608 1 callgsubr
          625 hlineto
          hintmask 0000000010000000
          hintmask 0001010000000000
          -221 814 -100 callgsubr
        </CharString>
        <CharString name="Edotbelow">
          -45 -200 144 56 -1 callgsubr
          -26 callgsubr
          21 145 -1 42 150 42 -11 42 hintmask 0111101010000000
          706 270 rmoveto
          -42 hlineto
          -149 -21 -37 -78 -174 hhcurveto
          -156 289 59 hlineto
          96 10 -41 -76 hvcurveto
          42 277 -42 hlineto
          -75 -10 -42 -96 vhcurveto
          -59 263 156 hlineto
          hintmask 0101100100000000
          153 33 -65 -129 15 hvcurveto
          42 hlineto
          -29 237 rlineto
          -608 1 callgsubr
          625 hlineto
          hintmask 0000000010000000
          hintmask 1000010000000000
          -221 -128 -100 callgsubr
        </CharString>
        <CharString name="Egrave">
          -6 callgsubr
          80 -21 168 -20 -96 callsubr
          hintmask 0001100000000000
          -217 777 -75 callsubr
        </CharString>
        <CharString name="Ehookabove">
          -6 callgsubr
          82 -21 198 -20 -96 callsubr
          hintmask 0001100000000000
          -184 876 -107 callgsubr
        </CharString>
        <CharString name="Emacron">
          -6 callgsubr
          69 48 -42 callgsubr
          hintmask 11101101
          706 270 rmoveto
          -42 hlineto
          -149 -21 -37 -78 -174 hhcurveto
          -156 289 59 hlineto
          96 10 -41 -76 hvcurveto
          42 277 -42 hlineto
          -75 -10 -42 -96 vhcurveto
          -59 263 156 hlineto
          hintmask 10101010
          153 33 -65 -129 15 hvcurveto
          42 hlineto
          -29 237 rlineto
          -608 1 callgsubr
          625 hlineto
          hintmask 00000001
          hintmask 00010000
          -91 750 -30 callgsubr
        </CharString>
        <CharString name="Eng">
          97 -12 118 550 42 hstem
          98 callsubr
          402 142 vstem
          819 343 rmoveto
          193 -146 162 -189 -79 -75 -25 -44 -55 vhcurveto
          57 vlineto
          -66 -2 rlineto
          -42 -100 0 2 -36 hvcurveto
          -43 112 -600 -112 -16 callgsubr
          36 100 0 42 hhcurveto
          42 100 0 -2 36 hvcurveto
          43 -112 531 vlineto
          52 48 79 30 82 hhcurveto
          135 58 -158 -155 -101 0 -119 -34 -58 hvcurveto
          24 -8 -22 17 -27 hhcurveto
          -32 -27 -26 -33 -33 27 -26 32 157 76 178 177 hvcurveto
          endchar
        </CharString>
        <CharString name="Eogonek">
          -45 -206 70 136 -1 callgsubr
          -42 callgsubr
          hintmask 01111101
          706 270 rmoveto
          -42 hlineto
          -149 -21 -37 -78 -174 hhcurveto
          -156 289 59 hlineto
          96 10 -41 -76 hvcurveto
          42 277 -42 hlineto
          -75 -10 -42 -96 vhcurveto
          -59 263 156 hlineto
          hintmask 11011010
          153 33 -65 -129 15 hvcurveto
          42 hlineto
          -29 237 rlineto
          -608 1 callgsubr
          454 hlineto
          -35 -29 -18 -32 -40 -76 callsubr
          -47 -23 96 40 58 hvcurveto
          95 hlineto
          hintmask 00000001
          endchar
        </CharString>
        <CharString name="Eogonekacute">
          -45 -206 70 136 -1 callgsubr
          80 -21 168 -20 -42 callgsubr
          hintmask 0111001101000000
          706 270 rmoveto
          -42 hlineto
          -149 -21 -37 -78 -174 hhcurveto
          -156 289 59 hlineto
          96 10 -41 -76 hvcurveto
          42 277 -42 hlineto
          -75 -10 -42 -96 vhcurveto
          -59 263 156 hlineto
          hintmask 1101001010000000
          153 33 -65 -129 15 hvcurveto
          42 hlineto
          -29 237 rlineto
          -608 1 callgsubr
          454 hlineto
          -35 -29 -18 -32 -40 -76 callsubr
          -47 -23 96 40 58 hvcurveto
          95 hlineto
          hintmask 0000000001000000
          hintmask 0000110000000000
          -142 838 -104 callgsubr
        </CharString>
        <CharString name="Epsilon">
          -12 callsubr
        </CharString>
        <CharString name="Ereversed">
          -6 callgsubr
          hstemhm
          38 42 -11 42 150 42 165 132 hintmask 11101110
          706 hmoveto
          43 -106 595 106 43 -608 vlineto
          -29 -237 rlineto
          42 hlineto
          129 15 33 65 153 hhcurveto
          156 -263 -59 hlineto
          -96 -10 42 75 hvcurveto
          -42 -277 42 hlineto
          76 10 41 96 vhcurveto
          59 -289 -156 hlineto
          hintmask 10010000
          -174 -37 78 149 -21 hvcurveto
          -42 hlineto
          43 -270 rlineto
          endchar
        </CharString>
        <CharString name="Eta">
          97 0 43 292 43 265 43 hstem
          144 132 327 132 vstem
          -86 callgsubr
          endchar
        </CharString>
        <CharString name="Eth">
          -15 callgsubr
        </CharString>
        <CharString name="Etilde">
          -6 callgsubr
          49 69 -32 69 -96 callsubr
          hintmask 0000100000000000
          -107 814 22 callgsubr
          hintmask 0001000000000000
          -82 callsubr
          hintmask 0000100000000000
          -88 callgsubr
          hintmask 0001000000000000
          24 -22 rlineto
          hintmask 0000100000000000
          -82 callgsubr
          hintmask 0001000000000000
          -84 callgsubr
        </CharString>
        <CharString name="Euro">
          -78 -12 42 82 42 104 42 86 42 104 42 82 42 hstem
          126 142 vstem
          642 hmoveto
          142 vlineto
          7 -5 5 -7 vhcurveto
          -22 hlineto
          -6 -5 -4 -6 -1 hvcurveto
          -64 -8 -53 -50 -64 hhcurveto
          -63 -60 29 53 -35 hvcurveto
          -29 43 -10 51 -4 52 rrcurveto
          251 hlineto
          5 5 114 callsubr
          -259 43 hlineto
          43 293 vlineto
          6 4 114 callsubr
          -297 hlineto
          4 52 10 51 29 43 rrcurveto
          53 35 60 29 63 hhcurveto
          64 53 -49 -65 8 hvcurveto
          -5 1 5 -5 6 hhcurveto
          22 hlineto
          7 5 5 7 hvcurveto
          142 vlineto
          7 -5 5 -7 vhcurveto
          -7 hlineto
          -2 -3 -1 -1 -2 hvcurveto
          -47 -34 rlineto
          23 -33 -41 13 -44 hhcurveto
          -89 -87 -32 -65 -60 hvcurveto
          -45 -49 -25 -60 -12 -64 rrcurveto
          -55 97 callsubr
          56 hlineto
          -1 -14 -1 -15 -14 vvcurveto
          -14 1 -15 1 -14 vhcurveto
          -50 97 callsubr
          61 hlineto
          12 -64 25 -60 45 -49 rrcurveto
          -65 60 87 -32 89 hhcurveto
          44 41 13 23 33 hvcurveto
          47 -34 rlineto
          -1 2 3 -1 2 hhcurveto
          7 hlineto
          7 5 5 7 hvcurveto
          endchar
        </CharString>
        <CharString name="F">
          -76 0 43 276 43 276 43 hstem
          -17 callsubr
          159 42 140 42 cntrmask 11100000
          659 444 rmoveto
          -29 237 rlineto
          -592 70 callgsubr
          276 55 vlineto
          96 8 -44 -73 hvcurveto
          42 277 -42 hlineto
          -73 -8 -44 -96 vhcurveto
          -55 276 143 hlineto
          159 25 -73 -121 14 hvcurveto
          endchar
        </CharString>
        <CharString name="G">
          101 -12 83 callsubr
          hintmask 11111000
          -86 callsubr
          hintmask 11110100
          -79 callgsubr
          endchar
        </CharString>
        <CharString name="Gacute">
          41 callgsubr
          63 -21 168 -83 callsubr
          hintmask 00011000
          -155 608 -104 callgsubr
        </CharString>
        <CharString name="Gamma">
          -107 0 43 595 43 hstem
          -17 callsubr
          vstem
          628 444 rmoveto
          -29 237 rlineto
          -561 70 callgsubr
          595 120 vlineto
          155 21 -74 -120 14 hvcurveto
          endchar
        </CharString>
        <CharString name="Gbreve">
          41 callgsubr
          42 58 126 -83 callsubr
          hintmask 00011000
          -134 694 -101 callsubr
          endchar
        </CharString>
        <CharString name="Gcaron">
          41 callgsubr
          53 -21 165 -83 callsubr
          hintmask 00011010
          -132 641 -58 callsubr
        </CharString>
        <CharString name="Gcedilla">
          101 85 callsubr
          83 callsubr
          hintmask 00111110
          -86 callsubr
          hintmask 01111101
          -79 callgsubr
          -248 -356 -49 callgsubr
          -27 19 -27 35 vhcurveto
          hintmask 10000010
          22 13 11 3 3 hvcurveto
          -1 -21 -3 -62 -62 -52 rrcurveto
          -5 -5 -2 -1 -4 vvcurveto
          -7 9 -7 5 10 74 63 100 vhcurveto
          endchar
        </CharString>
        <CharString name="Gcircumflex">
          41 callgsubr
          53 -21 165 -83 callsubr
          hintmask 00011010
          -132 524 -51 callsubr
        </CharString>
        <CharString name="Gcommaaccent">
          101 85 callsubr
          83 callsubr
          hintmask 00111110
          -86 callsubr
          hintmask 00111101
          -79 callgsubr
          hintmask 11000010
          -248 -356 -97 callgsubr
        </CharString>
        <CharString name="Gdotaccent">
          41 callgsubr
          44 144 hstemhm
          62 141 167 145 -39 82 callgsubr
          hintmask 11101010
          -86 callsubr
          hintmask 11101001
          -79 callgsubr
          hintmask 00010100
          -234 584 -100 callgsubr
        </CharString>
        <CharString name="H">
          97 0 43 292 43 265 43 hstem
          144 132 327 132 vstem
          -86 callgsubr
          endchar
        </CharString>
        <CharString name="H_uni0303">
          103 callgsubr
          44 116 callgsubr
          327 132 hintmask 11100110
          -86 callgsubr
          hintmask 00001010
          -214 814 -88 callsubr
        </CharString>
        <CharString name="Hbar">
          97 0 112 callgsubr
          116 42 107 98 callgsubr
          451 106 42 -106 107 106 43 vlineto
          -2 -29 -107 0 -36 hhcurveto
          -36 -107 45 callsubr
          -107 -327 107 106 43 vlineto
          -2 -29 -107 0 -36 hhcurveto
          -36 -107 45 callsubr
          -107 -106 -42 106 -451 -44 callsubr
          292 327 -292 -61 callsubr
          -238 378 rmoveto
          -327 116 327 hlineto
          endchar
        </CharString>
        <CharString name="Hbrevebelow">
          97 124 callgsubr
          56 67 callgsubr
          -26 callgsubr
          327 132 hintmask 00111110
          -86 callgsubr
          hintmask 11000000
          -228 -36 -101 callsubr
          endchar
        </CharString>
        <CharString name="Hcircumflex">
          103 callgsubr
          95 callsubr
          327 132 hintmask 11100110
          -86 callgsubr
          hintmask 00011000
          -226 69 callgsubr
        </CharString>
        <CharString name="Hdieresis">
          103 callgsubr
          44 130 -26 callgsubr
          -42 34 callgsubr
          -43 132 hintmask 11101001
          -86 callgsubr
          hintmask 00010110
          -477 795 -77 callsubr
        </CharString>
        <CharString name="Hdotbelow">
          97 -200 144 56 67 callgsubr
          -26 callgsubr
          92 145 90 132 hintmask 01111010
          -86 callgsubr
          hintmask 10000100
          -328 -128 -100 callgsubr
        </CharString>
        <CharString name="I">
          38 callgsubr
          hstem
          98 callsubr
          vstem
          -93 callsubr
          endchar
        </CharString>
        <CharString name="I_J">
          175 -12 33 -21 43 4 138 458 43 hstemhm
          98 callsubr
          133 106 callgsubr
          hintmask 01011010
          -93 callsubr
          506 643 58 callgsubr
          -25 -103 0 -32 hhcurveto
          -185 2 rlineto
          -43 138 -494 vlineto
          hintmask 10110110
          -94 -46 -34 -52 -7 -46 0 25 -39 vhcurveto
          36 9 17 29 30 vvcurveto
          49 -39 22 -31 -36 -35 -25 -46 -75 77 -51 108 128 92 58 103 vhcurveto
          494 vlineto
          endchar
        </CharString>
        <CharString name="Iacute">
          38 callgsubr
          75 -21 168 -20 -74 callgsubr
          hintmask 00110000
          -26 838 -104 callgsubr
        </CharString>
        <CharString name="Ibreve">
          38 callgsubr
          54 58 126 -20 -74 callgsubr
          hintmask 00110000
          -5 924 -101 callsubr
          endchar
        </CharString>
        <CharString name="Icaron">
          38 callgsubr
          65 -21 165 -20 -74 callgsubr
          hintmask 00110000
          -3 871 -58 callsubr
        </CharString>
        <CharString name="Icircumflex">
          38 callgsubr
          65 -21 165 -20 -74 callgsubr
          hintmask 00110000
          -3 69 callgsubr
        </CharString>
        <CharString name="Idblgrave">
          38 callgsubr
          75 -21 193 -20 -74 callgsubr
          hintmask 00110000
          -34 762 -94 callsubr
        </CharString>
        <CharString name="Idieresis">
          139 callsubr
          hstemhm
          3 117 callgsubr
          hintmask 11001000
          -93 callsubr
          hintmask 00110100
          -254 795 -77 callsubr
        </CharString>
        <CharString name="Idieresisacute">
          139 callsubr
          75 -21 168 -20 hstemhm
          3 117 callgsubr
          hintmask 11000010
          -93 callsubr
          hintmask 00111101
          -254 795 rmoveto
          -101 callgsubr
          282 hmoveto
          -101 callgsubr
          -54 217 -104 callgsubr
        </CharString>
        <CharString name="Idotaccent">
          38 callgsubr
          56 144 hstemhm
          137 145 -139 -72 callsubr
          hintmask 00110000
          -105 814 -100 callgsubr
        </CharString>
        <CharString name="Idotbelow">
          -364 20 callgsubr
          hstemhm
          137 145 -139 132 hintmask 01101000
          -93 callsubr
          hintmask 10010000
          -105 -128 -100 callgsubr
        </CharString>
        <CharString name="Igrave">
          38 callgsubr
          75 -21 168 -20 -74 callgsubr
          hintmask 00110000
          -101 777 -75 callsubr
        </CharString>
        <CharString name="Ihookabove">
          38 callgsubr
          77 -21 198 -20 -74 callgsubr
          hintmask 00110000
          -68 876 -107 callgsubr
        </CharString>
        <CharString name="Imacron">
          38 callgsubr
          64 48 hstemhm
          98 callsubr
          hintmask 11010000
          -93 callsubr
          hintmask 00100000
          25 750 -30 callgsubr
        </CharString>
        <CharString name="Imacron.alt">
          38 callgsubr
          64 48 hstemhm
          98 callsubr
          hintmask 11010000
          -93 callsubr
          hintmask 00100000
          -69 750 31 callgsubr
        </CharString>
        <CharString name="Iogonek">
          -364 -206 70 136 54 callsubr
          hstem
          98 callsubr
          vstem
          387 hmoveto
          43 -112 600 112 75 callsubr
          -100 0 -42 hhcurveto
          -42 -100 0 2 -36 hvcurveto
          -43 112 -600 -112 -16 callgsubr
          36 100 0 42 hhcurveto
          16 hlineto
          -31 35 callgsubr
          -27 40 43 15 hvcurveto
          9 24 17 19 22 12 rrcurveto
          endchar
        </CharString>
        <CharString name="Iogonekacute">
          -364 -206 70 136 54 callsubr
          75 -21 168 -20 hstemhm
          98 callsubr
          hintmask 11100100
          387 hmoveto
          43 -112 600 112 75 callsubr
          -100 0 -42 hhcurveto
          -42 -100 0 2 -36 hvcurveto
          -43 112 -600 -112 -16 callgsubr
          36 100 0 42 hhcurveto
          16 hlineto
          -31 35 callgsubr
          -27 40 43 15 hvcurveto
          9 24 17 19 22 12 rrcurveto
          hintmask 00011000
          51 836 -104 callgsubr
        </CharString>
        <CharString name="Iota">
          38 callgsubr
          hstem
          98 callsubr
          vstem
          -93 callsubr
          endchar
        </CharString>
        <CharString name="Itilde">
          38 callgsubr
          44 69 -32 69 -74 callgsubr
          hintmask 00010000
          9 814 -92 callsubr
        </CharString>
        <CharString name="J">
          95 callgsubr
          hstem
          31 106 callgsubr
          vstem
          -46 callgsubr
          endchar
        </CharString>
        <CharString name="J_uni030C.cap">
          -202 -12 33 26 138 269 -21 145 108 -43 43 hstemhm
          31 106 callgsubr
          hintmask 11001110
          -46 callgsubr
          239 -47 138 callgsubr
          hintmask 00110000
          -27 19 -27 35 22 13 11 3 3 vhcurveto
          -1 -21 -3 -62 -62 -52 rrcurveto
          -5 -5 -2 -1 -4 vvcurveto
          -7 9 -7 5 10 74 63 100 vhcurveto
          endchar
        </CharString>
        <CharString name="Jacute">
          95 callgsubr
          75 -21 168 -20 hstemhm
          31 106 callgsubr
          hintmask 11100110
          -46 callgsubr
          hintmask 00011000
          59 195 -104 callgsubr
        </CharString>
        <CharString name="Jcircumflex">
          95 callgsubr
          53 callgsubr
          31 106 callgsubr
          hintmask 11100110
          -46 callgsubr
          hintmask 00011000
          82 111 -51 callsubr
        </CharString>
        <CharString name="K">
          98 107 callgsubr
          -17 callsubr
          410 132 vstem
          -78 callsubr
          endchar
        </CharString>
        <CharString name="Kappa">
          98 107 callgsubr
          -17 callsubr
          410 132 vstem
          -78 callsubr
          endchar
        </CharString>
        <CharString name="Kcedilla">
          98 45 callgsubr
          hstem
          -17 callsubr
          410 132 vstem
          -78 callsubr
          -334 -126 -97 callgsubr
        </CharString>
        <CharString name="Kcommaaccent">
          98 45 callgsubr
          -26 callgsubr
          410 132 hintmask 00111100
          -78 callsubr
          hintmask 11000000
          -334 -126 -97 callgsubr
        </CharString>
        <CharString name="L">
          -107 107 callgsubr
          -17 callsubr
          vstem
          -69 callgsubr
          endchar
        </CharString>
        <CharString name="L_uni0303">
          -107 10 callsubr
          44 116 callgsubr
          hintmask 11001000
          -69 callgsubr
          hintmask 00010000
          -194 814 -92 callsubr
        </CharString>
        <CharString name="Lacute">
          -107 10 callsubr
          75 -21 168 -20 -26 callgsubr
          hintmask 11001000
          -69 callgsubr
          hintmask 00110000
          -229 838 -104 callgsubr
        </CharString>
        <CharString name="Lambda">
          4 0 43 657 -20 hstem
          748 hmoveto
          43 -84 vlineto
          -238 634 rlineto
          17 -6 -3 6 -24 hhcurveto
          -24 -3 -6 -17 -6 hvcurveto
          -229 -610 rlineto
          -17 -6 -3 -7 -84 hhcurveto
          -16 callgsubr
          43 11 0 54 hhcurveto
          28 69 -18 callsubr
          -20 -43 0 11 -27 hvcurveto
          5 14 166 444 176 -469 rlineto
          -95 -43 hlineto
          2 32 97 0 38 hhcurveto
          31 98 0 -2 24 hvcurveto
          endchar
        </CharString>
        <CharString name="Lcaron">
          -107 0 43 411 -21 145 108 -43 43 -26 callgsubr
          hintmask 10011000
          -69 callgsubr
          -10 596 rmoveto
          18 callsubr
        </CharString>
        <CharString name="Lcedilla">
          -107 45 callgsubr
          hstem
          -17 callsubr
          vstem
          -69 callgsubr
          -202 -126 -97 callgsubr
        </CharString>
        <CharString name="Lcommaaccent">
          -107 45 callgsubr
          -26 callgsubr
          hintmask 00111000
          -69 callgsubr
          hintmask 11000000
          -202 -126 -97 callgsubr
        </CharString>
        <CharString name="Ldot">
          -107 0 43 314 144 142 43 hstem
          -17 callsubr
          199 145 vstem
          -69 callgsubr
          21 429 -100 callgsubr
        </CharString>
        <CharString name="Ldotbelow">
          -107 20 callgsubr
          -26 callgsubr
          -10 145 hintmask 01110000
          -69 callgsubr
          hintmask 10001000
          -188 -128 -100 callgsubr
        </CharString>
        <CharString name="Ldotbelowmacron">
          -107 20 callgsubr
          64 48 -26 callgsubr
          -10 145 hintmask 11101000
          -69 callgsubr
          -188 60 callsubr
          hintmask 00010000
          15 878 -30 callgsubr
        </CharString>
        <CharString name="Lslash">
          -107 107 callgsubr
          154 132 vstem
          638 270 rmoveto
          -42 hlineto
          -69 -7 -16 -158 -180 hhcurveto
          -107 333 hlineto
          192 144 -30 40 -162 -121 rlineto
          204 133 43 vlineto
          -191 -2 rlineto
          -37 -114 45 callsubr
          -304 vlineto
          -98 -74 30 -39 68 51 rlineto
          -234 -106 -43 561 vlineto
          endchar
        </CharString>
        <CharString name="M">
          284 107 callgsubr
          147 47 607 118 vstem
          -56 callgsubr
          endchar
        </CharString>
        <CharString name="Mdotbelow">
          284 20 callgsubr
          hstemhm
          147 47 267 145 195 118 hintmask 01110100
          -56 callgsubr
          hintmask 10001000
          -419 -128 -100 callgsubr
        </CharString>
        <CharString name="Mu">
          284 107 callgsubr
          147 47 607 118 vstem
          -56 callgsubr
          endchar
        </CharString>
        <CharString name="N">
          97 107 callgsubr
          125 callsubr
          vstem
          -99 callgsubr
          endchar
        </CharString>
        <CharString name="Nacute">
          97 10 callsubr
          75 -21 168 -20 hstemhm
          125 callsubr
          hintmask 11001100
          -99 callgsubr
          hintmask 00110000
          -226 195 -104 callgsubr
        </CharString>
        <CharString name="Ncaron">
          97 10 callsubr
          53 callgsubr
          125 callsubr
          hintmask 11001100
          -99 callgsubr
          hintmask 00110000
          -203 228 -58 callsubr
        </CharString>
        <CharString name="Ncedilla">
          97 45 callgsubr
          hstem
          125 callsubr
          vstem
          -99 callgsubr
          -319 -769 -97 callgsubr
        </CharString>
        <CharString name="Ncommaaccent">
          97 45 callgsubr
          hstemhm
          125 callsubr
          hintmask 00111100
          -99 callgsubr
          hintmask 11000000
          -319 -769 -97 callgsubr
        </CharString>
        <CharString name="Ndotaccent">
          97 10 callsubr
          44 144 hstemhm
          144 47 177 145 175 47 hintmask 11010100
          -99 callgsubr
          hintmask 00101000
          -305 159 -100 callgsubr
        </CharString>
        <CharString name="Ndotbelow">
          97 20 callgsubr
          hstemhm
          144 47 177 145 175 47 hintmask 01110100
          -99 callgsubr
          hintmask 10001000
          -305 -771 -100 callgsubr
        </CharString>
        <CharString name="Ntilde">
          97 10 callsubr
          44 69 -32 69 hstemhm
          125 callsubr
          hintmask 11001100
          -99 callgsubr
          hintmask 00010000
          -191 171 -92 callsubr
        </CharString>
        <CharString name="Nu">
          97 107 callgsubr
          125 callsubr
          vstem
          -99 callgsubr
          endchar
        </CharString>
        <CharString name="O">
          33 callsubr
          hstem
          62 141 438 141 vstem
          -105 callgsubr
          endchar
        </CharString>
        <CharString name="OE">
          -46 callsubr
        </CharString>
        <CharString name="OE.dup">
          -46 callsubr
        </CharString>
        <CharString name="Oacute">
          33 callsubr
          63 -21 168 -20 hstemhm
          62 141 438 141 hintmask 11001100
          -105 callgsubr
          hintmask 00110000
          -67 484 -104 callgsubr
        </CharString>
        <CharString name="Obreve">
          33 callsubr
          42 58 126 -20 hstemhm
          62 141 438 141 hintmask 11001100
          -105 callgsubr
          hintmask 00110000
          -46 570 -101 callsubr
          endchar
        </CharString>
        <CharString name="Ocaron">
          62 -12 38 636 36 102 callsubr
          438 141 hintmask 11001100
          -105 callgsubr
          hintmask 00110000
          -44 517 -58 callsubr
        </CharString>
        <CharString name="Ocircumflex">
          62 -12 38 636 36 102 callsubr
          438 141 hintmask 11001100
          -105 callgsubr
          hintmask 00110000
          -44 400 -51 callsubr
        </CharString>
        <CharString name="Ocircumflexacute">
          117 callsubr
          368 -20 hstemhm
          62 141 438 141 hintmask 11001100
          -105 callgsubr
          hintmask 00110000
          -44 400 -94 callgsubr
          -46 298 -104 callgsubr
        </CharString>
        <CharString name="Ocircumflexdotbelow">
          62 14 callsubr
          44 83 callgsubr
          53 -21 165 -20 123 callsubr
          hintmask 01111101
          -105 callgsubr
          -44 400 -94 callgsubr
          hintmask 10000010
          -86 -858 -100 callgsubr
        </CharString>
        <CharString name="Ocircumflexgrave">
          62 -12 38 636 36 102 callsubr
          438 141 hintmask 11001100
          -105 callgsubr
          hintmask 00110000
          -44 400 -69 callsubr
        </CharString>
        <CharString name="Ocircumflexhookabove">
          117 callsubr
          378 -20 hstemhm
          62 141 438 141 hintmask 11001100
          -105 callgsubr
          hintmask 00110100
          -44 400 -94 callgsubr
          60 314 -107 callgsubr
        </CharString>
        <CharString name="Ocircumflextilde">
          117 callsubr
          220 69 -32 69 hstemhm
          62 141 438 141 hintmask 11000110
          -105 callgsubr
          hintmask 00101000
          -44 400 -94 callgsubr
          28 304 -88 callsubr
        </CharString>
        <CharString name="Odblgrave">
          33 callsubr
          63 74 callsubr
          62 141 438 141 hintmask 11001100
          -105 callgsubr
          hintmask 00110000
          -75 408 -94 callsubr
        </CharString>
        <CharString name="Odieresis">
          33 callsubr
          32 130 hstemhm
          62 141 13 34 callgsubr
          13 141 hintmask 11010010
          -105 callgsubr
          hintmask 00101100
          -295 441 -77 callsubr
        </CharString>
        <CharString name="Odotbelow">
          62 14 callsubr
          44 83 callgsubr
          123 callsubr
          hintmask 01110100
          -105 callgsubr
          hintmask 10001000
          -146 -482 -100 callgsubr
        </CharString>
        <CharString name="Ograve">
          33 callsubr
          63 -21 168 -20 hstemhm
          62 141 438 141 hintmask 11001100
          -105 callgsubr
          hintmask 00110000
          -142 423 -75 callsubr
        </CharString>
        <CharString name="Ohookabove">
          33 callsubr
          65 134 callsubr
          62 141 438 141 hintmask 11001100
          -105 callgsubr
          hintmask 00110000
          -109 522 -107 callgsubr
        </CharString>
        <CharString name="Ohorn">
          104 callsubr
          121 -20 27 callsubr
          hintmask 11111000
          -81 callsubr
          hintmask 11010100
          -65 callsubr
          endchar
        </CharString>
        <CharString name="Ohornacute">
          104 callsubr
          63 -21 79 -20 109 -20 27 callsubr
          hintmask 11010110
          -81 callsubr
          hintmask 11000101
          -65 callsubr
          hintmask 00101000
          -96 481 -104 callgsubr
        </CharString>
        <CharString name="Ohorndotbelow">
          62 14 callsubr
          44 39 634 37 121 -20 hstemhm
          62 142 146 145 121 133 -110 142 hintmask 01111010
          -81 callsubr
          hintmask 01101001
          -65 callsubr
          hintmask 10000100
          -144 -485 -100 callgsubr
        </CharString>
        <CharString name="Ohorngrave">
          104 callsubr
          63 -21 79 -20 109 -20 27 callsubr
          hintmask 11010110
          -81 callsubr
          hintmask 11000101
          -65 callsubr
          hintmask 00101000
          -140 420 -75 callsubr
        </CharString>
        <CharString name="Ohornhookabove">
          104 callsubr
          65 -21 77 -20 141 -20 27 callsubr
          hintmask 11010110
          -81 callsubr
          hintmask 11000101
          -65 callsubr
          hintmask 00101000
          -107 519 -107 callgsubr
        </CharString>
        <CharString name="Ohorntilde">
          104 callsubr
          32 69 -32 69 27 callsubr
          hintmask 11001100
          -81 callsubr
          hintmask 11001010
          -65 callsubr
          hintmask 00010000
          -30 457 -92 callsubr
        </CharString>
        <CharString name="Ohungarumlaut">
          33 callsubr
          63 74 callsubr
          62 141 438 141 hintmask 11001100
          -105 callgsubr
          hintmask 00110000
          -208 522 -75 callgsubr
        </CharString>
        <CharString name="Omacron">
          33 callsubr
          52 48 hstemhm
          62 141 438 141 hintmask 11011000
          -105 callgsubr
          hintmask 00100000
          -16 396 -30 callgsubr
        </CharString>
        <CharString name="Omega">
          -41 callgsubr
        </CharString>
        <CharString name="Omicron">
          33 callsubr
          hstem
          62 141 438 141 vstem
          -105 callgsubr
          endchar
        </CharString>
        <CharString name="Oogonek">
          62 -10 36 636 36 109 callgsubr
          hintmask 11110000
          30 callgsubr
          hintmask 00001000
          -54 45 -51 69 48 32 19 38 24 vhcurveto
          6 9 -4 12 -8 7 -11 10 -16 0 -5 -7 rrcurveto
          hintmask 11110100
          -1 callsubr
          hintmask 00001100
          81 60 -43 -45 29 hvcurveto
          37 -58 12 -62 -100 vvcurveto
          endchar
        </CharString>
        <CharString name="Oogonekacute">
          62 -10 36 636 36 63 -21 168 -20 109 callgsubr
          hintmask 11001100
          30 callgsubr
          hintmask 00000010
          -54 45 -51 69 48 32 19 38 24 vhcurveto
          6 9 -4 12 -8 7 -11 10 -16 0 -5 -7 rrcurveto
          hintmask 11001101
          -1 callsubr
          hintmask 00000011
          81 60 -43 -45 29 hvcurveto
          37 -58 12 -62 -100 vvcurveto
          hintmask 00110000
          -67 484 -104 callgsubr
        </CharString>
        <CharString name="Orogate">
          62 62 141 202 34 202 141 vstem
          21 callgsubr
          207 -131 143 -212 8 vhcurveto
          183 -34 -183 vlineto
          -213 -8 -130 -144 -206 vvcurveto
          -206 133 -139 210 -7 vhcurveto
          -182 34 182 vlineto
          210 7 133 139 206 vvcurveto
          -97 callsubr
          endchar
        </CharString>
        <CharString name="Oslash">
          94 callsubr
          hstem
          62 132 486 132 vstem
          -59 callgsubr
          endchar
        </CharString>
        <CharString name="Oslash.dup">
          94 callsubr
          hstem
          62 132 486 132 vstem
          -59 callgsubr
          endchar
        </CharString>
        <CharString name="Oslashacute">
          94 callsubr
          36 -21 168 -20 hstemhm
          62 132 486 132 hintmask 11110011
          -59 callgsubr
          hintmask 00001100
          -91 498 -104 callgsubr
        </CharString>
        <CharString name="Otilde">
          33 callsubr
          32 69 -32 69 hstemhm
          62 141 438 141 hintmask 11001100
          -105 callgsubr
          hintmask 00010000
          -32 460 -92 callsubr
        </CharString>
        <CharString name="P">
          -10 callgsubr
        </CharString>
        <CharString name="Phi">
          30 0 43 103 37 318 37 105 43 hstem
          62 136 142 123 150 136 vstem
          749 343 rmoveto
          66 -53 112 -233 17 vhcurveto
          105 111 callgsubr
          -105 vlineto
          -200 -17 -78 -93 -85 vvcurveto
          -86 79 -92 199 -17 vhcurveto
          -105 110 callsubr
          105 vlineto
          233 17 53 112 66 vvcurveto
          -409 -160 rmoveto
          -125 17 -17 73 70 vvcurveto
          70 16 73 126 17 vhcurveto
          273 -160 rmoveto
          -78 -22 -68 -128 -15 vhcurveto
          322 vlineto
          128 -15 22 -68 -78 vvcurveto
          endchar
        </CharString>
        <CharString name="Pi">
          97 0 43 595 98 callgsubr
          595 106 43 -803 -43 106 -595 -44 callsubr
          595 327 -595 -61 callsubr
          endchar
        </CharString>
        <CharString name="Psi">
          92 0 43 145 43 285 34 93 43 hstem
          126 123 122 123 131 123 vstem
          812 533 rmoveto
          17 -12 0 -17 vhcurveto
          -70 hlineto
          -69 -18 -54 -91 -1 hvcurveto
          -1 -118 -38 -77 -92 -23 rrcurveto
          456 111 callgsubr
          -455 vlineto
          -90 28 -31 73 -1 126 rrcurveto
          100 -1 -32 35 -55 hhcurveto
          -70 hlineto
          -15 -14 0 -17 -7 4 -7 9 -2 hvcurveto
          14 -2 14 -1 10 -23 rrcurveto
          12 -28 1 -40 0 vvcurveto
          -42 1 -84 59 -66 vhcurveto
          60 -68 91 -10 34 -4 rrcurveto
          -106 110 callsubr
          106 vlineto
          73 6 69 22 51 54 rrcurveto
          51 54 10 83 28 vvcurveto
          40 1 75 43 6 vhcurveto
          11 1 9 2 13 vvcurveto
          endchar
        </CharString>
        <CharString name="Q">
          62 -194 141 41 36 -33 33 97 33 508 36 hstemhm
          62 136 129 33 159 136 -9 136 hintmask 1100110010000000
          788 -9 rmoveto
          9 0 15 -15 -13 -1 -11 -8 -1 vhcurveto
          -41 -6 -55 -8 -28 hhcurveto
          -22 -32 0 68 -41 hvcurveto
          161 62 47 145 118 vvcurveto
          212 -138 146 -222 -223 -137 -147 -211 -211 140 -141 220 vhcurveto
          hintmask 1011111100000000
          9 41 0 10 47 hvcurveto
          -113 26 19 -79 91 hhcurveto
          103 30 123 62 hvcurveto
          -142 349 rmoveto
          -59 0 -149 -101 -69 vhcurveto
          68 -41 -38 23 -44 hhcurveto
          -51 -44 -35 -47 -17 3 -6 2 -5 hvcurveto
          -134 56 0 181 59 vvcurveto
          89 9 76 42 66 vhcurveto
          55 36 65 36 72 hhcurveto
          58 74 -23 -79 47 hvcurveto
          hintmask 0101001010000000
          42 -70 3 -90 -60 vvcurveto
          -138 -299 rmoveto
          0 -40 -17 -46 -51 -11 33 15 29 29 20 34 48 21 -33 -47 16 vhcurveto
          endchar
        </CharString>
        <CharString name="R">
          51 callsubr
          6 callgsubr
          hintmask 10011110
          -80 callgsubr
          hintmask 01101000
          -70 callsubr
          hintmask 10111110
          -68 callgsubr
          endchar
        </CharString>
        <CharString name="Racute">
          51 callsubr
          75 -21 168 -20 6 callgsubr
          hintmask 1001001110000000
          -80 callgsubr
          hintmask 0110001000000000
          -70 callsubr
          hintmask 1011001110000000
          -68 callgsubr
          hintmask 0000110000000000
          15 336 -104 callgsubr
        </CharString>
        <CharString name="Rcaron">
          51 callsubr
          65 -21 165 -20 6 callgsubr
          hintmask 1001001110000000
          -80 callgsubr
          hintmask 0110001000000000
          -70 callsubr
          hintmask 1011001110000000
          -68 callgsubr
          hintmask 0000110000000000
          38 369 -58 callsubr
        </CharString>
        <CharString name="Rcedilla">
          56 85 callsubr
          6 callsubr
          6 callgsubr
          hintmask 0010011110000000
          -80 callgsubr
          hintmask 0001101000000000
          -70 callsubr
          hintmask 1110111110000000
          -68 callgsubr
          -78 -628 -97 callgsubr
        </CharString>
        <CharString name="Rcommaaccent">
          56 85 callsubr
          6 callsubr
          6 callgsubr
          hintmask 0010011110000000
          -80 callgsubr
          hintmask 0001101000000000
          -70 callsubr
          hintmask 0010111110000000
          -68 callgsubr
          hintmask 1100000000000000
          -78 -628 -97 callgsubr
        </CharString>
        <CharString name="Rdblgrave">
          51 callsubr
          75 -21 193 -20 6 callgsubr
          hintmask 1001001110000000
          -80 callgsubr
          hintmask 0110001000000000
          -70 callsubr
          hintmask 1011001110000000
          -68 callgsubr
          hintmask 0000110000000000
          -24 260 -94 callsubr
        </CharString>
        <CharString name="Rdotaccent">
          51 callsubr
          56 144 56 callsubr
          hintmask 1001010110000000
          -80 callgsubr
          hintmask 0110010000000000
          -70 callsubr
          hintmask 1011010110000000
          -68 callgsubr
          hintmask 0000101000000000
          -64 312 -100 callgsubr
        </CharString>
        <CharString name="Rdotbelow">
          56 14 callsubr
          44 6 callsubr
          56 callsubr
          hintmask 0100110110000000
          -80 callgsubr
          hintmask 0011010000000000
          -70 callsubr
          hintmask 0101110110000000
          -68 callgsubr
          hintmask 1000001000000000
          -64 -630 -100 callgsubr
        </CharString>
        <CharString name="Rdotbelowmacron">
          56 14 callsubr
          44 6 callsubr
          64 48 56 callsubr
          hintmask 0100101011000000
          -80 callgsubr
          hintmask 0011001000000000
          -70 callsubr
          hintmask 1101101011000000
          -68 callgsubr
          -64 -630 rmoveto
          -33 callgsubr
          vhcurveto
          hintmask 1000000100000000
          -41 -32 -33 -39 -41 34 -31 38 41 32 33 39 hvcurveto
          hintmask 0000010000000000
          130 878 -30 callgsubr
        </CharString>
        <CharString name="Rho">
          -10 callgsubr
        </CharString>
        <CharString name="S">
          -158 -12 8 callgsubr
          hstem
          81 callsubr
          vstem
          562 200 rmoveto
          -100 callsubr
          rrcurveto
          -46 58 82 -13 60 hhcurveto
          156 66 106 106 hvcurveto
          endchar
        </CharString>
        <CharString name="S_S">
          467 -12 8 callgsubr
          hstem
          81 callsubr
          125 86 callsubr
          vstem
          562 200 rmoveto
          -100 callsubr
          rrcurveto
          -46 58 82 -13 60 hhcurveto
          156 66 106 106 hvcurveto
          625 hmoveto
          -100 callsubr
          rrcurveto
          -46 58 82 -13 60 hhcurveto
          156 66 106 106 hvcurveto
          endchar
        </CharString>
        <CharString name="Sacute">
          -158 -12 8 callgsubr
          63 -21 168 -20 116 callsubr
          hintmask 1111001110000000
          562 200 rmoveto
          -100 callsubr
          rrcurveto
          -46 58 82 -13 60 hhcurveto
          156 66 106 106 hvcurveto
          hintmask 0000110000000000
          -98 638 -104 callgsubr
        </CharString>
        <CharString name="Scaron">
          -158 -12 8 callgsubr
          53 -21 165 -20 116 callsubr
          hintmask 1111001110000000
          562 200 rmoveto
          -100 callsubr
          rrcurveto
          -46 58 82 -13 60 hhcurveto
          156 66 106 106 hvcurveto
          hintmask 0000110000000000
          -75 671 -58 callsubr
        </CharString>
        <CharString name="Scedilla">
          -158 -158 40 0 40 66 8 callgsubr
          hstemhm
          62 90 320 90 hintmask 01111111
          562 200 rmoveto
          -100 callsubr
          38 -30 47 -16 46 -7 rrcurveto
          -72 vlineto
          34 38 -10 -30 hvcurveto
          hintmask 10100001
          -40 -89 0 -70 vhcurveto
          -21 -42 42 hlineto
          116 142 0 82 51 -53 31 -55 hvcurveto
          -1 24 rlineto
          146 7 62 102 103 vvcurveto
          endchar
        </CharString>
        <CharString name="Scircumflex">
          -158 -12 8 callgsubr
          53 -21 165 -20 116 callsubr
          hintmask 1111001110000000
          562 200 rmoveto
          -100 callsubr
          rrcurveto
          -46 58 82 -13 60 hhcurveto
          156 66 106 106 hvcurveto
          hintmask 0000110000000000
          -75 554 -51 callsubr
        </CharString>
        <CharString name="Sdotbelow">
          -158 14 callsubr
          44 8 callgsubr
          hstemhm
          62 90 88 145 -45 90 42 90 hintmask 0111110110000000
          562 200 rmoveto
          -100 callsubr
          rrcurveto
          -46 58 82 -13 60 hhcurveto
          156 66 106 106 hvcurveto
          hintmask 1000001000000000
          -177 -328 -100 callgsubr
        </CharString>
        <CharString name="Sigma">
          30 0 60 583 43 hstem
          62 687 vstem
          749 254 rmoveto
          -42 hlineto
          -173 -20 -98 -21 -142 hhcurveto
          -276 hlineto
          289 266 rlineto
          8 8 3 2 7 vvcurveto
          3 0 2 -8 10 vhcurveto
          -225 285 rlineto
          213 hlineto
          145 90 -25 -169 21 hvcurveto
          42 hlineto
          -29 237 rlineto
          -629 hlineto
          -28 -1 -4 -28 hvcurveto
          289 -366 -278 -256 rlineto
          -4 -4 -7 -7 -6 vvcurveto
          -15 16 0 13 vhcurveto
          629 hlineto
          endchar
        </CharString>
        <CharString name="T">
          105 callsubr
          hstem
          48 callgsubr
          vstem
          -77 callgsubr
          endchar
        </CharString>
        <CharString name="T_uni0303">
          105 callsubr
          53 69 -32 69 hstemhm
          48 callgsubr
          hintmask 11001100
          -77 callgsubr
          hintmask 00010000
          -120 374 -92 callsubr
        </CharString>
        <CharString name="T_uni0308">
          105 callsubr
          53 130 hstemhm
          185 117 callgsubr
          11 132 hintmask 11001010
          -77 callgsubr
          hintmask 00110100
          -383 355 -77 callsubr
        </CharString>
        <CharString name="Tau">
          105 callsubr
          hstem
          48 callgsubr
          vstem
          -77 callgsubr
          endchar
        </CharString>
        <CharString name="Tcaron">
          105 callsubr
          74 118 callsubr
          48 callgsubr
          hintmask 11001100
          -77 callgsubr
          hintmask 00110000
          -132 431 -58 callsubr
        </CharString>
        <CharString name="Tcedilla">
          -1 -200 42 80 42 36 43 591 43 hstemhm
          325 132 -108 84 -12 120 67 132 hintmask 00111000
          740 440 rmoveto
          -20 237 rlineto
          -659 hlineto
          -20 -237 rlineto
          42 hlineto
          109 9 8 85 144 hhcurveto
          81 -591 -151 -43 hlineto
          hintmask 01000100
          175 2 rlineto
          -80 vlineto
          hintmask 10000010
          -14 callsubr
          hvcurveto
          hintmask 01100101
          51 -53 31 -55 vhcurveto
          38 vlineto
          175 -2 rlineto
          43 vlineto
          hintmask 00111001
          -151 591 80 hlineto
          144 8 -84 -110 9 hvcurveto
          endchar
        </CharString>
        <CharString name="Tdotbelow">
          -1 88 callsubr
          591 43 hstemhm
          319 145 -139 132 151 132 hintmask 01101100
          -77 callgsubr
          hintmask 10010000
          -234 -568 -100 callgsubr
        </CharString>
        <CharString name="Theta">
          92 -12 35 265 112 265 33 hstem
          62 132 63 42 276 42 63 132 vstem
          812 340 rmoveto
          208 -139 150 -236 -236 -139 -151 -207 -206 140 -146 235 236 139 147 205 vhcurveto
          -132 hmoveto
          -59 -4 -90 -48 -71 vhcurveto
          -71 -47 -77 -26 -67 hhcurveto
          -82 -62 37 42 -35 hvcurveto
          -57 72 -7 92 74 vvcurveto
          88 11 75 42 65 vhcurveto
          61 40 72 36 78 hhcurveto
          85 69 -41 -57 36 hvcurveto
          37 -57 16 -68 -102 vvcurveto
          -63 -86 rmoveto
          180 -42 -34 -276 34 -42 -180 42 34 276 -34 vlineto
          endchar
        </CharString>
        <CharString name="Thorn">
          -76 -1 44 135 43 298 43 81 44 hstem
          145 123 239 136 vstem
          643 370 rmoveto
          54 -25 138 -221 vhcurveto
          -129 81 106 44 hlineto
          -167 -3 -168 3 rlineto
          -44 106 -600 -106 -44 vlineto
          167 3 168 -3 rlineto
          44 -106 135 132 vlineto
          204 39 124 68 hvcurveto
          -136 1 rmoveto
          -150 -119 0 -24 vhcurveto
          -96 298 109 hlineto
          24 42 0 -39 31 hvcurveto
          33 -41 0 -58 -10 vvcurveto
          endchar
        </CharString>
        <CharString name="Tlinebelow">
          -1 -152 48 104 43 591 43 hstemhm
          48 callgsubr
          hintmask 01111000
          -77 callgsubr
          hintmask 10000000
          -104 -592 -30 callgsubr
        </CharString>
        <CharString name="U">
          14 callgsubr
          hstem
          -17 callsubr
          398 46 vstem
          -105 callsubr
          endchar
        </CharString>
        <CharString name="U_uni032F">
          82 -199 145 callsubr
          24 43 612 43 -26 callgsubr
          398 46 hintmask 00111100
          -105 callsubr
          hintmask 11000000
          -172 -863 -50 callsubr
        </CharString>
        <CharString name="Uacute">
          14 callgsubr
          75 -21 168 -20 -26 callgsubr
          398 46 hintmask 11001100
          -105 callsubr
          hintmask 00110000
          -193 195 -104 callgsubr
        </CharString>
        <CharString name="Ubreve">
          14 callgsubr
          54 58 126 -20 -26 callgsubr
          398 46 hintmask 11001100
          -105 callsubr
          hintmask 00110000
          -172 281 -101 callsubr
          endchar
        </CharString>
        <CharString name="Ucaron">
          14 callgsubr
          95 callsubr
          398 46 hintmask 11001100
          -105 callsubr
          hintmask 00110000
          -170 228 -58 callsubr
        </CharString>
        <CharString name="Ucircumflex">
          14 callgsubr
          95 callsubr
          398 46 hintmask 11001100
          -105 callsubr
          hintmask 00110000
          -170 111 -51 callsubr
        </CharString>
        <CharString name="Udblgrave">
          14 callgsubr
          75 -21 193 -20 -26 callgsubr
          398 46 hintmask 11001100
          -105 callsubr
          hintmask 00110000
          -201 119 -94 callsubr
        </CharString>
        <CharString name="Udieresis">
          14 callgsubr
          44 130 -26 callgsubr
          -24 34 callgsubr
          10 46 hintmask 11010010
          826 643 58 callgsubr
          -23 -78 0 -28 hhcurveto
          -28 -78 0 2 -23 hvcurveto
          -43 23 vlineto
          27 2 0 -3 24 hvcurveto
          29 -4 1 -1 -22 vvcurveto
          -381 vlineto
          -143 -101 -58 -118 -175 -4 134 58 vhcurveto
          420 vlineto
          hintmask 01001000
          106 43 hlineto
          -2 -29 -107 0 -36 hhcurveto
          -36 -107 0 2 -29 hvcurveto
          -43 vlineto
          hintmask 11010010
          106 -413 hlineto
          -132 106 -110 201 185 84 115 126 vhcurveto
          384 vlineto
          22 1 1 26 4 vhcurveto
          2 18 20 1 18 hhcurveto
          hintmask 00101100
          -421 23 callgsubr
        </CharString>
        <CharString name="Udieresisacute">
          14 callgsubr
          44 130 75 -21 168 -73 callgsubr
          -54 217 -104 callgsubr
        </CharString>
        <CharString name="Udieresiscaron">
          14 callgsubr
          44 130 65 -21 165 -73 callgsubr
          -31 250 -58 callsubr
        </CharString>
        <CharString name="Udieresisgrave">
          14 callgsubr
          44 130 75 -21 168 -73 callgsubr
          -129 156 -75 callsubr
        </CharString>
        <CharString name="Udotbelow">
          82 14 callsubr
          44 43 612 43 -26 callgsubr
          110 145 143 46 hintmask 01110100
          -105 callsubr
          hintmask 10001000
          -272 -771 -100 callgsubr
        </CharString>
        <CharString name="Ugrave">
          14 callgsubr
          75 -21 168 -20 -26 callgsubr
          398 46 hintmask 11001100
          -105 callsubr
          hintmask 00110000
          -268 134 -75 callsubr
        </CharString>
        <CharString name="Uhookabove">
          14 callgsubr
          87 callgsubr
          144 132 398 46 hintmask 11001100
          -105 callsubr
          hintmask 00110000
          -235 233 -107 callgsubr
        </CharString>
        <CharString name="Uhorn">
          43 callsubr
          133 -20 hstemhm
          98 callsubr
          -46 46 398 46 8 134 hintmask 0101100110000000
          861 737 rmoveto
          43 -27 39 -40 -44 -23 -33 -33 -34 23 -33 44 vhcurveto
          9 hlineto
          -18 -26 -31 -18 -35 -5 rrcurveto
          49 vlineto
          hintmask 0010000000000000
          -2 -7 -8 0 -8 hhcurveto
          hintmask 1001001100000000
          -55 callsubr
          hintmask 0010000000000000
          -172 -2 rlineto
          hintmask 0001010000000000
          -172 2 rlineto
          -43 106 -414 vlineto
          hintmask 1100001110000000
          -39 callgsubr
          endchar
        </CharString>
        <CharString name="Uhornacute">
          43 callsubr
          75 -21 79 -20 109 -71 callgsubr
          -282 101 -104 callgsubr
        </CharString>
        <CharString name="Uhorndotbelow">
          81 14 callsubr
          44 66 callsubr
          133 -20 hstemhm
          98 callsubr
          -46 46 85 145 168 46 8 134 hintmask 0010110001100000
          861 737 rmoveto
          43 -27 39 -40 -44 -23 -33 -33 -34 23 -33 44 vhcurveto
          9 hlineto
          -18 -26 -31 -18 -35 -5 rrcurveto
          49 vlineto
          hintmask 0001000000000000
          -2 -7 -8 0 -8 hhcurveto
          hintmask 0100100101000000
          -55 callsubr
          hintmask 0001000000000000
          -172 -2 rlineto
          hintmask 0000101000000000
          -172 2 rlineto
          -43 106 -414 vlineto
          hintmask 0110000101100000
          -39 callgsubr
          hintmask 1000000010000000
          -356 -865 -100 callgsubr
        </CharString>
        <CharString name="Uhorngrave">
          43 callsubr
          75 -21 79 -20 109 -71 callgsubr
          -326 40 -75 callsubr
        </CharString>
        <CharString name="Uhornhookabove">
          43 callsubr
          77 -21 77 -20 141 -71 callgsubr
          -293 139 -107 callgsubr
        </CharString>
        <CharString name="Uhorntilde">
          43 callsubr
          44 69 -32 69 hstemhm
          98 callsubr
          -46 46 398 46 8 134 hintmask 0101000011000000
          861 737 rmoveto
          43 -27 39 -40 -44 -23 -33 -33 -34 23 -33 44 vhcurveto
          9 hlineto
          -18 -26 -31 -18 -35 -5 rrcurveto
          49 vlineto
          hintmask 0010000000000000
          -2 -7 -8 0 -8 hhcurveto
          hintmask 1001000110000000
          -55 callsubr
          hintmask 0010000000000000
          -172 -2 rlineto
          hintmask 0001001000000000
          -172 2 rlineto
          -43 106 -414 vlineto
          hintmask 1100000111000000
          -39 callgsubr
          hintmask 0000010000000000
          -216 77 22 callgsubr
          hintmask 0000100000000000
          -82 callsubr
          hintmask 0000010000000000
          -88 callgsubr
          hintmask 0000100000000000
          24 -22 rlineto
          hintmask 0000010000000000
          -82 callgsubr
          hintmask 0000100000000000
          -84 callgsubr
        </CharString>
        <CharString name="Uhungarumlaut">
          14 callgsubr
          75 -21 193 -20 -26 callgsubr
          398 46 hintmask 11001100
          -105 callsubr
          hintmask 00110000
          -334 233 -75 callgsubr
        </CharString>
        <CharString name="Umacron">
          14 callgsubr
          64 48 -26 callgsubr
          398 46 hintmask 11011000
          -105 callsubr
          hintmask 00100000
          -142 107 -30 callgsubr
        </CharString>
        <CharString name="Uogonek">
          82 -206 70 83 43 -2 43 612 43 -26 callgsubr
          88 46 264 46 hintmask 00111010
          826 643 58 callgsubr
          -23 -78 0 -28 hhcurveto
          -28 -78 0 2 -23 hvcurveto
          -43 23 vlineto
          27 2 0 -3 24 hvcurveto
          29 -4 1 -1 -22 vvcurveto
          -381 vlineto
          -143 -101 -58 -118 -175 -4 134 58 vhcurveto
          420 106 43 vlineto
          -2 -29 -107 0 -36 hhcurveto
          -36 -107 45 callsubr
          -413 vlineto
          hintmask 11010110
          -123 92 -103 174 -14 vhcurveto
          -25 -27 -21 -34 -30 -36 callsubr
          -28 40 43 16 hvcurveto
          6 17 10 15 14 11 rrcurveto
          158 15 72 107 117 vvcurveto
          384 vlineto
          22 1 1 26 4 vhcurveto
          2 18 20 1 18 hhcurveto
          endchar
        </CharString>
        <CharString name="Upsilon">
          92 0 43 466 43 40 106 hstem
          62 49 260 132 260 49 cntrmask 00011100
          812 554 rmoveto
          62 -53 82 -95 -92 -94 -64 -165 -41 vhcurveto
          -1 hlineto
          169 -41 -96 60 -89 hhcurveto
          -95 -53 -82 -62 -20 10 0 13 17 4 2 17 2 hvcurveto
          23 3 19 16 70 hhcurveto
          28 61 0 -83 45 hvcurveto
          29 -53 8 -68 -42 vvcurveto
          -303 -133 -43 vlineto
          199 2 199 -2 rlineto
          43 -133 303 vlineto
          15 0 87 43 70 vhcurveto
          74 44 58 0 26 hhcurveto
          77 12 -20 -20 3 hvcurveto
          -16 2 4 -2 17 hhcurveto
          13 10 0 20 hvcurveto
          endchar
        </CharString>
        <CharString name="Uring">
          14 callgsubr
          14 39 90 39 -26 callgsubr
          67 50 130 50 101 46 hintmask 11001001
          -105 callsubr
          hintmask 00110110
          -280 141 -53 callgsubr
        </CharString>
        <CharString name="Utilde">
          14 callgsubr
          44 116 callgsubr
          398 46 hintmask 11001100
          -105 callsubr
          hintmask 00010000
          -158 171 -92 callsubr
        </CharString>
        <CharString name="V">
          67 12 -21 652 43 hstem
          825 643 58 callgsubr
          -31 -72 0 -8 hhcurveto
          -28 -71 0 2 -23 hvcurveto
          -43 vlineto
          22 37 0 -11 28 hvcurveto
          -5 -14 -205 -468 -216 493 rlineto
          93 43 hlineto
          -2 -32 -96 0 -38 hhcurveto
          -32 -99 0 2 -25 hvcurveto
          -43 90 vlineto
          276 -631 rlineto
          -20 9 9 -1 16 hhcurveto
          16 10 0 21 9 hvcurveto
          265 608 rlineto
          13 6 4 10 74 hhcurveto
          endchar
        </CharString>
        <CharString name="W">
          379 12 -21 652 43 hstem
          -87 callgsubr
          endchar
        </CharString>
        <CharString name="Wacute">
          379 12 -21 652 43 75 -21 168 -20 hstemhm
          hintmask 11000000
          -87 callgsubr
          hintmask 00110000
          -406 195 -104 callgsubr
        </CharString>
        <CharString name="Wcircumflex">
          379 12 -21 652 43 53 callgsubr
          hintmask 11000000
          -87 callgsubr
          hintmask 00110000
          -383 111 -51 callsubr
        </CharString>
        <CharString name="Wdieresis">
          379 12 -21 652 43 44 130 hstemhm
          375 34 callgsubr
          hintmask 11010000
          -87 callgsubr
          hintmask 00111000
          -634 23 callgsubr
        </CharString>
        <CharString name="Wgrave">
          379 12 -21 652 43 75 -21 168 -20 hstemhm
          hintmask 11000000
          -87 callgsubr
          hintmask 00110000
          -481 134 -75 callsubr
        </CharString>
        <CharString name="X">
          -38 callsubr
        </CharString>
        <CharString name="Xi">
          -33 0 104 97 -20 87 -21 53 104 53 -20 71 -21 86 104 hstemhm
          47 42 -36 42 61 42 353 42 61 42 -36 42 hintmask 0000011010010000
          696 487 rmoveto
          -9 190 rlineto
          -625 hlineto
          -9 -190 rlineto
          42 hlineto
          1 19 1 45 12 14 rrcurveto
          7 8 74 0 0 vvcurveto
          369 hlineto
          11 65 0 -9 6 hvcurveto
          4 -7 7 -11 2 -59 rrcurveto
          48 -286 rmoveto
          hintmask 1111100101101000
          -42 hlineto
          -3 -44 -1 -33 -10 -11 rrcurveto
          -9 -9 -67 0 -9 hhcurveto
          -373 hlineto
          -26 -53 0 12 -7 hvcurveto
          -9 13 -1 28 -3 44 rrcurveto
          -42 hlineto
          9 -201 rlineto
          637 hlineto
          -100 247 rmoveto
          210 -42 -53 -353 53 -42 -210 42 53 353 -53 vlineto
          endchar
        </CharString>
        <CharString name="Y">
          67 107 callgsubr
          361 127 vstem
          -90 callgsubr
          endchar
        </CharString>
        <CharString name="Yacute">
          67 10 callsubr
          75 -21 168 -20 hstemhm
          361 127 hintmask 11001000
          -90 callgsubr
          hintmask 00110000
          -237 195 -104 callgsubr
        </CharString>
        <CharString name="Ycircumflex">
          67 10 callsubr
          53 callgsubr
          361 127 hintmask 11001000
          -90 callgsubr
          hintmask 00110000
          -214 111 -51 callsubr
        </CharString>
        <CharString name="Ydieresis">
          67 10 callsubr
          44 130 hstemhm
          219 130 12 127 13 130 hintmask 11001000
          -90 callgsubr
          hintmask 00110100
          -465 23 callgsubr
        </CharString>
        <CharString name="Ydotbelow">
          67 20 callgsubr
          hstemhm
          353 145 -137 127 hintmask 01101000
          -90 callgsubr
          hintmask 10010000
          -316 -771 -100 callgsubr
        </CharString>
        <CharString name="Ygrave">
          67 10 callsubr
          75 -21 168 -20 hstemhm
          361 127 hintmask 11001000
          -90 callgsubr
          hintmask 00110000
          -312 134 -75 callsubr
        </CharString>
        <CharString name="Yhookabove">
          67 10 callsubr
          87 callgsubr
          361 127 hintmask 11001000
          -90 callgsubr
          hintmask 00110000
          -279 233 -107 callgsubr
        </CharString>
        <CharString name="Ytilde">
          67 10 callsubr
          44 69 -32 69 hstemhm
          361 127 hintmask 11001000
          -90 callgsubr
          hintmask 00010000
          -202 171 -92 callsubr
        </CharString>
        <CharString name="Z">
          66 callgsubr
          hstemhm
          62 568 hintmask 11000000
          -52 callsubr
          hintmask 10110000
          -35 callsubr
          endchar
        </CharString>
        <CharString name="Zacute">
          66 callgsubr
          75 -21 168 -20 hstemhm
          62 568 hintmask 11000000
          -52 callsubr
          hintmask 10100100
          -35 callsubr
          hintmask 00011000
          -117 838 -104 callgsubr
        </CharString>
        <CharString name="Zcaron">
          66 callgsubr
          53 callgsubr
          62 568 hintmask 11000000
          -52 callsubr
          hintmask 10100100
          -35 callsubr
          hintmask 00011000
          -94 871 -58 callsubr
        </CharString>
        <CharString name="Zdotaccent">
          66 callgsubr
          56 144 hstemhm
          62 568 -358 145 hintmask 11000000
          -52 callsubr
          hintmask 10101000
          -35 callsubr
          hintmask 00010100
          -196 814 -100 callgsubr
        </CharString>
        <CharString name="Zdotbelow">
          -95 16 callgsubr
          46 594 46 -43 43 hstemhm
          62 568 -358 145 hintmask 01100000
          -52 callsubr
          hintmask 01011000
          -35 callsubr
          hintmask 10000100
          -196 -128 -100 callgsubr
        </CharString>
        <CharString name="Zeta">
          66 callgsubr
          hstemhm
          62 568 hintmask 11000000
          -52 callsubr
          hintmask 10110000
          -35 callsubr
          endchar
        </CharString>
        <CharString name="a">
          -34 callgsubr
          -6 callsubr
          hintmask 10111000
          -106 callsubr
          hintmask 01011000
          -93 callgsubr
          endchar
        </CharString>
        <CharString name="aacute">
          -34 callgsubr
          79 -21 193 -103 callsubr
          70 411 -91 callsubr
        </CharString>
        <CharString name="abreve">
          -34 callgsubr
          63 58 126 -103 callsubr
          100 467 -101 callsubr
          endchar
        </CharString>
        <CharString name="abreveacute">
          -34 callgsubr
          63 58 329 -103 callsubr
          100 467 -101 callsubr
          -59 133 -104 callgsubr
        </CharString>
        <CharString name="abrevedotbelow">
          63 callsubr
          63 58 126 -20 112 callsubr
          61 145 0 109 hintmask 0101001010000000
          -106 callsubr
          hintmask 0010111010000000
          -93 callgsubr
          100 467 -101 callsubr
          hintmask 1000000100000000
          -100 -828 -100 callgsubr
        </CharString>
        <CharString name="abrevegrave">
          -34 callgsubr
          63 58 126 -103 callsubr
          100 467 -101 callsubr
          -57 72 rmoveto
          -21 -37 -163 56 -14 5 -25 9 -5 28 rlinecurve
          36 -9 27 34 36 hhcurveto
          18 14 -12 -5 7 hvcurveto
          endchar
        </CharString>
        <CharString name="abrevehookabove">
          -34 callgsubr
          63 58 251 58 30 -20 -6 callsubr
          hintmask 10100011
          -106 callsubr
          hintmask 01000011
          -93 callgsubr
          hintmask 00011100
          100 467 -101 callsubr
          -63 149 -107 callgsubr
        </CharString>
        <CharString name="abrevetilde">
          -34 callgsubr
          63 58 181 69 -32 69 -6 callsubr
          hintmask 10100011
          -106 callsubr
          hintmask 01000011
          -93 callgsubr
          hintmask 00010100
          100 467 -101 callsubr
          14 139 22 callgsubr
          hintmask 00001000
          -82 callsubr
          hintmask 00000100
          -88 callgsubr
          hintmask 00001000
          24 -22 rlineto
          hintmask 00000100
          -82 callgsubr
          hintmask 00001000
          -84 callgsubr
        </CharString>
        <CharString name="acaron">
          -34 callgsubr
          72 -21 207 -103 callsubr
          104 456 -52 callgsubr
        </CharString>
        <CharString name="acircumflex">
          -34 callgsubr
          72 -21 207 -103 callsubr
          104 293 -62 callgsubr
          endchar
        </CharString>
        <CharString name="acircumflexacute">
          -34 callgsubr
          72 -21 368 -103 callsubr
          102 295 -94 callgsubr
          -46 298 -104 callgsubr
        </CharString>
        <CharString name="acircumflexdotbelow">
          63 callsubr
          72 -21 207 -20 112 callsubr
          61 145 0 109 hintmask 0101001010000000
          -106 callsubr
          hintmask 0010111010000000
          -93 callgsubr
          104 293 -62 callgsubr
          hintmask 1000000100000000
          -84 -632 -100 callgsubr
        </CharString>
        <CharString name="acircumflexgrave">
          -34 callgsubr
          72 -21 165 -103 callsubr
          102 295 -69 callsubr
        </CharString>
        <CharString name="acircumflexhookabove">
          -34 callgsubr
          72 -21 378 -103 callsubr
          102 295 -94 callgsubr
          60 314 -107 callgsubr
        </CharString>
        <CharString name="acircumflextilde">
          -34 callgsubr
          72 -21 220 69 -32 69 -6 callsubr
          hintmask 10100011
          -106 callsubr
          hintmask 01000011
          -93 callgsubr
          hintmask 00010100
          102 295 -94 callgsubr
          28 304 22 callgsubr
          hintmask 00001000
          -82 callsubr
          hintmask 00000100
          -88 callgsubr
          hintmask 00001000
          24 -22 rlineto
          hintmask 00000100
          -82 callgsubr
          hintmask 00001000
          -84 callgsubr
        </CharString>
        <CharString name="acute">
          532 54 callgsubr
          hstem
          424 644 -91 callsubr
        </CharString>
        <CharString name="acute.cap">
          519 -21 168 -20 hstem
          433 596 -104 callgsubr
        </CharString>
        <CharString name="acute.dup">
          532 54 callgsubr
          hstem
          424 644 -91 callsubr
        </CharString>
        <CharString name="acute.ts1">
          -221 535 -21 190 -20 hstem
          447 645 rmoveto
          30 -27 29 -30 vhcurveto
          -4 hlineto
          -24 -1 -14 -18 -14 -17 -28 -35 -31 -35 -28 -36 rrcurveto
          -4 -4 -8 -8 -5 vvcurveto
          -6 21 -25 6 10 21 16 7 14 vhcurveto
          88 49 rlineto
          23 13 29 13 33 vvcurveto
          endchar
        </CharString>
        <CharString name="adblgrave">
          -34 callgsubr
          79 -21 193 -103 callsubr
          71 300 -94 callsubr
        </CharString>
        <CharString name="adieresis">
          -34 callgsubr
          90 130 112 callsubr
          -51 20 callsubr
          -111 109 hintmask 10101001
          -106 callsubr
          hintmask 01001001
          -93 callgsubr
          hintmask 00010110
          -127 375 -61 callgsubr
        </CharString>
        <CharString name="adotbelow">
          63 callsubr
          112 callsubr
          61 145 0 109 hintmask 01011010
          -106 callsubr
          hintmask 00101010
          -93 callgsubr
          hintmask 10000100
          -361 vmoveto
          -96 callgsubr
          endchar
        </CharString>
        <CharString name="ae">
          -81 callgsubr
          endchar
        </CharString>
        <CharString name="ae.dup">
          -81 callgsubr
          endchar
        </CharString>
        <CharString name="aeacute">
          -81 callgsubr
          hintmask 11100000
          179 519 -91 callsubr
        </CharString>
        <CharString name="agrave">
          -34 callgsubr
          79 -21 193 -103 callsubr
          -1 311 -64 callgsubr
        </CharString>
        <CharString name="ahookabove">
          -34 callgsubr
          77 -21 198 -103 callsubr
          37 410 -107 callgsubr
        </CharString>
        <CharString name="amacron">
          -34 callgsubr
          131 48 -6 callsubr
          hintmask 10101100
          -106 callsubr
          hintmask 01001100
          -93 callgsubr
          hintmask 00010000
          130 351 -30 callgsubr
        </CharString>
        <CharString name="ampersand">
          92 -12 43 352 33 -15 43 229 33 hstemhm
          47 120 3 42 194 42 -2 42 187 42 53 42 hintmask 0010000110000000
          818 401 rmoveto
          43 vlineto
          -101 -2 rlineto
          -27 -64 0 2 -24 hvcurveto
          -43 vlineto
          9 64 0 -12 -3 -4 -6 -2 -3 hvcurveto
          -65 -96 -35 -52 -37 -48 -44 -44 rlinecurve
          hintmask 1101111000000000
          -23 24 -109 118 -45 104 rrcurveto
          64 60 73 69 64 vvcurveto
          55 -31 75 -74 -78 -95 -60 -117 -60 15 -66 27 -65 vhcurveto
          -88 -80 rlineto
          -48 -42 -29 -26 -54 vvcurveto
          -88 90 -60 114 vhcurveto
          hintmask 1100000101000000
          83 65 33 32 47 hvcurveto
          -18 30 77 -47 99 hhcurveto
          81 77 47 83 2 hvcurveto
          -42 hlineto
          -75 -4 -82 -12 -27 hhcurveto
          -55 -45 40 38 -43 hvcurveto
          64 65 22 28 87 130 34 51 rcurveline
          hintmask 0010000000000000
          18 13 40 0 44 hhcurveto
          -412 176 rmoveto
          -12 0 -28 -44 -53 vhcurveto
          hintmask 1101101000000000
          0 -34 -42 -30 -26 vhcurveto
          -30 78 0 68 9 vvcurveto
          55 32 47 45 50 11 -71 -25 vhcurveto
          6 -499 rmoveto
          -45 -66 -67 -2 -16 hhcurveto
          -82 -14 101 40 87 42 33 18 14 hvcurveto
          70 -133 79 -69 36 -26 rrcurveto
          endchar
        </CharString>
        <CharString name="anglearc">
          92 -105 -21 752 -20 hstem
          619 56 vstem
          812 28 rmoveto
          12 -8 11 -11 4 vhcurveto
          -138 44 rlineto
          13 49 7 51 51 vvcurveto
          51 -7 51 -13 49 vhcurveto
          138 44 rlineto
          11 4 8 11 12 vvcurveto
          19 -18 13 -19 -5 vhcurveto
          -137 -44 -21 57 -31 55 -39 48 rlinecurve
          7 -5 -8 4 -8 hhcurveto
          -16 -12 -13 -15 -7 2 -6 4 -4 hvcurveto
          34 -44 28 -48 19 -51 -504 -161 rcurveline
          -11 -4 -8 -11 -12 vvcurveto
          -12 8 -11 11 -4 vhcurveto
          504 -161 -19 -51 -28 -48 -34 -44 rlinecurve
          -4 -4 -2 -6 -7 vvcurveto
          -15 12 -13 16 8 8 4 7 5 vhcurveto
          39 48 31 55 21 57 137 -44 rcurveline
          19 -5 18 13 19 vvcurveto
          -193 222 rmoveto
          -46 -6 -45 -11 -43 vhcurveto
          -420 134 420 134 rlineto
          11 -43 6 -45 -46 vvcurveto
          endchar
        </CharString>
        <CharString name="angleleft">
          113 callgsubr
          374 -224 rmoveto
          12 -7 12 -4 11 vhcurveto
          -171 415 rlineto
          -3 7 -7 10 8 vvcurveto
          3 3 4 1 4 vhcurveto
          8 20 162 392 rlineto
          7 15 11 18 17 vvcurveto
          14 -12 13 -15 vhcurveto
          hintmask 11000000
          -6 -1 -20 -4 -5 -25 -7 -16 rlinecurve
          -58 -140 -116 -282 rlineto
          -4 -10 -7 -12 -11 vvcurveto
          -10 6 -11 4 -9 vhcurveto
          21 -51 153 -370 7 -18 6 -30 25 -1 rlinecurve
          6 6 2 3 5 hvcurveto
          6 6 rlineto
          3 5 2 5 5 vvcurveto
          endchar
        </CharString>
        <CharString name="angleright">
          113 callgsubr
          312 251 rmoveto
          10 -6 11 -4 9 vhcurveto
          -174 422 rlineto
          18 -7 -8 30 -23 hhcurveto
          hintmask 11000000
          -6 -1 rlineto
          -12 -10 -15 -10 -9 5 -10 3 -9 hvcurveto
          59 -140 53 -141 62 -139 7 -17 rcurveline
          1 -3 2 -3 -4 vvcurveto
          -3 -2 -4 -2 -3 vhcurveto
          -8 -20 -161 -391 rlineto
          -6 -15 -13 -20 -16 vvcurveto
          -15 11 -13 16 vhcurveto
          2 hlineto
          22 1 6 26 7 17 149 361 rcurveline
          26 63 rlineto
          4 10 7 12 11 vvcurveto
          endchar
        </CharString>
        <CharString name="aogonek">
          101 callsubr
          -6 callsubr
          hintmask 00011110
          541 22 rmoveto
          21 -9 0 -14 vhcurveto
          -63 1 0 16 23 vvcurveto
          216 vlineto
          92 -73 62 -141 -56 -118 -5 -84 -42 32 -18 27 30 29 21 38 19 -7 18 -17 11 vhcurveto
          9 33 24 0 19 hhcurveto
          68 41 -38 -82 hvcurveto
          -40 vlineto
          -158 -159 -44 -111 hvcurveto
          hintmask 11000000
          -91 116 -20 69 77 49 42 44 20 vhcurveto
          -25 0 -27 30 -15 vhcurveto
          -35 -29 -36 -45 -40 -76 callsubr
          hintmask 00100110
          -47 -36 82 54 84 hvcurveto
          51 hlineto
          21 8 0 22 hvcurveto
          -195 117 rmoveto
          -94 -84 -18 -32 -49 -41 33 46 91 108 31 98 5 vhcurveto
          endchar
        </CharString>
        <CharString name="aogonekacute">
          101 callsubr
          79 -21 193 -20 -6 callsubr
          hintmask 0001100110000000
          541 22 rmoveto
          21 -9 0 -14 vhcurveto
          -63 1 0 16 23 vvcurveto
          216 vlineto
          92 -73 62 -141 -56 -118 -5 -84 -42 32 -18 27 30 29 21 38 19 -7 18 -17 11 vhcurveto
          9 33 24 0 19 hhcurveto
          68 41 -38 -82 hvcurveto
          -40 vlineto
          -158 -159 -44 -111 hvcurveto
          hintmask 1100000000000000
          -91 116 -20 69 77 49 42 44 20 vhcurveto
          -25 0 -27 30 -15 vhcurveto
          -35 -29 -36 -45 -40 -76 callsubr
          hintmask 0010000110000000
          -47 -36 82 54 84 hvcurveto
          51 hlineto
          21 8 0 22 hvcurveto
          -195 117 rmoveto
          -94 -84 -18 -32 -49 -41 33 46 91 108 31 98 5 vhcurveto
          hintmask 0000011000000000
          70 411 -91 callsubr
        </CharString>
        <CharString name="aring">
          -34 callgsubr
          70 39 90 39 112 callsubr
          19 50 130 50 -43 109 hintmask 1010010010000000
          -106 callsubr
          hintmask 0100010010000000
          -93 callgsubr
          hintmask 0001101100000000
          -7 374 -53 callgsubr
        </CharString>
        <CharString name="aringacute">
          -34 callgsubr
          70 39 90 39 203 -20 112 callsubr
          19 50 130 50 -43 109 hintmask 1010001001000000
          -106 callsubr
          hintmask 0100001001000000
          -93 callgsubr
          hintmask 0001110110000000
          -7 374 -80 callsubr
          -2 218 -104 callgsubr
        </CharString>
        <CharString name="asciicircum">
          -227 583 -21 123 59 hstem
          -5 566 vstem
          561 584 rmoveto
          -283 160 -283 -160 11 -22 271 123 272 -123 rlineto
          endchar
        </CharString>
        <CharString name="asciitilde">
          -227 193 43 -25 43 -8 43 -25 43 hstemhm
          hintmask 10010000
          555 290 44 callgsubr
          hintmask 01000000
          26 callgsubr
          hintmask 00100000
          20 10 20 11 17 14 rrcurveto
          endchar
        </CharString>
        <CharString name="asciitilde.low">
          -227 0 43 -25 43 -8 43 -25 43 hstemhm
          0 555 hintmask 10010000
          555 97 44 callgsubr
          hintmask 01001000
          26 callgsubr
          hintmask 00101000
          20 10 20 11 17 14 rrcurveto
          endchar
        </CharString>
        <CharString name="asterisk">
          327 -21 444 -20 hstem
          239 83 vstem
          489 439 rmoveto
          27 -19 7 -10 3 vhcurveto
          -145 52 144 52 rlineto
          13 5 17 6 26 vvcurveto
          25 -19 20 -23 -10 -1 -1 -11 -15 vhcurveto
          -124 -94 22 134 rlineto
          3 17 0 2 4 vvcurveto
          27 -26 10 -15 -18 -24 -11 -26 -4 0 -2 3 -17 vhcurveto
          22 -134 -124 94 rlineto
          11 -15 -1 1 -10 hhcurveto
          -23 -19 -20 -25 -27 19 -7 10 -3 hvcurveto
          145 -52 -144 -52 rlineto
          -13 -5 -17 -6 -26 vvcurveto
          -25 19 -20 23 10 1 1 11 15 vhcurveto
          124 94 -22 -134 rlineto
          -3 -17 0 -2 -4 vvcurveto
          -27 26 -10 15 18 24 11 26 7 -8 46 -4 26 vhcurveto
          -13 78 124 -94 rlineto
          -11 15 1 -1 10 hhcurveto
          23 19 20 25 hvcurveto
          endchar
        </CharString>
        <CharString name="asterisk.math">
          -221 51 -21 442 -20 hstem
          238 85 vstem
          489 163 rmoveto
          31 -29 5 -27 10 vhcurveto
          -38 14 -39 13 -38 15 45 18 50 21 44 11 rrcurveto
          18 7 14 10 21 vvcurveto
          23 -19 23 -24 -20 -21 -21 -13 -16 vhcurveto
          -30 -24 -32 -22 -29 -25 2 14 2 14 3 14 12 75 rcurveline
          2 13 4 12 13 vvcurveto
          25 -22 12 -21 -19 -23 -12 -23 -13 4 -18 3 -14 vhcurveto
          11 -69 2 -14 3 -15 2 -14 rlinecurve
          -38 33 -42 29 -39 30 rrcurveto
          8 -9 -8 5 -12 hhcurveto
          -24 -19 -23 -23 -31 29 -5 27 -10 hvcurveto
          38 -14 39 -13 38 -15 -45 -18 -50 -21 -44 -11 rrcurveto
          -18 -7 -14 -10 -21 vvcurveto
          -23 19 -23 24 20 21 21 13 16 vhcurveto
          30 24 32 22 29 25 -2 -14 -3 -15 -2 -14 -11 -69 rcurveline
          -3 -14 -4 -18 -13 vvcurveto
          -23 23 -12 19 20 23 12 24 11 -4 15 -2 13 vhcurveto
          -12 75 -3 14 -2 14 -2 14 rlinecurve
          38 -33 42 -29 39 -30 rrcurveto
          -8 9 8 -5 12 hhcurveto
          24 19 23 23 hvcurveto
          endchar
        </CharString>
        <CharString name="at">
          92 -6 33 102 33 370 33 102 33 hstemhm
          62 42 108 109 232 42 -42 109 -67 42 133 42 hintmask 1101100101000000
          812 77 rmoveto
          12 -10 0 -16 vhcurveto
          -24 hlineto
          -14 -2 0 -5 -12 hvcurveto
          -15 -39 -110 -42 -145 hhcurveto
          -225 -111 145 175 188 124 132 209 173 160 -96 -232 -90 -12 -87 -62 -34 0 48 12 hvcurveto
          231 vlineto
          hintmask 1111110011000000
          26 -1 0 -24 vhcurveto
          -42 hlineto
          55 -32 -59 31 -69 hhcurveto
          -128 -95 -82 -136 -137 96 -81 127 55 43 19 28 31 hvcurveto
          -47 33 74 0 15 hhcurveto
          41 38 17 59 25 hvcurveto
          22 56 0 70 14 vvcurveto
          216 -149 139 -226 -233 -142 -146 -207 -191 124 -162 255 97 125 16 54 134 vhcurveto
          8 3 7 2 8 vvcurveto
          -259 144 rmoveto
          -57 -41 -60 -2 -13 hhcurveto
          -61 -57 56 129 131 58 54 60 hvcurveto
          hintmask 0000001000000000
          13 60 -2 -57 41 hvcurveto
          endchar
        </CharString>
        <CharString name="atilde">
          -34 callgsubr
          102 69 -32 69 -104 callsubr
          hintmask 00001000
          114 406 -88 callsubr
        </CharString>
        <CharString name="b">
          -158 -6 33 372 51 -33 33 193 51 hstemhm
          104 104 258 120 hintmask 00100000
          128 callsubr
          vhcurveto
          hintmask 11011100
          -59 -47 -19 -32 -41 hvcurveto
          295 vlineto
          -173 -90 callsubr
          -604 42 vlineto
          17 callsubr
          hintmask 00100100
          102 callgsubr
        </CharString>
        <CharString name="backslash">
          -208 750 -20 hstem
          510 -219 rmoveto
          6 -1 1 -5 13 vhcurveto
          -377 919 rlineto
          17 -7 -5 13 -21 hhcurveto
          -14 -16 -11 -20 -6 1 -1 5 -13 hvcurveto
          377 -919 rlineto
          -15 6 6 -15 21 hhcurveto
          14 16 11 20 hvcurveto
          endchar
        </CharString>
        <CharString name="baht">
          17 0 43 297 33 270 43 hstemhm
          145 123 103 42 36 42 0 42 68 136 hintmask 11111011
          737 185 rmoveto
          95 -83 69 -121 9 vhcurveto
          144 27 28 82 47 vvcurveto
          92 -84 80 -160 vhcurveto
          -48 42 hlineto
          12 -10 9 -11 -12 -9 -9 -12 vhcurveto
          -42 -332 -43 106 42 callgsubr
          332 -42 vlineto
          -12 9 -9 12 11 10 9 12 vhcurveto
          42 78 vlineto
          165 81 89 96 hvcurveto
          -164 330 rmoveto
          -70 -39 -72 -117 vhcurveto
          -4 270 hlineto
          hintmask 11111101
          36 hlineto
          103 21 -78 -50 hvcurveto
          -202 -142 rmoveto
          -103 270 103 hlineto
          230 -456 rmoveto
          -63 -34 -81 -115 vhcurveto
          -39 297 54 hlineto
          117 17 -108 -45 hvcurveto
          -230 -144 rmoveto
          -103 297 103 hlineto
          endchar
        </CharString>
        <CharString name="bar">
          -464 750 -20 hstem
          129 61 vstem
          190 -206 rmoveto
          19 callgsubr
          endchar
        </CharString>
        <CharString name="bigcircle">
          -97 0 56 574 56 hstem
          0 56 574 -66 callgsubr
          endchar
        </CharString>
        <CharString name="blanksymbol">
          -158 520 33 0 51 0 33 hstemhm
          42 104 -42 104 258 120 cntrmask 11100000
          hintmask 11101000
          128 callsubr
          -59 -47 -19 -32 -41 vhcurveto
          154 vlineto
          99 84 92 callgsubr
          -71 -61 rlineto
          86 vlineto
          -173 -90 callsubr
          -84 vlineto
          hintmask 11110000
          -62 -52 rlineto
          -4 -4 -3 -6 -6 vvcurveto
          -12 9 -9 12 5 5 2 3 4 vhcurveto
          hintmask 11101000
          34 29 rlineto
          -465 vlineto
          hintmask 11110100
          42 hlineto
          17 callsubr
          102 callgsubr
        </CharString>
        <CharString name="braceleft">
          76 callsubr
          -232 rmoveto
          13 -5 4 -12 1 vhcurveto
          -84 5 -37 35 -12 36 rrcurveto
          -3 10 0 8 17 vvcurveto
          237 vlineto
          -1 42 -32 51 -86 23 rrcurveto
          119 32 0 69 45 vvcurveto
          210 vlineto
          22 0 29 39 29 vhcurveto
          11 7 29 18 52 3 rrcurveto
          14 1 8 0 17 vvcurveto
          18 -9 0 -22 -142 -90 -50 -77 -1 vhcurveto
          -206 vlineto
          -62 0 -21 -33 -29 vhcurveto
          -23 -21 -35 -14 -41 -2 rrcurveto
          -14 -1 -8 0 -17 vvcurveto
          -13 5 -4 12 -1 vhcurveto
          90 -5 36 -45 9 -36 rrcurveto
          2 -8 0 -2 -37 vvcurveto
          -210 vlineto
          -128 166 -11 67 22 9 0 18 vhcurveto
          endchar
        </CharString>
        <CharString name="braceright">
          76 callsubr
          250 rmoveto
          13 -5 4 -12 1 vhcurveto
          -64 3 -52 26 -17 55 rrcurveto
          -3 8 0 2 39 vvcurveto
          210 vlineto
          123 -152 16 -82 -21 -10 0 -18 -13 5 -4 12 -1 vhcurveto
          81 -4 41 -33 12 -39 rrcurveto
          3 -10 0 -8 -17 vvcurveto
          -237 vlineto
          1 -42 31 -50 87 -24 rrcurveto
          -119 -32 0 -68 -46 vvcurveto
          -210 vlineto
          -23 0 -26 -37 -29 vhcurveto
          -10 -7 -31 -20 -54 -3 rrcurveto
          -14 -1 -8 0 -17 vvcurveto
          -18 10 0 21 150 83 54 73 1 vhcurveto
          206 vlineto
          65 0 17 34 31 vhcurveto
          11 11 33 22 53 3 rrcurveto
          14 1 8 0 17 vvcurveto
          endchar
        </CharString>
        <CharString name="bracketleft">
          114 callgsubr
          287 -250 rmoveto
          55 -104 890 104 55 -159 -1000 vlineto
          endchar
        </CharString>
        <CharString name="bracketright">
          114 callgsubr
          183 -250 rmoveto
          1000 -159 -55 104 -890 -104 -55 vlineto
          endchar
        </CharString>
        <CharString name="breve">
          516 58 126 -20 hstem
          454 39 callsubr
          endchar
        </CharString>
        <CharString name="breve.cap">
          498 58 126 -20 hstem
          454 682 -101 callsubr
          endchar
        </CharString>
        <CharString name="breve.ts1">
          -96 511 58 126 -20 hstem
          108 33 404 33 vstem
          578 695 rmoveto
          -33 hlineto
          -97 -121 -29 -80 -84 -117 30 96 -2 vhcurveto
          -33 hlineto
          -113 117 -71 117 113 123 66 118 vhcurveto
          endchar
        </CharString>
        <CharString name="brokenbar">
          -464 750 -20 hstem
          129 61 vstem
          190 341 rmoveto
          365 vlineto
          14 0 30 -30 -31 0 -29 -15 vhcurveto
          -365 vlineto
          -14 15 -7 16 15 15 7 14 vhcurveto
          -547 vmoveto
          365 vlineto
          14 -15 7 -15 -16 -15 -7 -14 vhcurveto
          -365 29 callgsubr
          endchar
        </CharString>
        <CharString name="bullet">
          92 88 294 hstem
          291 294 62 callgsubr
          endchar
        </CharString>
        <CharString name="c">
          52 callsubr
          hstem
          38 120 179 118 vstem
          -71 callsubr
          endchar
        </CharString>
        <CharString name="cacute">
          52 callsubr
          28 callsubr
          38 120 179 118 hintmask 11001100
          -71 callsubr
          hintmask 00110000
          -50 527 -91 callsubr
        </CharString>
        <CharString name="caron">
          81 callgsubr
          458 689 -52 callgsubr
        </CharString>
        <CharString name="caron.cap">
          509 136 callgsubr
          hstem
          456 629 -58 callsubr
        </CharString>
        <CharString name="caron.ts1">
          -96 573 -21 162 -20 hstem
          556 676 rmoveto
          -20 38 -193 -85 -56 24 -137 61 -20 -38 213 -124 rlineto
          endchar
        </CharString>
        <CharString name="ccaron">
          52 callsubr
          72 -21 207 -20 hstemhm
          38 120 179 118 hintmask 11001100
          -71 callsubr
          hintmask 00110000
          -16 572 -52 callgsubr
        </CharString>
        <CharString name="ccedilla">
          52 callsubr
          hstemhm
          38 120 75 120 -48 120 -88 118 hintmask 11101000
          468 117 rmoveto
          12 -11 0 -10 -16 -1 -1 -12 -5 vhcurveto
          -19 -7 -27 -67 -92 hhcurveto
          -141 0 152 45 59 1 131 131 7 59 -2 -5 hvcurveto
          hintmask 00010000
          0 -1 -2 -2 -1 vhcurveto
          hintmask 01100100
          -3 -3 -13 -15 -25 vvcurveto
          -42 34 -17 25 21 38 13 47 82 -115 6 -54 -178 -70 -116 -115 vhcurveto
          hintmask 00010000
          -121 75 -86 120 -18 vhcurveto
          -75 vlineto
          hintmask 00001000
          -14 callsubr
          51 -53 31 -55 hvcurveto
          32 vlineto
          125 17 26 98 6 vvcurveto
          endchar
        </CharString>
        <CharString name="ccircumflex">
          52 callsubr
          72 -21 207 -20 hstemhm
          38 120 179 118 hintmask 11001100
          -71 callsubr
          hintmask 00110000
          -16 409 -62 callgsubr
          endchar
        </CharString>
        <CharString name="cdotaccent">
          52 callsubr
          83 144 hstemhm
          38 120 45 145 -11 118 hintmask 11010100
          -71 callsubr
          hintmask 00101000
          -120 491 -100 callgsubr
        </CharString>
        <CharString name="cedilla">
          7 callsubr
        </CharString>
        <CharString name="cedilla.dup">
          7 callsubr
        </CharString>
        <CharString name="cent">
          -283 -42 36 0 36 387 36 hstemhm
          38 120 96 42 41 118 hintmask 01111100
          468 117 rmoveto
          12 -11 0 -10 -16 -1 -1 -12 -5 vhcurveto
          -19 -7 -27 -67 -92 hhcurveto
          -3 387 hlineto
          17 -1 43 -2 -4 vvcurveto
          0 -1 -2 -2 -1 vhcurveto
          -3 -3 -13 -15 -25 vvcurveto
          -42 34 -17 25 21 38 13 47 77 -102 10 -57 1 vhcurveto
          33 vlineto
          12 -9 9 -12 -12 -9 -9 -12 vhcurveto
          -34 vlineto
          -154 -13 -62 -109 -108 vvcurveto
          -128 84 -89 132 -10 vhcurveto
          hintmask 10011000
          -37 vlineto
          -12 9 -9 12 12 9 9 12 vhcurveto
          36 vlineto
          143 8 29 108 7 vvcurveto
          -214 -81 rmoveto
          -96 29 0 122 40 vvcurveto
          53 1 111 95 22 vhcurveto
          endchar
        </CharString>
        <CharString name="cent.oldstyle">
          52 callsubr
          hstem
          180 118 -98 118 -98 118 cntrmask 00111000
          468 117 rmoveto
          12 -11 0 -10 -16 -1 -1 -12 -5 vhcurveto
          -19 -7 -27 -67 -92 hhcurveto
          -23 -20 4 7 -16 hvcurveto
          84 375 rlineto
          16 -2 16 -1 -3 vvcurveto
          0 -1 -2 -2 -1 vhcurveto
          -3 -3 -13 -15 -25 vvcurveto
          -42 34 -17 25 21 38 13 47 63 -68 18 -55 5 vhcurveto
          6 31 rlineto
          13 3 -10 12 -13 hhcurveto
          -10 -8 -7 -9 -2 hvcurveto
          -9 -38 rlineto
          -3 hlineto
          -178 -70 -116 -115 -106 57 -79 94 -30 hvcurveto
          -9 -44 rlineto
          -14 -3 10 -12 13 hhcurveto
          10 8 7 9 2 hvcurveto
          10 45 rlineto
          -3 16 17 -1 17 hhcurveto
          157 31 116 7 hvcurveto
          -187 300 rmoveto
          -78 -349 rlineto
          -45 48 0 80 31 vvcurveto
          58 1 126 122 6 vhcurveto
          endchar
        </CharString>
        <CharString name="centigrade">
          279 644 43 -43 55 -43 43 hstem
          312 141 cntrmask 11100000
          999 224 rmoveto
          6 vlineto
          9 -2 8 -13 vhcurveto
          -9 hlineto
          -13 -6 -4 -13 hvcurveto
          -7 vlineto
          -120 -18 -98 -71 -117 hhcurveto
          -93 -99 40 89 -45 hvcurveto
          -27 55 -6 69 59 vvcurveto
          62 6 68 29 57 vhcurveto
          86 45 99 39 94 hhcurveto
          112 89 -86 -107 21 hvcurveto
          3 -18 rlineto
          -11 3 3 -5 13 hhcurveto
          10 hlineto
          14 5 5 11 hvcurveto
          235 vlineto
          10 -2 10 -12 -16 -30 -36 -20 -20 vhcurveto
          -11 -11 rlineto
          -1 -2 -2 -2 -3 hhcurveto
          -4 -11 9 5 -5 hvcurveto
          35 -53 -59 21 -64 hhcurveto
          -7 -8 0 -1 -7 hvcurveto
          -86 -8 -76 -16 -71 -49 rrcurveto
          -92 -64 -46 -109 -109 vvcurveto
          -87 29 -87 59 -65 vhcurveto
          -83 77 119 -33 108 hhcurveto
          136 150 81 154 9 hvcurveto
          -749 338 rmoveto
          72 -48 53 -82 vhcurveto
          -9 hlineto
          -64 -8 -47 -48 -69 vvcurveto
          -72 48 -53 82 vhcurveto
          9 hlineto
          64 8 47 48 69 vvcurveto
          -55 2 rmoveto
          -42 -27 -30 -42 -37 -27 20 41 -7 vhcurveto
          7 vlineto
          42 27 30 42 37 27 -20 -41 7 vhcurveto
          endchar
        </CharString>
        <CharString name="circumflex">
          81 callgsubr
          458 526 -62 callgsubr
          endchar
        </CharString>
        <CharString name="circumflex.cap">
          509 136 callgsubr
          hstem
          456 512 -51 callsubr
        </CharString>
        <CharString name="circumflex.dup">
          81 callgsubr
          458 526 -62 callgsubr
          endchar
        </CharString>
        <CharString name="colon">
          -470 0 144 156 144 hstem
          84 144 vstem
          228 372 13 callgsubr
          -300 77 callgsubr
        </CharString>
        <CharString name="colonmonetary">
          5 callsubr
          hstem
          62 141 223 42 239 42 vstem
          749 228 rmoveto
          17 -6 1 -15 -10 -10 0 -11 -1 vhcurveto
          -152 -9 -129 -52 -90 hhcurveto
          -11 624 9 hlineto
          -48 callsubr
          23 0 2 24 hvcurveto
          218 vlineto
          23 0 3 -22 vhcurveto
          -75 -72 -53 45 -62 24 -69 3 rlinecurve
          30 vlineto
          12 -10 9 -11 -12 -9 -9 -12 vhcurveto
          -31 vlineto
          -222 -11 -142 -142 -201 vvcurveto
          -197 137 -145 227 -12 vhcurveto
          -31 vlineto
          -12 9 -9 12 11 10 9 12 vhcurveto
          30 vlineto
          171 5 110 120 115 vvcurveto
          -323 -193 rmoveto
          -55 8 -59 22 -42 47 rrcurveto
          -35 38 -32 55 138 vvcurveto
          98 15 73 47 56 vhcurveto
          46 54 64 20 51 7 rrcurveto
          endchar
        </CharString>
        <CharString name="comma">
          -470 -173 -21 194 144 hstem
          84 156 vstem
          240 24 rmoveto
          64 -30 56 -55 -44 -27 -33 -39 -36 25 -36 47 29 18 15 4 4 vhcurveto
          -1 -28 -5 -83 -82 -70 rrcurveto
          -7 -6 -2 -2 -5 vvcurveto
          -9 12 -10 6 13 99 84 134 vhcurveto
          endchar
        </CharString>
        <CharString name="copyleft">
          -97 0 56 574 56 hstem
          0 56 574 -66 callgsubr
          -109 hmoveto
          96 -71 67 -110 -34 -30 -11 -22 -26 vhcurveto
          -34 33 rlineto
          -10 0 -2 -10 hvcurveto
          -100 vlineto
          -11 0 -1 10 6 4 0 4 1 vhcurveto
          81 13 56 19 34 hhcurveto
          22 46 -5 -34 29 hvcurveto
          22 -26 7 -33 -45 vvcurveto
          -63 -15 -25 -16 -18 vhcurveto
          -29 -26 -40 -8 -30 hhcurveto
          -41 -59 24 70 -4 hvcurveto
          5 -1 -4 0 -5 hhcurveto
          -7 -2 -1 -8 -54 52 -56 82 112 69 69 94 hvcurveto
          endchar
        </CharString>
        <CharString name="copyright">
          -97 0 56 574 56 hstem
          0 56 574 -66 callgsubr
          -149 -53 rmoveto
          8 -3 1 -7 -5 -4 0 -5 -1 vhcurveto
          -70 -4 -59 -24 -41 hhcurveto
          -30 -40 8 29 -26 hvcurveto
          -16 18 -15 25 63 vvcurveto
          45 7 33 22 26 vhcurveto
          34 29 46 5 22 hhcurveto
          34 56 -19 -81 13 hvcurveto
          -4 1 4 0 6 hhcurveto
          11 0 1 11 hvcurveto
          100 vlineto
          10 0 2 -11 vhcurveto
          -34 -33 rlineto
          22 -26 -30 11 -34 hhcurveto
          -110 -70 -67 -96 -94 68 -69 112 82 53 56 54 hvcurveto
          endchar
        </CharString>
        <CharString name="copyright.alt">
          -9 -165 56 662 56 hstem
          0 56 662 56 vstem
          774 222 rmoveto
          238 -149 149 -238 -237 -150 -149 -238 -237 150 -150 237 238 149 150 237 vhcurveto
          -56 hmoveto
          -203 -128 -128 -203 -203 -128 128 203 203 128 128 203 203 128 -128 -203 vhcurveto
          -124 -74 rmoveto
          11 -4 0 -9 -7 -6 0 -7 -1 vhcurveto
          -98 -6 -83 -34 -59 hhcurveto
          -42 -57 12 41 -36 hvcurveto
          -23 24 -20 36 89 vvcurveto
          64 9 47 31 36 vhcurveto
          49 41 65 6 31 hhcurveto
          49 78 -27 -114 19 hvcurveto
          -6 2 6 0 7 hhcurveto
          15 0 2 15 hvcurveto
          141 vlineto
          15 0 2 -14 vhcurveto
          -49 -46 rlineto
          31 -36 -43 15 -48 hhcurveto
          -155 -100 -94 -136 -133 97 -97 158 116 74 79 77 hvcurveto
          endchar
        </CharString>
        <CharString name="currency">
          92 19 56 350 56 hstem
          207 56 349 56 vstem
          703 -16 rmoveto
          19 20 -18 18 -10 10 -75 75 rcurveline
          31 39 18 50 54 vvcurveto
          54 -18 49 -31 40 vhcurveto
          74 74 10 9 19 19 -19 19 rlinecurve
          -20 20 -19 -18 -10 -10 -74 -74 rcurveline
          31 -39 -50 18 -53 hhcurveto
          -54 -50 -19 -30 -39 hvcurveto
          -75 75 -10 9 -19 19 -19 -19 rlinecurve
          -20 -20 19 -18 10 -10 75 -75 rcurveline
          -31 -40 -18 -49 -54 vvcurveto
          -54 18 -49 31 -40 vhcurveto
          -75 -75 -10 -10 -19 -18 20 -20 rlinecurve
          19 -19 19 19 10 9 75 75 rcurveline
          -31 39 50 -18 54 hhcurveto
          53 50 18 31 39 hvcurveto
          75 -75 9 -9 19 -19 20 19 rlinecurve
          -91 266 rmoveto
          -97 -78 -78 -96 -97 -78 78 97 97 78 78 97 96 78 -78 -97 vhcurveto
          endchar
        </CharString>
        <CharString name="cwm">
          -783 endchar
        </CharString>
        <CharString name="cwmascender">
          -783 endchar
        </CharString>
        <CharString name="cwmcapital">
          -783 endchar
        </CharString>
        <CharString name="d">
          -158 -6 33 -27 43 374 33 193 51 callgsubr
          hintmask 01001010
          40 callgsubr
          hintmask 10110110
          -21 callgsubr
          hintmask 01000000
          107 vmoveto
          hintmask 10100110
          -21 callsubr
          endchar
        </CharString>
        <CharString name="dagger">
          -272 388 111 203 -20 hstemhm
          200 111 -32 111 hintmask 10010000
          447 443 rmoveto
          141 callsubr
          -33 -16 -9 -2 -13 -3 3 28 7 23 9 27 rrcurveto
          hintmask 11100000
          11 36 11 37 33 vvcurveto
          49 -37 10 -18 -22 -34 -13 -46 -33 11 -36 10 -32 vhcurveto
          10 -33 7 -23 3 -27 -10 2 -11 3 -19 9 rrcurveto
          12 -24 -29 14 -27 101 callgsubr
          33 16 9 2 13 3 -3 -27 -10 -28 -7 -20 rrcurveto
          -21 -64 0 -15 -43 vvcurveto
          -129 10 -130 16 -128 vhcurveto
          2 -16 4 -28 3 -4 rrcurveto
          -7 3 8 0 9 hhcurveto
          hintmask 00010000
          11 10 0 11 3 hvcurveto
          hintmask 00100000
          2 12 30 208 211 vvcurveto
          46 0 12 -23 70 vhcurveto
          -7 21 -8 25 -3 23 10 -2 11 -3 19 -9 rrcurveto
          hintmask 10010000
          -12 24 29 -14 27 hhcurveto
          41 16 30 25 hvcurveto
          endchar
        </CharString>
        <CharString name="daggerdbl">
          -272 -32 111 323 111 -92 110 171 -20 hstemhm
          200 111 hintmask 00100000
          447 476 rmoveto
          28 -19 27 -37 vhcurveto
          hintmask 01011000
          -18 -23 -6 -12 -24 hvcurveto
          -32 -15 -6 -2 -17 -4 3 18 1 8 13 33 rrcurveto
          13 34 10 31 28 vvcurveto
          44 -34 14 -21 -26 -30 -16 -42 -31 14 -36 10 -27 vhcurveto
          12 -33 1 -6 3 -19 -15 4 -6 1 -19 9 rrcurveto
          hintmask 00101000
          12 -24 -28 13 -28 hhcurveto
          -37 -19 -27 -28 -13 6 -42 51 13 16 0 24 49 hvcurveto
          20 10 5 1 16 4 -3 -18 -1 -8 -13 -33 rrcurveto
          -13 -34 -10 -31 -28 vvcurveto
          -44 34 -14 21 26 30 16 42 vhcurveto
          hintmask 01001000
          31 -14 36 -10 27 vhcurveto
          -12 33 -1 6 -3 19 15 -4 6 -1 19 -9 rrcurveto
          hintmask 10101000
          -21 42 17 -4 20 hhcurveto
          51 6 42 13 hvcurveto
          -453 vmoveto
          141 callsubr
          -28 -13 -12 -4 -14 -4 3 20 1 6 16 44 rrcurveto
          14 36 6 25 21 vvcurveto
          44 -34 14 -21 -26 -30 -16 -42 -28 11 -31 11 -30 vhcurveto
          14 -37 1 -7 3 -19 -13 3 -11 4 -15 8 rrcurveto
          12 -26 -28 13 -26 101 callgsubr
          22 10 16 7 16 4 -3 -20 -1 -6 -16 -44 rrcurveto
          -14 -36 -6 -25 -21 vvcurveto
          -44 34 -14 21 26 30 16 42 28 -11 31 -11 30 vhcurveto
          -14 37 -1 7 -3 19 18 -5 15 -7 23 -10 rrcurveto
          -9 18 24 -9 21 hhcurveto
          41 16 30 25 hvcurveto
          endchar
        </CharString>
        <CharString name="dblbracketleft">
          -330 -249 55 890 55 hstem
          127 55 86 55 vstem
          428 -249 rmoveto
          55 -105 890 105 55 -301 -1000 vlineto
          141 55 rmoveto
          -86 890 86 hlineto
          endchar
        </CharString>
        <CharString name="dblbracketright">
          -330 -249 55 890 55 hstem
          129 55 86 55 vstem
          325 -249 rmoveto
          1000 -300 -55 104 -890 -104 -55 vlineto
          245 55 rmoveto
          -86 890 86 hlineto
          endchar
        </CharString>
        <CharString name="dblgrave.ts1">
          -221 540 -21 191 -20 hstem
          422 541 rmoveto
          61 callgsubr
          -40 64 -45 7 -7 96 callsubr
          -187 hmoveto
          61 callgsubr
          -39 61 -43 10 -10 96 callsubr
          endchar
        </CharString>
        <CharString name="dblverticalbar">
          -296 750 -20 hstem
          129 61 107 61 vstem
          190 -206 rmoveto
          19 callgsubr
          168 hmoveto
          19 callgsubr
          endchar
        </CharString>
        <CharString name="dcaron">
          -158 -6 33 -27 43 374 33 12 -21 145 108 -51 51 callgsubr
          hintmask 0100001010000000
          40 callgsubr
          hintmask 1010010110000000
          -21 callgsubr
          hintmask 0100000000000000
          107 vmoveto
          hintmask 1010001110000000
          -21 callsubr
          268 249 138 callgsubr
          hintmask 0001100000000000
          -27 19 -27 35 22 13 11 3 3 vhcurveto
          -1 -21 -3 -62 -62 -52 rrcurveto
          -5 -5 -2 -1 -4 vvcurveto
          -7 9 -7 5 10 74 63 100 vhcurveto
          endchar
        </CharString>
        <CharString name="dcroat">
          -158 -6 33 -27 43 374 33 77 42 74 51 callgsubr
          hintmask 01010101
          589 hmoveto
          43 vlineto
          -62 -7 0 39 hvcurveto
          445 69 42 -69 125 vlineto
          hintmask 10111011
          -173 -90 callsubr
          -35 -166 -42 166 -125 vlineto
          19 -22 -44 29 -69 hhcurveto
          -142 -101 -88 -140 -143 99 -85 133 55 47 19 33 39 hvcurveto
          -52 vlineto
          hintmask 01000000
          107 vmoveto
          hintmask 10100011
          -21 callsubr
          endchar
        </CharString>
        <CharString name="ddotbelow">
          143 callsubr
          374 33 193 43 -43 51 hstemhm
          38 120 82 145 26 109 hintmask 0010010010000000
          40 callgsubr
          hintmask 0101101010000000
          -21 callgsubr
          hintmask 0010000000000000
          107 vmoveto
          hintmask 0101001010000000
          -21 callsubr
          hintmask 1000000100000000
          -26 -483 -100 callgsubr
        </CharString>
        <CharString name="degree">
          -361 374 56 200 56 hstem
          55 56 200 56 vstem
          367 530 rmoveto
          86 -70 70 -86 -86 -70 -70 -86 -86 70 -70 86 86 70 70 86 vhcurveto
          -56 hmoveto
          -56 -45 -44 -55 -55 -45 44 56 55 45 45 55 55 45 -45 -55 vhcurveto
          endchar
        </CharString>
        <CharString name="diameter">
          92 -114 56 616 56 hstem
          73 56 616 56 vstem
          812 597 rmoveto
          15 -13 13 -15 -8 -7 -3 -5 -5 vhcurveto
          -90 -91 rlineto
          55 -64 -83 33 -90 hhcurveto
          -201 -163 -163 -201 -91 33 -83 55 -63 hvcurveto
          -91 -91 rlineto
          -5 -5 -3 -7 -8 vvcurveto
          -15 13 -13 15 8 7 3 5 5 vhcurveto
          91 91 rlineto
          -54 63 83 -33 90 hhcurveto
          201 163 163 201 90 -33 83 -55 64 hvcurveto
          91 90 rlineto
          5 5 3 7 8 vvcurveto
          -67 -347 rmoveto
          -170 -138 -138 -170 -75 -68 27 44 -54 vhcurveto
          434 434 rlineto
          44 -53 27 -69 -75 vvcurveto
          -111 237 rmoveto
          -433 -435 rlineto
          -45 54 -27 69 75 vvcurveto
          170 138 138 170 75 69 -27 -44 53 vhcurveto
          endchar
        </CharString>
        <CharString name="died">
          -221 -3 -21 367 67 -61 53 136 53 17 -20 hstemhm
          126 100 19 71 19 100 cntrmask 00000111
          hintmask 00110111
          515 367 rmoveto
          15 vlineto
          14 -2 15 -15 -13 -15 -2 -1 -13 vhcurveto
          -3 -47 -48 -3 -47 hhcurveto
          45 4 46 7 45 vhcurveto
          6 39 rlineto
          1 5 2 5 5 vvcurveto
          hintmask 00001111
          16 -14 0 -9 vhcurveto
          -62 hlineto
          hintmask 00110111
          -10 -14 -1 -16 -15 7 -19 2 -16 hvcurveto
          6 -46 5 -47 -46 vvcurveto
          hintmask 01000111
          -58 -60 3 5 -57 hvcurveto
          0 -5 1 -3 -13 -3 -12 -11 vhcurveto
          -23 vlineto
          -11 1 -10 12 -4 vhcurveto
          5 hlineto
          6 7 1 1 6 hvcurveto
          42 3 rlineto
          hintmask 10100111
          3 40 40 1 40 hhcurveto
          -1 -5 0 -6 -5 vvcurveto
          -16 vlineto
          -105 -9 -105 -9 -104 vhcurveto
          -3 -1 -4 -3 vvcurveto
          -10 6 -7 14 vhcurveto
          66 hlineto
          11 12 1 19 29 -5 30 -3 29 hvcurveto
          -5 78 -6 77 78 vvcurveto
          16 vlineto
          5 0 6 -1 5 vhcurveto
          40 40 -1 -3 40 hvcurveto
          42 -3 rlineto
          -1 6 5 -1 6 hhcurveto
          16 5 10 17 hvcurveto
          endchar
        </CharString>
        <CharString name="dieresis">
          543 130 hstem
          97 20 callsubr
          vstem
          -41 callsubr
          endchar
        </CharString>
        <CharString name="dieresis.cap">
          488 130 hstem
          75 34 callgsubr
          vstem
          -7 callsubr
          endchar
        </CharString>
        <CharString name="dieresis.dup">
          543 130 hstem
          97 20 callsubr
          vstem
          -41 callsubr
          endchar
        </CharString>
        <CharString name="dieresis.ts1">
          -221 561 135 hstem
          105 134 83 135 vstem
          457 628 rmoveto
          35 -27 33 -42 vhcurveto
          -7 hlineto
          -33 -8 -26 -23 -36 vvcurveto
          -36 27 -32 42 vhcurveto
          7 hlineto
          33 7 26 26 34 vvcurveto
          -218 hmoveto
          36 -27 32 -42 vhcurveto
          -7 hlineto
          -33 -7 -25 -25 -35 vvcurveto
          -35 25 -33 43 vhcurveto
          7 hlineto
          33 8 26 23 36 vvcurveto
          endchar
        </CharString>
        <CharString name="discount">
          -221 17 168 -163 -21 567 168 14 -20 21 -20 hstemhm
          104 169 15 169 hintmask 00001000
          499 723 rmoveto
          15 -12 13 -15 vhcurveto
          hintmask 01010000
          -6 -1 -17 -3 -7 -20 -7 -13 rlinecurve
          -60 -108 -288 -524 rlineto
          -8 -16 -17 -21 -16 vvcurveto
          -15 12 -13 16 vhcurveto
          1 hlineto
          20 1 8 22 8 15 353 642 rcurveline
          7 13 12 15 14 vvcurveto
          -226 -71 rmoveto
          hintmask 10100110
          61 callsubr
          184 -551 rmoveto
          61 callsubr
          endchar
        </CharString>
        <CharString name="divide">
          92 -52 144 131 55 132 144 hstem
          365 144 vstem
          812 251 11 callsubr
          -303 231 13 callgsubr
          -462 77 callgsubr
        </CharString>
        <CharString name="divorced">
          -221 -92 -21 141 72 302 72 141 -20 hstem
          -223 71 381 103 381 71 cntrmask 00001110
          195 250 rmoveto
          121 -76 103 -127 -6 -6 0 -1 -6 vhcurveto
          -106 -11 -91 -68 -143 vvcurveto
          -57 17 -58 38 -43 vhcurveto
          -43 39 61 -22 57 hhcurveto
          131 75 103 119 hvcurveto
          589 hmoveto
          113 -69 111 -145 vhcurveto
          -5 -6 -1 -5 hhcurveto
          -54 -6 -51 -21 -35 -43 rrcurveto
          -35 -43 -13 -55 -54 vvcurveto
          -107 59 -115 147 122 90 90 131 vhcurveto
          -449 -349 rmoveto
          5 vlineto
          10 -2 10 -1 9 vhcurveto
          -4 66 -7 65 -2 66 -3 90 rcurveline
          -1 21 0 22 21 vvcurveto
          103 8 99 11 102 vhcurveto
          3 1 3 3 vvcurveto
          13 -11 3 -9 vhcurveto
          -66 hlineto
          -4 -4 0 -1 -4 hvcurveto
          -8 -3 -3 -7 -7 vvcurveto
          -7 2 -6 1 -6 vhcurveto
          1 -10 rlineto
          13 -97 3 -94 -97 vvcurveto
          -1 -115 -9 -114 -7 -115 rrcurveto
          -1 -11 -2 -12 -10 vvcurveto
          -13 11 -3 9 vhcurveto
          65 hlineto
          11 11 2 12 2 hvcurveto
          378 347 rmoveto
          -78 -31 -70 -115 -74 -59 35 80 -14 vhcurveto
          -3 32 rlineto
          42 9 46 32 31 vhcurveto
          29 30 45 7 40 hhcurveto
          37 42 -9 -28 26 hvcurveto
          29 -32 6 -44 -41 vvcurveto
          -570 -2 rmoveto
          -39 -11 -40 -27 -29 vhcurveto
          -28 -28 -43 -10 -40 hhcurveto
          -40 -42 8 29 -29 hvcurveto
          -27 30 -8 41 40 vvcurveto
          70 20 84 120 86 69 -42 -105 vhcurveto
          endchar
        </CharString>
        <CharString name="dlinebelow">
          -158 -152 48 98 33 -27 43 374 33 193 51 callgsubr
          hintmask 00100101
          40 callgsubr
          hintmask 01011011
          -21 callgsubr
          hintmask 00100000
          107 vmoveto
          hintmask 01010011
          -21 callsubr
          hintmask 10000000
          104 -507 -30 callgsubr
        </CharString>
        <CharString name="dollar">
          -35 -21 184 119 214 117 172 -20 hstem
          62 74 123 43 123 74 cntrmask 00001110
          499 207 rmoveto
          54 -20 53 -37 40 vhcurveto
          -47 50 -51 11 -42 9 rrcurveto
          232 vlineto
          69 -4 48 -24 25 -49 rrcurveto
          -49 -1 -14 -34 -24 vvcurveto
          -39 29 -20 30 22 37 12 50 100 -74 71 -123 5 vhcurveto
          51 -43 -51 vlineto
          -134 -9 -63 -91 -99 vvcurveto
          -74 42 -47 10 -10 vhcurveto
          50 -51 49 -10 46 -10 rrcurveto
          -260 vlineto
          -73 6 -50 31 -21 53 rrcurveto
          24 41 13 47 35 -25 24 -34 -24 -35 -13 -50 -99 68 -83 129 -7 hvcurveto
          -51 43 51 vlineto
          151 13 46 112 87 vvcurveto
          -240 226 rmoveto
          -92 17 -31 52 44 vvcurveto
          39 25 63 98 8 vhcurveto
          166 -494 rmoveto
          -35 -16 -77 -107 -12 vhcurveto
          250 vlineto
          82 -14 41 -56 -56 vvcurveto
          endchar
        </CharString>
        <CharString name="dollar.oldstyle">
          -96 654 46 -46 48 -46 46 hstemhm
          62 74 44 118 -43 43 90 43 75 118 -74 74 cntrmask 1110000000000000
          hintmask 1110001010000000
          624 211 rmoveto
          3 vlineto
          -1 112 -98 54 -94 29 rrcurveto
          243 vlineto
          54 -7 56 -17 26 -48 rrcurveto
          hintmask 1111011100000000
          -34 -27 -24 -35 -34 25 -25 34 35 24 24 39 86 -56 64 -137 20 hvcurveto
          56 -43 -51 vlineto
          1 -17 -19 1 -19 hhcurveto
          -12 -12 -1 -1 -11 hvcurveto
          51 -43 -57 vlineto
          -107 -21 -86 -65 -106 vvcurveto
          -119 90 -43 103 -27 vhcurveto
          -269 vlineto
          -58 10 -56 23 -24 53 rrcurveto
          hintmask 1111100000000000
          35 28 23 36 34 -24 25 -35 -35 -24 -24 -39 hvcurveto
          hintmask 1111011010000000
          -90 62 -72 131 -22 vhcurveto
          -56 43 51 vlineto
          -1 13 14 0 14 hhcurveto
          17 16 1 1 16 hvcurveto
          -52 43 58 vlineto
          137 28 56 91 89 vvcurveto
          -236 210 rmoveto
          -16 4 -16 3 -14 3 -8 2 -16 2 -20 4 rrcurveto
          215 vlineto
          1 17 15 1 12 hhcurveto
          14 15 0 -1 17 hvcurveto
          -133 -206 rmoveto
          -57 15 -62 28 54 vvcurveto
          60 60 29 59 12 vhcurveto
          295 -486 rmoveto
          -64 -59 -32 -60 -15 vhcurveto
          224 vlineto
          61 -17 58 -30 -66 vvcurveto
          -162 -119 rmoveto
          -2 -19 -17 -1 -14 hhcurveto
          -13 -13 0 1 -14 hvcurveto
          263 vlineto
          13 -2 12 -3 13 -3 52 -11 rcurveline
          endchar
        </CharString>
        <CharString name="dong">
          -158 -42 42 hstem
          560 35 rmoveto
          41 vlineto
          -59 -7 0 37 hvcurveto
          422 66 40 -66 119 vlineto
          -164 -8 rlineto
          -40 vlineto
          59 6 0 -37 hvcurveto
          -34 -158 -40 158 -118 vlineto
          18 -21 -42 27 -65 hhcurveto
          -135 -96 -83 -133 -136 94 -81 126 53 44 18 31 37 hvcurveto
          -49 vlineto
          170 -50 rmoveto
          12 -10 9 -11 vhcurveto
          -482 hlineto
          -11 -10 -9 -12 -12 10 -9 11 hvcurveto
          482 hlineto
          11 10 9 12 hvcurveto
          -170 152 rmoveto
          -58 -39 -49 -13 -34 hhcurveto
          -118 0 121 63 44 0 48 21 36 hvcurveto
          53 29 56 6 22 hhcurveto
          39 42 -17 -42 31 hvcurveto
          endchar
        </CharString>
        <CharString name="dotaccent">
          -470 536 72 callsubr
          608 -100 callgsubr
        </CharString>
        <CharString name="dotaccent.alt">
          -470 493 72 callsubr
          565 -100 callgsubr
        </CharString>
        <CharString name="dotaccent.cap">
          -470 488 72 callsubr
          560 -100 callgsubr
        </CharString>
        <CharString name="dotlessi">
          -470 0 -16 callsubr
          hstemhm
          113 104 hintmask 10110000
          -5 callgsubr
          hintmask 11010000
          -79 callsubr
          endchar
        </CharString>
        <CharString name="dotlessj">
          48 callsubr
          hstem
          -53 118 89 104 vstem
          -68 callsubr
          endchar
        </CharString>
        <CharString name="e">
          -25 callgsubr
          0 callgsubr
          hintmask 11011000
          -89 callsubr
          hintmask 11110100
          -99 callsubr
          endchar
        </CharString>
        <CharString name="eacute">
          -25 callgsubr
          79 -21 193 -95 callgsubr
          10 394 -91 callsubr
        </CharString>
        <CharString name="ebreve">
          -25 callgsubr
          63 58 126 -95 callgsubr
          40 450 -101 callsubr
          endchar
        </CharString>
        <CharString name="ecaron">
          -25 callgsubr
          72 -21 207 -95 callgsubr
          44 439 -52 callgsubr
        </CharString>
        <CharString name="ecircumflex">
          -25 callgsubr
          72 -21 207 -95 callgsubr
          44 276 -62 callgsubr
          endchar
        </CharString>
        <CharString name="ecircumflexacute">
          -25 callgsubr
          72 -21 368 -95 callgsubr
          42 278 -94 callgsubr
          -46 298 -104 callgsubr
        </CharString>
        <CharString name="ecircumflexdotbelow">
          -270 14 callsubr
          50 36 191 29 170 33 72 -21 207 -20 79 callsubr
          hintmask 0110001010000000
          -89 callsubr
          hintmask 0111111001000000
          -99 callsubr
          44 276 -62 callgsubr
          hintmask 1000000100000000
          -84 -632 -100 callgsubr
        </CharString>
        <CharString name="ecircumflexgrave">
          -25 callgsubr
          72 -21 165 -95 callgsubr
          42 278 -69 callsubr
        </CharString>
        <CharString name="ecircumflexhookabove">
          -25 callgsubr
          72 -21 378 -95 callgsubr
          42 278 -94 callgsubr
          60 314 -107 callgsubr
        </CharString>
        <CharString name="ecircumflextilde">
          -25 callgsubr
          72 -21 220 69 -32 69 0 callgsubr
          hintmask 1100001100000000
          -89 callsubr
          hintmask 1110001010000000
          -99 callsubr
          hintmask 0001010000000000
          42 278 -94 callgsubr
          28 304 22 callgsubr
          hintmask 0000100000000000
          -82 callsubr
          hintmask 0000010000000000
          -88 callgsubr
          hintmask 0000100000000000
          24 -22 rlineto
          hintmask 0000010000000000
          -82 callgsubr
          hintmask 0000100000000000
          -84 callgsubr
        </CharString>
        <CharString name="edblgrave">
          -25 callgsubr
          79 -21 193 -95 callgsubr
          11 283 -94 callsubr
        </CharString>
        <CharString name="edieresis">
          -25 callgsubr
          90 130 89 callsubr
          -79 130 95 92 -79 130 -51 92 hintmask 1100101000000000
          -89 callsubr
          hintmask 1110100010000000
          -99 callsubr
          hintmask 0001010100000000
          -187 358 -61 callgsubr
        </CharString>
        <CharString name="edotaccent">
          -25 callgsubr
          83 144 79 callsubr
          hintmask 11001010
          -89 callsubr
          hintmask 11101001
          -99 callsubr
          hintmask 00010100
          -60 358 -100 callgsubr
        </CharString>
        <CharString name="edotbelow">
          -270 14 callsubr
          50 36 191 29 170 33 79 callsubr
          hintmask 01101010
          -89 callsubr
          hintmask 01111001
          -99 callsubr
          hintmask 10000100
          -60 -378 -100 callgsubr
        </CharString>
        <CharString name="egrave">
          -25 callgsubr
          79 -21 193 -95 callgsubr
          -61 294 -64 callgsubr
        </CharString>
        <CharString name="ehookabove">
          -25 callgsubr
          77 -21 198 -95 callgsubr
          -23 393 -107 callgsubr
        </CharString>
        <CharString name="eight">
          -12 40 592 36 hstem
          47 80 307 80 vstem
          514 -19 callgsubr
        </CharString>
        <CharString name="eight.oldstyle">
          -150 -12 40 592 36 hstemhm
          83 120 callsubr
          550 -23 callsubr
        </CharString>
        <CharString name="eight.prop">
          -150 -12 40 592 36 hstem
          83 80 307 80 vstem
          550 -19 callgsubr
        </CharString>
        <CharString name="eight.taboldstyle">
          -12 40 592 36 hstemhm
          47 120 callsubr
          514 -23 callsubr
        </CharString>
        <CharString name="ellipsis">
          19 0 144 hstem
          84 144 101 144 101 144 cntrmask 01110000
          228 72 13 callgsubr
          245 hmoveto
          -33 callsubr
          245 hmoveto
          78 callgsubr
        </CharString>
        <CharString name="emacron">
          -25 callgsubr
          131 48 0 callgsubr
          hintmask 11001100
          -89 callsubr
          hintmask 11101010
          -99 callsubr
          hintmask 00010000
          70 334 -30 callgsubr
        </CharString>
        <CharString name="emdash">
          342 258 33 hstem
          0 1124 vstem
          1124 258 rmoveto
          33 -1124 -33 vlineto
          endchar
        </CharString>
        <CharString name="emdash.alt">
          -33 259 33 hstem
          749 259 rmoveto
          33 -749 -33 vlineto
          endchar
        </CharString>
        <CharString name="endash">
          258 33 hstem
          0 561 vstem
          561 258 rmoveto
          33 -561 -33 vlineto
          endchar
        </CharString>
        <CharString name="eng">
          -205 -206 108 98 88 callgsubr
          -43 51 hstemhm
          111 100 -100 0 callsubr
          hintmask 00001101
          531 43 rmoveto
          263 vlineto
          95 -41 49 -110 -72 -62 -35 -75 -34 vhcurveto
          120 callgsubr
          hintmask 01110100
          -169 -90 callsubr
          -317 -87 callsubr
          43 vlineto
          hintmask 11100011
          -69 213 hlineto
          108 80 53 64 37 21 -24 -76 vhcurveto
          -274 vlineto
          -67 0 -74 -26 -39 vhcurveto
          22 -7 -21 17 -24 hhcurveto
          -30 -24 -25 -29 -30 24 -24 30 116 71 121 128 hvcurveto
          endchar
        </CharString>
        <CharString name="eogonek">
          -270 -206 70 130 36 191 29 170 33 0 callgsubr
          hintmask 01101100
          -89 callsubr
          hintmask 11111010
          23 6 0 25 30 -7 75 -46 47 hvcurveto
          42 -42 -56 13 -58 hhcurveto
          -156 -85 -102 -126 -140 103 -91 151 hvcurveto
          -35 -29 -21 -26 -40 -76 callsubr
          -47 -48 86 54 84 hvcurveto
          92 27 30 72 14 vvcurveto
          -92 133 rmoveto
          -238 hlineto
          2 41 1 39 21 36 rrcurveto
          32 19 35 22 43 hhcurveto
          107 9 -120 -50 1 hvcurveto
          endchar
        </CharString>
        <CharString name="eogonekacute">
          -270 -206 70 130 36 191 29 170 33 79 -21 193 -20 0 callgsubr
          hintmask 0110001100000000
          -89 callsubr
          hintmask 1111001010000000
          23 6 0 25 30 -7 75 -46 47 hvcurveto
          42 -42 -56 13 -58 hhcurveto
          -156 -85 -102 -126 -140 103 -91 151 hvcurveto
          -35 -29 -21 -26 -40 -76 callsubr
          -47 -48 86 54 84 hvcurveto
          92 27 30 72 14 vvcurveto
          -92 133 rmoveto
          -238 hlineto
          2 41 1 39 21 36 rrcurveto
          32 19 35 22 43 hhcurveto
          107 9 -120 -50 1 hvcurveto
          hintmask 0000110000000000
          10 394 -91 callsubr
        </CharString>
        <CharString name="equal">
          92 113 55 163 55 hstem
          62 750 vstem
          812 359 11 callsubr
          -219 vmoveto
          28 -26 0 -15 vhcurveto
          -668 hlineto
          -15 64 callsubr
          670 hlineto
          13 27 0 27 hvcurveto
          endchar
        </CharString>
        <CharString name="ereversed">
          -25 callgsubr
          hstemhm
          31 92 0 92 146 120 hintmask 01110100
          481 225 rmoveto
          126 -85 102 -156 -58 -56 -13 -42 -42 vhcurveto
          -46 -47 -7 -75 -30 vvcurveto
          -25 6 0 23 vhcurveto
          301 hlineto
          hintmask 10001000
          -56 -1 -135 -145 -48 -66 21 65 -26 vhcurveto
          13 -6 -1 3 -16 hhcurveto
          hintmask 11110100
          -6 -15 0 -15 -17 45 -106 151 151 103 91 140 hvcurveto
          -120 25 rmoveto
          -238 hlineto
          50 1 9 120 107 hhcurveto
          43 35 -22 -32 19 hvcurveto
          21 -36 1 -39 2 -41 rrcurveto
          endchar
        </CharString>
        <CharString name="estimated">
          -9 -5 36 66 36 210 30 231 30 29 33 hstemhm
          31 141 375 141 -74 127 hintmask 11100110
          741 118 rmoveto
          13 -13 2 -10 -19 -3 -14 -11 -8 vhcurveto
          -55 -66 -92 -10 -79 -1 rrcurveto
          -16 hlineto
          -69 -72 16 50 -54 hvcurveto
          -68 63 -10 96 -1 87 rrcurveto
          550 hlineto
          hintmask 10111101
          14 5 8 11 hvcurveto
          5 vlineto
          95 -27 99 -74 63 vhcurveto
          56 -65 -90 16 -83 hhcurveto
          -165 -206 -85 -268 -102 43 -104 83 -63 hvcurveto
          -56 75 93 -23 92 hhcurveto
          108 141 1 105 67 hvcurveto
          4 5 4 6 6 vvcurveto
          -127 255 rmoveto
          -442 hlineto
          3 97 15 106 98 58 rrcurveto
          19 34 40 10 40 hhcurveto
          hintmask 00010010
          54 54 -18 -41 37 hvcurveto
          hintmask 00100001
          55 -61 12 -95 -75 vvcurveto
          endchar
        </CharString>
        <CharString name="eth">
          38 callsubr
          hstem
          31 121 257 121 vstem
          530 256 rmoveto
          62 0 69 -48 88 vhcurveto
          -34 60 -48 50 -57 37 82 36 rcurveline
          -17 40 -111 -49 -60 29 -66 17 -69 3 rlinecurve
          -11 -36 46 -8 43 -17 39 -23 rlinecurve
          -81 -36 17 -40 106 47 56 -44 43 -60 25 -70 rlinecurve
          42 -45 -48 0 -15 hhcurveto
          -141 -105 -90 -144 -128 91 -97 158 80 64 25 39 41 hvcurveto
          65 63 0 70 65 vvcurveto
          -121 -40 rmoveto
          -54 -5 -40 -17 -33 vhcurveto
          -45 -25 -46 -14 -35 hhcurveto
          -42 -44 18 45 -23 hvcurveto
          -18 37 -2 41 58 vvcurveto
          46 0 53 23 37 vhcurveto
          53 34 56 2 14 hhcurveto
          130 0 -171 -33 hvcurveto
          endchar
        </CharString>
        <CharString name="etilde">
          -25 callgsubr
          102 69 -32 69 -98 callsubr
          hintmask 00001000
          54 389 -88 callsubr
        </CharString>
        <CharString name="eturned">
          -22 callsubr
        </CharString>
        <CharString name="exclam">
          -440 0 144 94 -21 489 -20 hstem
          99 144 vstem
          243 640 rmoveto
          45 -41 21 -31 -31 -41 -22 -44 -11 0 -2 2 -14 vhcurveto
          48 -374 rlineto
          -19 2 1 -3 19 hhcurveto
          19 1 3 19 2 hvcurveto
          48 374 rlineto
          2 14 0 2 11 vvcurveto
          -568 vmoveto
          -3 callsubr
          endchar
        </CharString>
        <CharString name="exclamdown">
          -440 -185 -21 489 -20 93 144 hstem
          99 141 vstem
          243 428 rmoveto
          -3 callsubr
          -568 vmoveto
          11 0 2 -2 14 vhcurveto
          -48 374 rlineto
          19 -2 -1 3 -19 hhcurveto
          -19 -1 -3 -19 -2 hvcurveto
          -48 -374 rlineto
          -2 -14 0 -2 -11 vvcurveto
          -45 41 -21 31 31 41 22 44 vhcurveto
          endchar
        </CharString>
        <CharString name="f">
          -20 callsubr
          358 114 43 -119 103 vlineto
          104 66 16 33 11 2 -1 -2 6 vhcurveto
          -15 -10 -9 44 callsubr
          endchar
        </CharString>
        <CharString name="f_f">
          -127 75 callgsubr
          223 33 hstem
          104 104 208 104 89 116 vstem
          725 617 rmoveto
          41 -36 42 -71 -31 -55 -4 -30 -49 vhcurveto
          34 -40 -58 0 -17 hhcurveto
          -118 -146 -36 -119 39 callgsubr
          2 23 75 0 28 hhcurveto
          29 81 0 -2 24 hvcurveto
          43 -87 358 114 43 -119 103 vlineto
          104 66 16 33 11 2 -1 -2 6 vhcurveto
          -15 -10 -9 44 callsubr
          -298 39 rmoveto
          -11 -5 -20 -17 -30 vvcurveto
          -18 6 -16 14 -11 vhcurveto
          -115 -213 100 vlineto
          108 105 15 52 35 24 -8 -3 8 vhcurveto
          endchar
        </CharString>
        <CharString name="f_f_i">
          155 75 callgsubr
          -40 49 73 123 -105 43 80 135 callsubr
          208 104 208 104 cntrmask 0000001110000000
          hintmask 1010001110000000
          901 hmoveto
          43 -69 410 vlineto
          -173 -5 rlineto
          hintmask 0100111110000000
          63 callgsubr
          hintmask 0001001110000000
          -37 27 -24 34 vhcurveto
          hintmask 1100111110000000
          33 28 23 38 55 -45 58 -101 -80 -63 -13 -31 -54 hvcurveto
          44 -42 -58 0 -18 5 callgsubr
          177 vlineto
          25 6 -1 -35 hvcurveto
          -322 -60 callgsubr
          -467 647 rmoveto
          -30 -9 -15 -21 -30 vvcurveto
          -21 8 -19 19 -11 vhcurveto
          -92 -213 100 vlineto
          89 75 34 80 17 32 -2 -18 27 vhcurveto
          endchar
        </CharString>
</ttFont>
